<?xml version="1.0" standalone="no"?>
<!DOCTYPE svg PUBLIC "-//W3C//DTD SVG 1.1//EN" "http://www.w3.org/Graphics/SVG/1.1/DTD/svg11.dtd" >
<svg>
<metadata>
Created by FontForge 20090622 at Mon Sep  7 14:44:00 2015
 By deploy user
Copyright 1990-1993 Bitstream Inc.  All rights reserved.
</metadata>
<defs>
<font id="Pica10PitchBT-Roman" horiz-adv-x="1233" >
  <font-face 
    font-family="Pica10 BT"
    font-weight="400"
    font-stretch="normal"
    units-per-em="2048"
    panose-1="2 7 4 9 2 2 5 3 2 4"
    ascent="1638"
    descent="-410"
    x-height="924"
    cap-height="1233"
    bbox="-57 -530 1682 1794"
    underline-thickness="94"
    underline-position="-119"
    unicode-range="U+0020-U+F002"
  />
<missing-glyph horiz-adv-x="1794" 
d="M112 0v1794h1570v-1794h-1570zM1570 112v1570h-1346v-1570h1346z" />
    <glyph glyph-name=".notdef" horiz-adv-x="1794" 
d="M112 0v1794h1570v-1794h-1570zM1570 112v1570h-1346v-1570h1346z" />
    <glyph glyph-name=".null" horiz-adv-x="0" 
 />
    <glyph glyph-name="nonmarkingreturn" 
 />
    <glyph glyph-name="space" unicode=" " 
 />
    <glyph glyph-name="exclam" unicode="!" 
d="M616 373q-47 0 -47 123v16v11q-2 7 -2 9q0 64 -9.5 137t-29.5 183q-16 95 -24 150t-8 83q0 82 32.5 129.5t87.5 47.5q59 0 90 -40t31 -114q0 -36 -30 -227l-27.5 -183.5t-13.5 -167.5l-3 -35q0 -122 -47 -122zM616 -18q-59 0 -100 41t-41 100q0 60 40 100.5t101 40.5
q63 0 102.5 -39.5t39.5 -101.5q0 -60 -40.5 -100.5t-101.5 -40.5z" />
    <glyph glyph-name="quotedbl" unicode="&#x22;" 
d="M803 569q-32 0 -49 32q-9 19 -15 47t-6 63q0 60 -10 127q-4 28 -24 127l-23 137q0 72 34.5 116t92.5 44q55 0 91 -42t36 -110q0 -30 -23 -139q-18 -91 -21 -108q-9 -55 -9 -99l-2 -14q0 -87 -20.5 -134t-51.5 -47zM428 569q-29 0 -47 31q-9 17 -15 45.5t-6 65.5
q0 73 -15 158l-20 96q-24 126 -24 137q0 72 35 116t92 44t93 -42.5t36 -109.5q0 -23 -23 -135t-32 -211l-1 -13q0 -86 -21 -134t-52 -48z" />
    <glyph glyph-name="numbersign" unicode="#" 
d="M502 551h225l55 221h-219zM354 12q-3 -15 -13.5 -25t-29.5 -10q-22 0 -33.5 11t-11.5 30v11l2 7l115 425h-74q-22 0 -35.5 13t-13.5 34q0 20 12.5 31.5t36.5 11.5h99l63 221h-162q-21 0 -36 12q-13 13 -13 33q0 21 12.5 33t36.5 12h191l96 363q5 18 16.5 27.5t28.5 9.5
q19 0 32 -13t13 -30l-1 -12l-1 -7l-94 -338h221l98 362q4 18 16.5 28t28.5 10q21 0 33 -12t12 -31l-1 -12v-6l-93 -339h72q20 0 33.5 -12.5t13.5 -32.5t-12 -34q-13 -11 -35 -11h-98l-64 -221h162q20 0 33.5 -12.5t13.5 -32.5t-12 -34q-13 -11 -35 -11h-186l-123 -449
q-4 -16 -15.5 -25.5t-29.5 -9.5q-22 0 -33.5 11t-11.5 30v12l1 6l117 425h-219z" />
    <glyph glyph-name="dollar" unicode="$" 
d="M682 528v-475q53 0 98 19t82 53q68 63 68 158q0 90 -54.5 145t-193.5 100zM598 645v395q-104 0 -162.5 -49.5t-58.5 -134.5q0 -75 53 -126.5t168 -84.5zM682 -23v-176q0 -37 -11 -54q-9 -17 -32 -17q-20 0 -31 15q-8 16 -8 69v16v147q-72 0 -134 19.5t-113 52.5
q-91 61 -91 150q0 45 31.5 78.5t75.5 33.5q38 0 63 -25t25 -61q0 -30 -15.5 -55t-44.5 -39q19 -34 71 -55q26 -10 59.5 -16.5t70.5 -6.5v498q-155 42 -234 121t-79 190q0 110 84 181q45 37 101.5 57t127.5 20v178q0 37 9.5 54.5t31.5 17.5t31.5 -16t9.5 -84v-154
q56 0 104 -18t90 -51q76 -61 76 -142q0 -43 -27 -72.5t-69 -29.5q-38 0 -61 23t-23 61q0 26 15 45t46 35q-15 30 -53 49q-20 9 -45 15.5t-51 6.5v-417q168 -48 251 -131t83 -203q0 -125 -93 -214q-49 -46 -108.5 -71t-132.5 -25z" />
    <glyph glyph-name="percent" unicode="%" 
d="M928 371q0 45 -20.5 71.5t-55.5 26.5q-63 0 -118.5 -98.5t-55.5 -210.5q0 -52 20 -81.5t56 -29.5q62 0 118 102t56 220zM850 543q79 0 120.5 -49t41.5 -144q0 -150 -79.5 -262.5t-184.5 -112.5q-74 0 -115 51t-41 140q0 148 79.5 262.5t178.5 114.5zM551 1063
q0 45 -19.5 70.5t-54.5 25.5q-62 0 -118 -98t-56 -211q0 -51 19 -82q20 -29 55 -29q61 0 117.5 102.5t56.5 221.5zM614 1141q6 -15 9.5 -27.5t8.5 -35.5t5 -46q0 -141 -81.5 -252.5t-184.5 -111.5q-72 0 -115 50q-41 52 -41 140q0 150 78.5 262.5t179.5 112.5q33 0 97 -21.5
t100 -21.5q61 0 109 28t89 86l5 7q42 57 69 57q11 0 20 -9t9 -22t-3 -24t-6 -19t-12 -26l-618 -1370q-15 -36 -29 -53q-12 -17 -27 -17q-9 0 -20 12q-6 9 -8 27q0 18 30 87l5 12l561 1232q-16 -18 -35.5 -34t-36.5 -25q-36 -17 -84 -17q-23 0 -39.5 4t-34.5 15z" />
    <glyph glyph-name="ampersand" unicode="&#x26;" 
d="M717 217l-112 194l-113 210q-79 -75 -118 -154q-18 -37 -28 -79.5t-10 -86.5q0 -109 53 -173.5t141 -64.5q57 0 105.5 40.5t81.5 113.5zM518 739q88 82 132 155t44 136q0 58 -33.5 93.5t-87.5 35.5q-68 0 -108.5 -41.5t-40.5 -116.5q0 -28 5 -55.5t18 -63t29.5 -69
t41.5 -74.5zM762 141q-36 -78 -100 -119.5t-146 -41.5q-116 0 -196 87.5t-80 219.5q0 101 51 198.5t160 202.5q-68 118 -93.5 191.5t-25.5 132.5q0 98 69.5 163.5t176.5 65.5q93 0 151.5 -55.5t58.5 -145.5q0 -88 -55.5 -177t-175.5 -191l103 -194l96 -166l14 54
q62 240 164 240q39 0 65.5 -27.5t26.5 -68.5q0 -39 -24.5 -66.5t-57.5 -27.5l-25 6q-18 6 -30 6q-20 0 -50 -90l-36 -109q36 -63 60 -89.5t44 -26.5l4 1l5 1q10 13 19.5 18.5t25.5 5.5q32 0 51.5 -20t19.5 -53q0 -36 -24 -59q-24 -21 -66 -21q-47 0 -86.5 32.5t-93.5 122.5z
" />
    <glyph glyph-name="quotesingle" unicode="'" 
d="M616 569q-32 0 -48 32q-9 19 -15 47t-6 62q0 48 -5.5 92.5t-29.5 162.5l-23 137q0 72 35 116t92 44q56 0 91.5 -42.5t35.5 -109.5q0 -30 -22 -140.5t-31 -205.5l-1 -13q0 -86 -21 -134t-52 -48z" />
    <glyph glyph-name="parenleft" unicode="(" 
d="M557 614q0 -158 34 -297t105 -272q29 -54 83.5 -122t54.5 -101q0 -19 -13 -32t-30 -13q-25 0 -65 40t-89 115q-95 149 -142 319q-22 82 -34 175t-12 190q0 198 45.5 363.5t142.5 316.5q48 77 87.5 118.5t63.5 41.5q22 0 33 -14q13 -13 13 -35q0 -27 -54.5 -100
t-83.5 -123q-69 -123 -105 -265q-16 -69 -25 -146.5t-9 -158.5z" />
    <glyph glyph-name="parenright" unicode=")" 
d="M676 616q0 159 -34 299.5t-105 270.5q-28 53 -83 122t-55 103q0 18 12.5 31.5t30.5 13.5q23 0 64 -40.5t90 -117.5q95 -149 141.5 -319.5t46.5 -364.5q0 -197 -45.5 -362.5t-142.5 -317.5q-46 -74 -87.5 -115.5t-66.5 -41.5q-20 0 -32.5 12.5t-12.5 36.5q0 25 54 97
q51 66 86 124q67 120 103 264t36 305z" />
    <glyph glyph-name="asterisk" unicode="*" 
d="M616 793q-33 -58 -74 -194t-114 -136q-38 0 -66 27t-28 67q0 58 96.5 136t144.5 144q-35 -5 -113.5 -34t-121.5 -29q-51 0 -80 23q-27 24 -27 69q0 39 28 64.5t71 25.5q23 0 104 -26t139 -41q-47 65 -144 143t-97 135q0 38 27.5 66.5t66.5 28.5q70 0 111.5 -136
t76.5 -194q35 58 75 194t112 136q39 0 66.5 -28t27.5 -67q0 -57 -95 -134.5t-147 -145.5q21 3 46.5 10.5t69.5 23.5q79 29 120 29q51 0 79.5 -23.5t28.5 -68.5q0 -38 -28 -63t-72 -25q-32 0 -113 29q-42 15 -74 24.5t-57 14.5q49 -67 145.5 -145t96.5 -136
q0 -39 -27.5 -66.5t-66.5 -27.5t-64 26q-24 28 -45 95l-19 66q-29 104 -59 143z" />
    <glyph glyph-name="plus" unicode="+" 
d="M666 195q0 -37 -11 -48q-9 -12 -37 -12t-40.5 13.5t-12.5 46.5v389h-364q-37 0 -48.5 10.5t-11.5 36.5q0 28 13.5 40.5t46.5 12.5h364v387q0 15 1.5 27.5t11 23.5t34.5 11q27 0 40.5 -15t13.5 -47v-387h364q15 0 27.5 -1.5t23.5 -10.5t11 -35q0 -27 -14.5 -40t-47.5 -13
h-364v-389z" />
    <glyph glyph-name="comma" unicode="," 
d="M671 12l-40 -8l-19 -2q-62 0 -98.5 33.5t-36.5 91.5q0 55 42.5 96t101.5 41q69 0 118 -57t49 -144q0 -121 -96.5 -217t-212.5 -96q-23 0 -37 11q-14 9 -14 28q0 30 62 51l26.5 9t32.5 14q58 26 87 63t35 86z" />
    <glyph glyph-name="hyphen" unicode="-" 
d="M965 524q40 0 57.5 -12.5t17.5 -42.5q0 -27 -21 -39q-22 -10 -85 -10h-625q-77 0 -96.5 11.5t-19.5 41.5q0 27 18.5 39t60.5 12h693z" />
    <glyph glyph-name="period" unicode="." 
d="M616 -18q-59 0 -100 41t-41 100q0 60 40 100.5t101 40.5q63 0 102.5 -39.5t39.5 -101.5q0 -60 -40.5 -100.5t-101.5 -40.5z" />
    <glyph glyph-name="slash" unicode="/" 
d="M883 1307q13 30 30.5 45.5t34.5 15.5q15 0 24 -8.5t9 -22.5q0 -13 -5 -27q-3 -15 -15 -42l-609 -1370q-17 -40 -33 -56q-12 -14 -30 -14q-16 0 -26.5 11.5t-10.5 27.5q0 23 25 77l10 22z" />
    <glyph glyph-name="zero" unicode="0" 
d="M616 53q138 0 220 153.5t82 411.5q0 261 -81.5 413.5t-220.5 152.5q-136 0 -218.5 -153t-82.5 -413q0 -259 81.5 -412t219.5 -153zM616 -25q-187 0 -294 170t-107 473q0 305 106.5 474.5t294.5 169.5q189 0 295.5 -169.5t106.5 -474.5t-106.5 -474t-295.5 -169z" />
    <glyph glyph-name="one" unicode="1" 
d="M680 90h287q39 0 56 -11t17 -36q0 -23 -17.5 -33t-88.5 -10h-615q-61 0 -78.5 9t-17.5 32q0 25 15 37t53 12h295v1053l-215 -90l-12 -5q-37 -14 -58 -14q-16 0 -27.5 10.5t-11.5 24.5q0 15 15 29.5t51 29.5l248 105l18 8q33 14 51 16q20 0 27.5 -11t7.5 -48v-41v-1067z
" />
    <glyph glyph-name="two" unicode="2" 
d="M303 94h553q80 0 100.5 -8.5t20.5 -32.5q0 -30 -26.5 -41.5t-125.5 -11.5h-526q-51 0 -71 17q-19 19 -19 65q0 138 60 234t190 163q53 29 165.5 75.5t151.5 74.5q60 39 90 102q15 32 23 67.5t8 78.5q0 141 -78 223t-215 82q-77 0 -138 -26t-106 -77q-19 -23 -53.5 -79
t-60.5 -56q-13 0 -23 11q-8 13 -8 32q0 95 115.5 185t271.5 90q172 0 282.5 -109t110.5 -272q0 -145 -70.5 -233.5t-303.5 -186.5q-192 -80 -255 -158t-63 -209z" />
    <glyph glyph-name="three" unicode="3" 
d="M688 621q147 -24 233.5 -133t86.5 -271q0 -194 -128.5 -316t-332.5 -122q-66 0 -123.5 9t-112.5 29q-106 38 -106 79q0 14 12 25q12 9 33 9q13 0 105.5 -31.5t176.5 -31.5q171 0 272 96.5t101 263.5q0 163 -98 249q-51 45 -124.5 70t-169.5 25l-28 2q-51 0 -77.5 11.5
t-26.5 33.5q0 39 84 39q31 0 61.5 3.5t55.5 9.5q150 29 225.5 96t75.5 172q0 101 -75.5 169.5t-191.5 68.5q-114 0 -231 -66t-127 -68q-14 0 -26 9q-9 9 -9 24q0 50 129.5 118.5t253.5 68.5q168 0 272.5 -93t104.5 -243q0 -118 -78.5 -199.5t-216.5 -105.5z" />
    <glyph glyph-name="four" unicode="4" 
d="M864 434h101q22 0 34 -7.5t13 -23.5q0 -21 -17 -35t-45 -14h-86v-252q0 -66 -12 -96.5t-39 -30.5t-37 17t-10 80v34v248h-373q-45 0 -72.5 3t-42 11t-21.5 20t-7 32q0 19 30 87l48 109q53 136 79 255q11 53 18 112.5t7 110.5q0 75 -12 167l-12 103q0 26 11 41.5t30 15.5
q33 0 57 -86t24 -223q0 -159 -45.5 -328t-136.5 -350h418v637q0 64 12.5 93.5t40.5 29.5q23 0 35 -28q10 -30 10 -105v-627z" />
    <glyph glyph-name="five" unicode="5" 
d="M850 1233q80 0 100.5 -8.5t20.5 -32.5q0 -30 -30.5 -41.5t-119.5 -11.5h-504l-8 -496q69 67 152 103t172 36q169 0 281 -116.5t112 -294.5q0 -146 -73 -261.5t-218 -197.5q-104 -60 -233 -97.5t-219 -37.5q-24 0 -37 10t-13 29q0 39 127 64q63 12 118 27t104 34
q165 65 254.5 174.5t89.5 249.5q0 150 -83 242.5t-216 92.5q-65 0 -124 -21q-31 -11 -57 -25.5t-59 -39.5q-27 -21 -66.5 -55.5t-56.5 -36.5q-22 0 -33 24q-10 27 -10 85v26l6 446q0 74 30 102t132 28h461z" />
    <glyph glyph-name="six" unicode="6" 
d="M633 66q119 0 203 102t84 252q0 145 -81.5 241.5t-205.5 96.5q-120 0 -203.5 -96.5t-83.5 -239.5q0 -152 83 -254t204 -102zM301 588q44 123 134.5 192.5t203.5 69.5q159 0 270 -128.5t111 -318.5q0 -184 -110 -306t-273 -122q-192 0 -309 155t-117 415q0 227 72 410.5
t211 312.5q92 85 219.5 138.5t224.5 53.5q26 0 40.5 -9.5t14.5 -27.5q0 -36 -81 -51l-21 -4q-79 -15 -146 -42q-33 -13 -61 -29.5t-61 -41.5q-140 -106 -221 -274.5t-101 -392.5z" />
    <glyph glyph-name="seven" unicode="7" 
d="M938 1233h51q31 0 52.5 -19.5t21.5 -48.5q0 -25 -59 -109l-52 -77q-79 -125 -134 -254q-49 -121 -84 -278t-46.5 -251.5t-11.5 -180.5q0 -113 -19 -175.5t-47 -62.5q-24 0 -38.5 30t-14.5 84q0 362 99.5 678.5t291.5 567.5h-592v-144q0 -63 -9.5 -81.5t-35.5 -18.5
q-20 0 -31.5 24.5t-11.5 71.5v154q0 49 25.5 69.5t109.5 20.5h535z" />
    <glyph glyph-name="eight" unicode="8" 
d="M614 70q142 0 229 90t87 243q0 147 -87.5 240.5t-228.5 93.5q-137 0 -226 -94t-89 -240q0 -148 87 -240.5t228 -92.5zM616 825q121 0 195 75t74 198q0 119 -75 196.5t-194 77.5q-118 0 -192 -76.5t-74 -197.5q0 -123 72.5 -198t193.5 -75zM436 788q-89 45 -135.5 123
t-46.5 183q0 161 101.5 262.5t262.5 101.5q166 0 264.5 -100t98.5 -268q0 -112 -49.5 -187t-149.5 -115q114 -42 180 -142.5t66 -235.5q0 -183 -117 -306.5t-297 -123.5q-175 0 -293 119q-58 60 -87 135t-29 167q0 129 57.5 226t173.5 161z" />
    <glyph glyph-name="nine" unicode="9" 
d="M588 1171q-121 0 -204 -101t-83 -251q0 -147 81.5 -243.5t205.5 -96.5q119 0 202.5 96.5t83.5 239.5q0 152 -83 254t-203 102zM920 645q-43 -119 -134.5 -187.5t-203.5 -68.5q-159 0 -270 127.5t-111 317.5q0 186 110.5 307t278.5 121q191 0 306.5 -155t115.5 -415
q0 -113 -18 -215t-56 -197q-72 -184 -211 -311q-92 -85 -219.5 -138.5t-224.5 -53.5q-25 0 -40.5 9.5t-15.5 27.5q0 36 82 51l21 4q80 15 145.5 42.5t122.5 70.5q140 102 222 273q47 98 71 183q29 104 29 207z" />
    <glyph glyph-name="colon" unicode=":" 
d="M616 559q-59 0 -100 41t-41 100q0 62 40 102t101 40q63 0 102.5 -40t39.5 -102q0 -60 -40.5 -100.5t-101.5 -40.5zM616 -18q-59 0 -100 41t-41 100q0 60 40 100.5t101 40.5q63 0 102.5 -39.5t39.5 -101.5q0 -60 -40.5 -100.5t-101.5 -40.5z" />
    <glyph glyph-name="semicolon" unicode=";" 
d="M663 12l-40 -8l-19 -2q-62 0 -98.5 33.5t-36.5 91.5q0 54 43 95.5t102 41.5q71 0 118.5 -57.5t47.5 -143.5q0 -122 -97 -217.5t-212 -95.5q-24 0 -36 11q-5 4 -9 11.5t-4 16.5q0 30 61 51l26.5 9t31.5 14q57 25 86.5 61.5t35.5 87.5zM614 559q-59 0 -100 41t-41 100
q0 62 40 102t101 40q63 0 103.5 -40t40.5 -102q0 -60 -41.5 -100.5t-102.5 -40.5z" />
    <glyph glyph-name="less" unicode="&#x3c;" 
d="M987 244l11 -6q30 -15 30 -41q0 -20 -14.5 -37t-34.5 -17l-10 2l-18 8l-735 383q-18 9 -27 22.5t-11 27.5v65q0 12 9 24t29 24l731 385l17 7l11 3q17 0 35 -18q16 -18 16 -38q0 -23 -28 -38l-13 -7l-723 -375z" />
    <glyph glyph-name="equal" unicode="=" 
d="M973 821q35 0 47 -11q12 -9 12 -36q0 -28 -13 -40.5t-46 -12.5h-713q-34 0 -46.5 10.5t-12.5 36.5q0 28 13.5 40.5t45.5 12.5h713zM973 545q37 0 48 -9.5t11 -35.5q0 -29 -13 -41.5t-46 -12.5h-713q-35 0 -47 11t-12 37q0 27 12.5 39t46.5 12h713z" />
    <glyph glyph-name="greater" unicode="&#x3e;" 
d="M224 993l-15 7q-27 13 -27 38q0 21 15.5 38.5t35.5 17.5l11 -3l19 -8l735 -385q15 -8 23.5 -20.5t10.5 -26.5v-65q0 -13 -9.5 -26.5t-25.5 -22.5l-732 -383l-20 -9l-9 -2q-19 0 -34.5 15.5t-15.5 38.5q0 24 30 41l11 6l721 374z" />
    <glyph glyph-name="question" unicode="?" 
d="M358 1061q49 -9 75 -40q28 -31 28 -75q0 -39 -33.5 -68.5t-77.5 -29.5q-51 0 -86 40t-35 101q0 107 104 190t242 83q157 0 256 -88.5t99 -221.5q0 -80 -31 -135.5t-119 -122.5l-60 -45q-70 -49 -81 -71q-6 -10 -10.5 -33t-4.5 -52q0 -63 -42 -63q-23 0 -35 21
q-10 23 -10 75q0 60 16 93.5t70 78.5l69 54q137 99 137 211q0 87 -71 149t-176 62q-80 0 -144 -33.5t-80 -79.5zM575 -18q-58 0 -99.5 41t-41.5 100q0 60 40 100.5t101 40.5q63 0 102.5 -39.5t39.5 -101.5q0 -60 -40.5 -100.5t-101.5 -40.5z" />
    <glyph glyph-name="at" unicode="@" 
d="M731 829h-24q-71 0 -116.5 -83t-45.5 -211q0 -65 20 -97t58 -32q28 0 44.5 20.5t22.5 68.5zM729 407q-22 -42 -55 -65t-72 -23q-66 0 -107.5 57.5t-41.5 153.5q0 173 75 280.5t197 107.5h12h31q30 0 45 -12q14 -9 14 -29l-2 -19v-22q-3 -13 -4 -19l-30 -251l-5 -47
l-2 -25q0 -27 12 -42.5t29 -15.5q49 0 87 148t38 352q0 143 -50.5 221t-143.5 78q-164 0 -282 -222t-118 -552q0 -216 75 -333.5t216 -117.5q69 0 133 30.5t149 106.5l18 16q49 44 69 44q12 0 18 -6.5t8 -22.5q0 -21 -24 -50.5t-76 -74.5q-80 -63 -153 -93t-154 -30
q-182 0 -277.5 138.5t-95.5 402.5q0 358 143 599t351 241q133 0 205.5 -98t72.5 -279q0 -258 -60.5 -424t-152.5 -166q-31 0 -53.5 15.5t-38.5 47.5z" />
    <glyph glyph-name="A" unicode="A" 
d="M424 467h381l-199 754zM332 86h71q41 0 56.5 -10.5t15.5 -34.5q0 -22 -16 -31.5t-88 -9.5h-176q-64 0 -81.5 9t-17.5 34q0 20 16.5 31.5t53.5 11.5h65l295 1116q7 32 23.5 46t46.5 14h35q28 0 42.5 -13.5t24.5 -52.5l303 -1110h64q39 0 54.5 -11t15.5 -36q0 -21 -19 -31
q-9 -4 -27.5 -6t-52.5 -2h-174q-67 0 -86.5 9.5t-19.5 33.5q0 23 16.5 33t56.5 10h74l-80 305h-415z" />
    <glyph glyph-name="B" unicode="B" 
d="M209 0q-64 0 -82 9q-16 10 -16 34q0 20 16.5 31.5t52.5 11.5h76v1059h-76q-35 0 -53 9q-16 10 -16 32q0 24 22 36q24 11 76 11h328q135 0 194 -8q65 -6 107 -25q83 -36 133 -108q24 -35 36.5 -75.5t12.5 -84.5q0 -106 -57.5 -178.5t-155.5 -87.5q68 0 122.5 -23.5
t96.5 -67.5q80 -83 80 -221q0 -100 -44 -176t-132 -127q-50 -27 -115 -39t-207 -12h-57h-342zM356 1145v-443h295q126 0 196.5 57.5t70.5 162.5q0 114 -79 168.5t-243 54.5h-240zM356 616v-530h334q147 0 231.5 70.5t84.5 193.5q0 131 -91 198.5t-266 67.5h-293z" />
    <glyph glyph-name="C" unicode="C" 
d="M918 1106v33q0 50 11.5 71t39.5 21q25 0 36 -13.5t11 -43.5l-1 -22l-3 -140l1 -146l1 -18q0 -39 -11.5 -59.5t-33.5 -20.5q-39 0 -52 86l-4 25q-21 142 -94 219.5t-184 77.5q-155 0 -258 -155.5t-103 -399.5q0 -245 102 -403.5t255 -158.5q92 0 163.5 63t108.5 183l15 56
q18 77 57 77q19 0 30 -14.5t11 -42.5q0 -30 -14.5 -86t-38.5 -102q-51 -105 -136 -161.5t-192 -56.5q-204 0 -334.5 173.5t-130.5 453.5q0 300 129 480t342 180q90 0 160 -40t117 -116z" />
    <glyph glyph-name="D" unicode="D" 
d="M199 0q-63 0 -81 9q-16 10 -16 34q0 21 17 32t53 11h74v1059h-74q-37 0 -54.5 9t-17.5 32q0 24 22 36q24 11 77 11h399q243 0 375.5 -158t132.5 -448q0 -177 -45 -305t-137 -211q-65 -59 -154 -86q-41 -11 -109.5 -18t-152.5 -7h-88h-221zM346 86h248q185 0 295 144.5
t110 390.5q0 249 -108.5 386.5t-304.5 137.5h-240v-1059z" />
    <glyph glyph-name="E" unicode="E" 
d="M838 1233h16q133 0 159.5 -19.5t39.5 -107.5l12 -92l4 -39l2 -37q0 -23 -8.5 -36t-26.5 -13q-28 0 -50 80q-9 35 -15.5 56t-16.5 40q-21 46 -55.5 63t-128.5 17h-98h-312v-447h281q35 0 52 12q14 12 22 42l4 59q0 86 39 86q23 0 34 -30t11 -105v-217q0 -83 -9 -108
t-32 -25q-42 0 -42 87q0 24 -1 37t-5 36.5t-22 38t-51 14.5h-281v-539h455q84 0 125 29.5t66 120.5l23 103q15 81 44 81q16 0 26.5 -12.5t10.5 -32.5l-4 -35l-4 -38l-21 -161q-12 -96 -34.5 -118.5t-124.5 -22.5h-705q-63 0 -80.5 9t-17.5 34q0 20 16.5 31.5t52.5 11.5h76
v1059h-76q-35 0 -53 9q-16 10 -16 32q0 24 22 36q24 11 76 11h621z" />
    <glyph glyph-name="F" unicode="F" 
d="M565 86q36 0 53 -11q17 -9 17 -32q0 -24 -17 -33.5t-81 -9.5h-297q-64 0 -81.5 9t-17.5 34q0 21 17 32t53 11h84v1059h-84q-37 0 -53.5 9.5t-16.5 31.5q0 24 22 36q24 11 77 11h663q123 0 147.5 -21.5t24.5 -103.5v-205q0 -95 -9 -126.5t-34 -31.5q-46 0 -46 159
q0 70 -5.5 128.5t-45 85.5t-173.5 27h-72h-297v-447h264q53 0 73 33t20 127q0 12 0.5 26t8.5 27t27 13q24 0 35 -24q10 -27 10 -128v-295q0 -59 -9 -80.5t-34 -21.5q-40 0 -40 121q0 41 -6.5 68.5t-18.5 39.5q-20 21 -72 21h-258v-539h172z" />
    <glyph glyph-name="G" unicode="G" 
d="M897 514h-113q-37 0 -53 9t-16 30q0 25 23 37t75 12h225q66 0 87.5 -9t21.5 -32q0 -20 -21 -33.5t-55 -13.5h-80v-195q0 -28 3.5 -87.5t3.5 -82.5l8 -112q0 -30 -9 -46t-28 -16q-21 0 -34 19q-6 9 -10.5 24.5t-4.5 32.5l-9 129q-36 -98 -112 -151.5t-183 -53.5
q-203 0 -332.5 173t-129.5 454q0 300 129 480t342 180q90 0 159 -39.5t117 -116.5v33q0 48 12 70t39 22q25 0 36 -13.5t11 -43.5v-21l-4 -141q0 -23 1 -71.5t1 -74.5v-18q0 -39 -11.5 -59.5t-33.5 -20.5q-38 0 -51 85l-4 25q-23 143 -95 220.5t-181 77.5q-155 0 -259 -157
t-104 -398q0 -247 101.5 -404.5t254.5 -157.5q130 0 206.5 115t76.5 311v29z" />
    <glyph glyph-name="H" unicode="H" 
d="M885 680v465h-86q-37 0 -56.5 10.5t-19.5 30.5q0 24 25 35.5t83 11.5h246q25 0 39 -11.5t14 -31.5q0 -23 -17 -34t-52 -11h-76v-1059h76q38 0 53.5 -11t15.5 -36q0 -21 -19 -31q-19 -8 -79 -8h-201q-66 0 -87 9q-19 10 -19 34q0 23 16.5 33t57.5 10h86v520h-539v-520h88
q41 0 56.5 -10.5t15.5 -34.5q0 -21 -17.5 -31t-89.5 -10h-200q-63 0 -81 9q-16 10 -16 34q0 21 17 32t53 11h74v1059h-74q-37 0 -54.5 9t-17.5 32q0 24 22 36q24 11 77 11h200q67 0 87 -10q22 -9 22 -31q0 -21 -19 -34t-55 -13h-88v-465h539z" />
    <glyph glyph-name="I" unicode="I" 
d="M565 1147h-286q-41 0 -58 9q-14 9 -14 34q0 24 19 33.5t85 9.5h615q63 0 80.5 -9t17.5 -34q0 -23 -17 -33t-53 -10h-288v-1061h286q41 0 56.5 -10.5t15.5 -34.5q0 -22 -16 -31.5t-88 -9.5h-615q-63 0 -80.5 9t-17.5 34q0 20 16.5 31.5t52.5 11.5h289v1061z" />
    <glyph glyph-name="J" unicode="J" 
d="M764 1147h-244q-42 0 -56.5 9t-14.5 34q0 24 19 33.5t87 9.5h467q64 0 81 -9t17 -34q0 -23 -17 -33t-52 -10h-187v-729q0 -242 -80 -343q-39 -50 -104 -75t-158 -25q-150 0 -250 85.5t-100 211.5q0 71 36 118.5t89 47.5q39 0 64.5 -24.5t25.5 -63.5q0 -52 -45 -81.5
t-45 -47.5q0 -63 64.5 -108t156.5 -45q134 0 190 66.5t56 273.5v739z" />
    <glyph glyph-name="K" unicode="K" 
d="M868 1145h-55q-37 0 -56.5 10.5t-19.5 30.5q0 24 25 35.5t84 11.5h221q24 0 38.5 -11.5t14.5 -31.5q0 -23 -17 -34t-52 -11h-66l-362 -416l374 -643h74q39 0 54.5 -11t15.5 -36q0 -21 -19 -31q-9 -4 -27.5 -6t-52.5 -2h-184q-67 0 -86.5 9.5t-19.5 33.5q0 23 17 33t58 10
h60l-328 567l-156 -186v-381h86q43 0 58.5 -10.5t15.5 -34.5q0 -22 -17 -31.5t-89 -9.5h-201q-64 0 -82 9q-16 10 -16 34q0 20 16.5 31.5t52.5 11.5h76v1059h-76q-35 0 -53 9q-16 10 -16 32q0 24 22 36q24 11 76 11h201q65 0 86.5 -9.5t21.5 -31.5q0 -21 -20 -35
q-20 -12 -56 -12h-86v-563z" />
    <glyph glyph-name="L" unicode="L" 
d="M217 0q-54 0 -76 11t-22 36q0 21 15 30t54 9h84v1061h-84q-36 0 -52.5 10t-16.5 33q0 24 17 33.5t81 9.5h289q65 0 82.5 -9t17.5 -34q0 -23 -17 -33t-52 -10h-166v-1063h626l13 195l2 31q0 80 17.5 124.5t43.5 44.5q20 0 31 -18q10 -20 10 -60l-1 -27l-1 -18l-14 -233
q0 -46 -7 -72.5t-19 -36.5q-19 -14 -130 -14h-725z" />
    <glyph glyph-name="M" unicode="M" 
d="M692 397q-14 -50 -29 -70t-36 -20q-23 0 -41 18q-15 18 -33 72l-244 766h-26v-1077h82q42 0 57.5 -10.5t15.5 -34.5q0 -22 -17 -31.5t-89 -9.5h-168q-62 0 -80 9q-16 10 -16 34q0 23 17 33q20 10 60 10h43v1059h-53q-35 0 -53 9q-16 10 -16 32q0 24 22 36q24 11 76 11
h135q55 0 75 -19q20 -17 40 -81l213 -695l200 709q12 47 36.5 66.5t70.5 19.5h178q25 0 39 -11.5t14 -31.5q0 -23 -17 -34t-52 -11h-52v-1059h52q38 0 53.5 -11t15.5 -36q0 -21 -19 -31q-19 -8 -79 -8h-168q-67 0 -86.5 9.5t-19.5 33.5q0 23 16.5 33t56.5 10h82v1077h-26z
" />
    <glyph glyph-name="N" unicode="N" 
d="M348 86h88q41 0 56.5 -10.5t15.5 -34.5q0 -22 -17 -31.5t-88 -9.5h-200q-64 0 -81.5 9t-17.5 34q0 21 17 32t53 11h76v1059h-76q-36 0 -54 9q-16 10 -16 32q0 24 22 36q24 11 77 11h82q39 0 60 -15q21 -13 48 -69l512 -1008l-6 1004h-86q-37 0 -56.5 10.5t-19.5 30.5
q0 24 25 35.5t84 11.5h246q24 0 38.5 -11.5t14.5 -31.5q0 -23 -17 -34t-53 -11h-76v-1059q0 -55 -14 -76.5t-47 -21.5q-25 0 -54 29q-28 31 -57 85l-487 957z" />
    <glyph glyph-name="O" unicode="O" 
d="M229 621q0 -249 108 -404.5t279 -155.5q170 0 279 156t109 408q0 250 -105.5 400.5t-280.5 150.5t-282 -152t-107 -403zM1106 629q0 -309 -131 -481.5t-365 -172.5q-220 0 -351.5 169t-131.5 458q0 307 132 483.5t362 176.5q225 0 355 -169t130 -464z" />
    <glyph glyph-name="P" unicode="P" 
d="M434 670l74 -4l135 -4q187 0 264.5 54.5t77.5 182.5t-75 187t-244 59h-232v-475zM606 1233q124 0 192 -8t109 -25q87 -36 135 -114.5t48 -182.5q0 -164 -109 -249t-319 -85q-14 0 -84 4t-126 4l-18 1v-492h137q41 0 56.5 -10.5t15.5 -34.5q0 -22 -16 -31.5t-88 -9.5h-252
q-64 0 -81.5 9t-17.5 34q0 21 17 32t53 11h76v1059h-76q-36 0 -54 9q-16 10 -16 32q0 24 22 36q24 11 77 11h319z" />
    <glyph glyph-name="Q" unicode="Q" 
d="M756 -4q-6 -2 -26 -6.5t-47.5 -9.5t-61.5 -5q-232 0 -363 167t-131 460q0 307 132 483.5t362 176.5q225 0 355 -169t130 -464q0 -220 -65 -368t-197 -228q0 -82 28 -127t80 -45q38 0 62 27q21 27 33 89q8 46 19.5 60t33.5 14q16 0 28 -15q5 -7 8 -17t3 -23
q0 -108 -50 -173t-135 -65q-86 0 -142 66.5t-56 171.5zM743 88q0 107 -38.5 166t-108.5 59q-65 0 -106 -55t-41 -152q32 -20 73 -34q41 -11 84 -11q40 0 72 7q36 6 65 20zM828 140q84 75 130 200.5t46 284.5q0 249 -106 400t-280 151q-172 0 -280.5 -152t-108.5 -399
q0 -146 36.5 -265t105.5 -194q18 113 78 173t157 60t158 -70q31 -36 47.5 -83t16.5 -106z" />
    <glyph glyph-name="R" unicode="R" 
d="M580 1233q124 0 191.5 -8t109.5 -25q85 -34 133.5 -108.5t48.5 -171.5q0 -114 -65 -190.5t-183 -98.5q104 -36 147.5 -130.5t43.5 -295.5l-1 -72l-1 -46l96 -1q37 0 52 -11q15 -9 15 -36q0 -20 -18 -31q-19 -8 -78 -8h-82q-62 0 -77 12q-13 13 -13 64l1 43l1 57
q0 264 -64 346t-245 82h-191v-518h76q41 0 56.5 -10.5t15.5 -34.5q0 -21 -17.5 -31t-89.5 -10h-188q-64 0 -82 9q-16 10 -16 34q0 20 16.5 31.5t52.5 11.5h76v1059h-76q-35 0 -53 9q-16 10 -16 32q0 24 22 36q24 11 76 11h326zM639 1145h-238v-455h293q126 0 196.5 58.5
t70.5 164.5q0 122 -76 177t-246 55z" />
    <glyph glyph-name="S" unicode="S" 
d="M289 227l8 -143v-25q0 -35 -9 -51t-30 -16q-27 0 -39 18q-10 20 -10 84v240q0 65 9 91t34 26q35 0 79 -108l7 -17q54 -131 143.5 -198t210.5 -67q133 0 219 75t86 188q0 179 -336 296l-67 23q-203 72 -283 144.5t-80 181.5q0 132 102.5 212.5t276.5 80.5q105 0 182.5 -35
t118.5 -103v97q0 15 11 24.5t30 9.5q24 0 36.5 -18.5t12.5 -58.5v-293q0 -33 -11.5 -53.5t-31.5 -20.5q-39 0 -48 90q0 16 -2.5 31t-6.5 31q-26 104 -101.5 159.5t-189.5 55.5q-128 0 -201 -55t-73 -148q0 -138 334 -256l18 -6q241 -84 324.5 -168.5t83.5 -218.5
q0 -146 -114 -250q-58 -51 -128 -76t-158 -25q-139 0 -242.5 64t-164.5 188z" />
    <glyph glyph-name="T" unicode="T" 
d="M942 1233q124 0 149 -22t25 -103v-264q0 -70 -9.5 -96.5t-35.5 -26.5q-27 0 -39 45q-4 21 -7 80t-3 145v29q0 48 -5 66q-3 20 -14 33.5t-42 19.5t-115 6h-117h-63v-1059h186q36 0 53 -11q17 -9 17 -32q0 -24 -17 -33.5t-82 -9.5h-415q-64 0 -81.5 9t-17.5 34
q0 20 16.5 31.5t53.5 11.5h186v1059h-200q-105 0 -130.5 -23t-25.5 -114v-33q0 -171 -11 -211q-9 -43 -38 -43q-26 0 -35.5 26.5t-9.5 96.5v264q0 80 24.5 102.5t149.5 22.5h653z" />
    <glyph glyph-name="U" unicode="U" 
d="M342 516q0 -241 65 -347t209 -106t208.5 106t64.5 347v629h-86q-36 0 -56 10q-18 11 -18 31q0 24 24.5 35.5t82.5 11.5h245q25 0 39.5 -11.5t14.5 -31.5q0 -22 -17.5 -33.5t-52.5 -11.5h-76v-645q0 -271 -90 -398t-283 -127q-192 0 -283 127t-91 398v645h-76
q-37 0 -53.5 9.5t-16.5 31.5q0 24 22 36q24 11 77 11h200q66 0 87.5 -9.5t21.5 -31.5q0 -20 -21 -33.5t-55 -13.5h-86v-629z" />
    <glyph glyph-name="V" unicode="V" 
d="M616 41l285 1106h-74q-42 0 -56.5 9t-14.5 34q0 24 19.5 33.5t86.5 9.5h209q62 0 80 -9q16 -10 16 -34q0 -23 -16.5 -33t-50.5 -10h-101l-288 -1110q-9 -37 -32 -51q-21 -15 -65 -15q-33 0 -54.5 14.5t-31.5 47.5l-299 1114h-96q-39 0 -54.5 11t-15.5 36q0 21 18.5 30
t80.5 9h207q68 0 87 -10t19 -33q0 -24 -15.5 -33.5t-58.5 -9.5h-71z" />
    <glyph glyph-name="W" unicode="W" 
d="M958 1147h-67q-41 0 -59 9q-15 9 -15 34q0 24 19.5 33.5t87.5 9.5h161q64 0 81.5 -9t17.5 -34q0 -23 -17 -33t-53 -10h-57l-144 -1111q-3 -32 -21 -48.5t-50 -16.5q-31 0 -46.5 12.5t-25.5 49.5l-154 604l-151 -600q-9 -34 -25.5 -50t-46.5 -16q-31 0 -48 15t-23 46
l-150 1115h-53q-39 0 -54.5 11t-15.5 36q0 21 18 30t80 9h160q68 0 87.5 -9.5t19.5 -33.5t-15.5 -33.5t-58.5 -9.5h-68l134 -1043l176 726q3 11 12 17.5t22 8.5q11 0 18 -7.5t13 -24.5l193 -720z" />
    <glyph glyph-name="X" unicode="X" 
d="M985 86h76q38 0 53.5 -11t15.5 -36q0 -21 -19 -31q-19 -8 -79 -8h-201q-66 0 -87 9q-19 10 -19 34q0 23 16.5 33t57.5 10h86l-271 492l-268 -492h88q41 0 56.5 -10.5t15.5 -34.5q0 -21 -17.5 -31t-89.5 -10h-200q-63 0 -81 9q-16 10 -16 34q0 21 17 32t53 11h74l319 567
l-276 492h-76q-36 0 -54 9q-16 10 -16 32q0 24 22 36q24 11 77 11h192q63 0 85 -9t22 -32q0 -22 -19 -34.5t-55 -12.5h-78l225 -406l226 406h-76q-37 0 -56.5 10.5t-19.5 30.5q0 24 25 35.5t84 11.5h235q25 0 39 -11.5t14 -31.5q0 -23 -17 -34t-52 -11h-76l-274 -492z" />
    <glyph glyph-name="Y" unicode="Y" 
d="M666 547v-461h165q36 0 53 -11q17 -9 17 -32q0 -24 -15.5 -33.5t-80.5 -9.5h-377q-64 0 -82 9q-16 10 -16 34q0 20 16.5 31.5t52.5 11.5h166v461l-317 598h-58q-35 0 -53 9q-16 10 -16 32q0 24 22 36q24 11 76 11h182q63 0 85 -9t22 -32q0 -22 -18.5 -34.5t-55.5 -12.5
h-78l260 -502l265 502h-82q-36 0 -56 10q-18 11 -18 31q0 24 24 36q11 5 31.5 8t50.5 3h228q24 0 38.5 -11.5t14.5 -31.5q0 -23 -17 -34t-53 -11h-55z" />
    <glyph glyph-name="Z" unicode="Z" 
d="M870 1145h-544v-144q0 -122 -11 -161t-39 -39q-23 0 -35 26q-10 30 -10 97v184q0 81 25 103t150 22h505q36 0 55 -8.5t19 -26.5v-33q0 -8 -8 -24q-6 -18 -19 -37l-620 -1018h580v145q0 122 10.5 161.5t38.5 39.5q24 0 33.5 -26.5t9.5 -96.5v-184q0 -82 -24.5 -103.5
t-149.5 -21.5h-514q-58 0 -79.5 12.5t-21.5 44.5q0 21 30 69l11 17z" />
    <glyph glyph-name="bracketleft" unicode="[" 
d="M961 -113q38 0 54.5 -9.5t16.5 -29.5q0 -24 -22.5 -35.5t-75.5 -11.5h-397q-30 0 -43 13t-13 55v1495q0 41 12.5 54.5t43.5 13.5h397q52 0 75 -11.5t23 -36.5q0 -21 -17 -31t-54 -10h-377v-1456h377z" />
    <glyph glyph-name="backslash" unicode="\" 
d="M348 1307l599 -1344l5 -11q27 -59 27 -85q0 -17 -9 -27t-26 -12q-18 0 -30 12.5t-33 57.5l-611 1370l-14 39l-4 30q0 15 7.5 22.5t23.5 8.5q18 0 35.5 -15.5t29.5 -45.5z" />
    <glyph glyph-name="bracketright" unicode="]" 
d="M270 1343q-37 0 -53 9t-16 30q0 25 23 37.5t75 12.5h395q32 0 45 -13.5t13 -54.5v-1495q0 -40 -12.5 -54t-45.5 -14h-395q-54 0 -76 11t-22 36q0 20 15 31q16 8 54 8h379v1456h-379z" />
    <glyph glyph-name="asciicircum" unicode="^" 
d="M961 1007q6 -6 10 -17l4 -19q0 -17 -11 -28q-9 -11 -26 -11l-14 3l-13 9l-295 324l-301 -326l-11 -8l-11 -2q-15 0 -26 11t-11 26q0 8 4 17l12 22l279 352q9 12 25.5 18t39.5 6q22 0 40.5 -6.5t27.5 -17.5z" />
    <glyph glyph-name="underscore" unicode="_" 
d="M1233 -391q30 0 43.5 -11t13.5 -36q0 -23 -13 -35q-13 -10 -44 -10h-1233q-30 0 -43.5 11t-13.5 36q0 23 13 35q13 10 44 10h1233z" />
    <glyph glyph-name="grave" unicode="`" 
d="M684 1063l-260 227l-22 21t-16 18q-9 14 -9 29q0 21 17 37t38 16q14 0 30.5 -11t41.5 -40l213 -273l9 -10l5 -6q0 -13 -3 -16.5t-13 -5.5q-12 0 -29 12z" />
    <glyph glyph-name="a" unicode="a" 
d="M834 197v286q-142 0 -256 -21q-96 -18 -171 -51q-128 -54 -128 -165q0 -76 60.5 -126t156.5 -50q69 0 158.5 33t179.5 94zM834 98q-98 -57 -187 -86.5t-164 -29.5q-141 0 -223 70t-82 190q0 152 159 233q85 42 209 67t288 25v56q0 118 -57 177.5t-173 59.5
q-71 0 -116.5 -12.5t-79.5 -40.5q16 -14 24 -32q4 -8 6 -17.5t2 -22.5q0 -43 -29.5 -71.5t-72.5 -28.5q-41 0 -71 27q-27 27 -27 71q0 83 102 147t250 64q176 0 259 -86t83 -268v-350q0 -105 13.5 -132.5t49.5 -27.5q29 0 65 31.5t54 31.5q11 0 18.5 -8t8.5 -24
q0 -44 -50.5 -86.5t-117.5 -42.5q-49 0 -85 29q-33 29 -56 87z" />
    <glyph glyph-name="b" unicode="b" 
d="M332 481q0 -188 84.5 -299.5t228.5 -111.5q143 0 227 102.5t84 280.5q0 181 -87 292t-230 111q-137 0 -222 -102t-85 -273zM242 1145h-82q-37 0 -53.5 9.5t-16.5 31.5q0 24 22 36q24 11 76 11h117q20 0 28 -9q7 -11 7 -44v-15v-381q47 81 124 120.5t185 39.5
q182 0 295 -132.5t113 -348.5q0 -215 -113.5 -348t-298.5 -133q-95 0 -168 38.5t-133 116.5l-33 -113q-3 -13 -8 -18t-14 -6l-12 1l-7 3l-26 14l-18 12q-3 5 -3 17l2 20q17 162 17 361v717z" />
    <glyph glyph-name="c" unicode="c" 
d="M201 463q0 212 126 346.5t328 134.5q128 0 217 -80.5t89 -195.5q0 -63 -30.5 -102.5t-82.5 -39.5q-39 0 -67.5 26t-28.5 62q0 48 41 77.5t41 51.5q0 41 -56.5 77t-134.5 36q-146 0 -244 -112t-98 -281q0 -171 95 -281t243 -110q71 0 134 30q31 16 55 36t44 50l33 51
q36 60 64 60q15 0 27 -12.5t12 -30.5q0 -90 -113.5 -183t-255.5 -93q-187 0 -312.5 136.5t-125.5 346.5z" />
    <glyph glyph-name="d" unicode="d" 
d="M567 70q142 0 228 111.5t86 299.5q0 171 -84 273t-224 102q-141 0 -229 -110.5t-88 -292.5q0 -178 84 -280.5t227 -102.5zM872 1147h-161q-42 0 -57 9t-15 34q0 24 19 33.5t85 9.5h193q19 0 27 -9.5t8 -43.5v-15v-1077h80q36 0 52.5 -10t16.5 -31q0 -24 -22.5 -35.5
t-75.5 -11.5h-109q-19 0 -27 9q-7 11 -7 44v15v100q-55 -95 -130.5 -140.5t-181.5 -45.5q-186 0 -299.5 132.5t-113.5 348.5q0 217 112.5 349t296.5 132q110 0 185.5 -39.5t123.5 -120.5v363z" />
    <glyph glyph-name="e" unicode="e" 
d="M274 551h701q-15 139 -110 222q-46 41 -105 62t-131 21q-133 0 -230.5 -83.5t-124.5 -221.5zM268 462q0 -176 99 -287q96 -105 262 -105q122 0 236 75.5t130 75.5q13 0 22.5 -9t10.5 -26q0 -57 -128 -130.5t-271 -73.5q-202 0 -332.5 135.5t-130.5 345.5t132.5 345.5
t334.5 135.5q189 0 314.5 -116.5t125.5 -290.5q0 -43 -23 -58.5t-106 -15.5z" />
    <glyph glyph-name="f" unicode="f" 
d="M537 838h-119q-25 0 -35 1.5t-20 6.5q-15 9 -15 31q0 24 22 36q24 11 76 11h91v37q0 150 84.5 225.5t252.5 75.5q144 0 234 -56.5t90 -142.5q0 -46 -29.5 -77.5t-74.5 -31.5q-38 0 -67 24q-14 13 -21 26.5t-7 31.5q0 25 13 45t40 38q-13 26 -62.5 43.5t-117.5 17.5
q-126 0 -181.5 -52.5t-55.5 -173.5v-30h125q54 0 76 -11t22 -36q0 -21 -16 -31q-16 -8 -54 -8h-153v-752h160q40 0 55.5 -10.5t15.5 -34.5q0 -22 -16 -31.5t-88 -9.5h-352q-64 0 -81.5 9t-17.5 34q0 21 17 32t53 11h156v752z" />
    <glyph glyph-name="g" unicode="g" 
d="M1075 -78q0 80 -117.5 133.5t-312.5 53.5q-187 0 -290 -50t-103 -141q0 -80 111.5 -130t298.5 -50t300 51t113 133zM328 621q0 -99 66 -168.5t165 -69.5q102 0 165.5 66.5t63.5 171.5q0 106 -63.5 171.5t-165.5 65.5q-100 0 -165.5 -67t-65.5 -170zM815 829
q56 59 108.5 87t106.5 28q61 0 96 -32q37 -31 37 -83q0 -44 -29 -74q-27 -30 -71 -30q-43 0 -69.5 23.5t-26.5 58.5q0 12 2 19l12 30q-34 -7 -69.5 -29t-55.5 -53q14 -33 22 -71q3 -19 5 -37t2 -39q0 -135 -93 -230.5t-227 -95.5q-58 0 -111 15t-94 44q-21 -24 -33 -48
q-10 -27 -10 -54q0 -23 6.5 -48.5t22.5 -57.5q57 15 146 26q36 4 84 7t92 3q238 0 375 -73t137 -197q0 -123 -141.5 -195.5t-393.5 -72.5q-239 0 -369.5 69t-130.5 197q0 57 30 108t91 91q-20 37 -31 70q-4 13 -7 30.5t-3 30.5q0 43 17 86q9 21 22.5 44t30.5 46
q-35 43 -51 86q-15 45 -15 108q0 141 94.5 234.5t237.5 93.5q76 0 142 -29t112 -86z" />
    <glyph glyph-name="h" unicode="h" 
d="M252 1145h-80q-36 0 -54 9q-16 10 -16 32q0 24 22 36q24 11 77 11h110q19 0 26 -7.5t7 -35.5v-25v-409q75 91 166 138.5t192 47.5q151 0 218 -79t67 -273v-504h84q37 0 52.5 -10.5t15.5 -36.5q0 -20 -18 -31q-19 -8 -79 -8h-208q-67 0 -88 9q-19 10 -19 34q0 23 16.5 33
t57.5 10h86v502q0 154 -46 212t-151 58q-99 0 -187 -54t-153 -157v-561h84q42 0 57 -11q17 -9 17 -34q0 -21 -17.5 -31t-89.5 -10h-200q-64 0 -81.5 9t-17.5 34q0 21 17 32t53 11h80v1059z" />
    <glyph glyph-name="i" unicode="i" 
d="M616 1006q-52 0 -89.5 36.5t-37.5 90.5q0 53 36.5 91t90.5 38q56 0 91.5 -36.5t35.5 -92.5q0 -54 -35.5 -90.5t-91.5 -36.5zM592 838h-262q-25 0 -35 1.5t-20 6.5q-15 9 -15 31q0 24 22 36q24 11 76 11h297q20 0 28 -9q7 -11 7 -45v-14v-770h266q41 0 56.5 -10.5
t15.5 -34.5q0 -22 -17 -31.5t-89 -9.5h-555q-64 0 -81.5 9t-17.5 34q0 21 17 32t53 11h254v752z" />
    <glyph glyph-name="j" unicode="j" 
d="M739 1006q-52 0 -89.5 36.5t-37.5 90.5q0 53 36.5 91t90.5 38q56 0 91.5 -36.5t35.5 -92.5q0 -54 -35.5 -90.5t-91.5 -36.5zM719 838h-262q-25 0 -35 1.5t-20 6.5q-15 9 -15 31q0 24 22 36q24 11 76 11h297q20 0 28 -9q7 -11 7 -45v-14v-686q0 -163 -13 -236t-46 -133
q-38 -68 -111 -109.5t-153 -41.5q-128 0 -222 91t-94 212q0 67 39.5 111.5t97.5 44.5q48 0 76 -29q29 -27 29 -74q0 -48 -30.5 -75t-84.5 -27h-10v-13q0 -61 60 -109t134 -48q120 0 175 92t55 297v715z" />
    <glyph glyph-name="k" unicode="k" 
d="M809 838h-49q-41 0 -57.5 10t-16.5 35q0 22 17.5 31.5t89.5 9.5h200q65 0 82 -9.5t17 -33.5q0 -23 -17.5 -33t-52.5 -10h-88l-256 -275l272 -477h90q41 0 56.5 -10.5t15.5 -34.5q0 -21 -17.5 -31t-88.5 -10h-199q-64 0 -82 9q-16 10 -16 34q0 20 16.5 31.5t52.5 11.5h64
l-230 403l-211 -229v-174h84q43 0 58.5 -10.5t15.5 -34.5q0 -22 -17 -31.5t-89 -9.5h-201q-64 0 -82 9q-16 10 -16 34q0 20 16.5 31.5t52.5 11.5h80v1059h-80q-35 0 -53 9q-16 10 -16 32q0 24 22 36q24 11 76 11h115q19 0 27 -9q7 -11 7 -44v-15v-788z" />
    <glyph glyph-name="l" unicode="l" 
d="M575 1145h-262q-35 0 -53 9q-16 10 -16 32q0 24 22 36q24 11 76 11h297q18 0 24 -6t9 -37v-25v-1079h266q42 0 57 -11q17 -9 17 -34q0 -21 -17.5 -31t-89.5 -10h-563q-64 0 -82 9q-16 10 -16 34q0 20 16.5 31.5t52.5 11.5h262v1059z" />
    <glyph glyph-name="m" unicode="m" 
d="M1049 86h63q20 0 31.5 -12.5t11.5 -34.5t-14 -30q-12 -9 -47 -9h-168q-34 0 -50 10q-14 11 -14 35q0 18 12.5 29.5t34.5 11.5h45v532q0 143 -23.5 190.5t-82.5 47.5q-56 0 -107.5 -55t-81.5 -146v-569h43q20 0 31.5 -11t11.5 -30q0 -23 -12 -35q-13 -10 -47 -10h-149
q-37 0 -48.5 10.5t-11.5 34.5q0 19 12 30t31 11h43v532q0 151 -23 194q-21 44 -81 44q-55 0 -108 -54.5t-83 -146.5v-569h45q23 0 35 -11t12 -30q0 -23 -15 -35q-15 -10 -48 -10h-168q-33 0 -48 9q-13 10 -13 30q0 22 10.5 34.5t32.5 12.5h63v752h-59q-24 0 -34.5 8
t-10.5 28q0 27 14 38.5t49 11.5h78q25 0 35 -10.5t10 -57.5v-78q41 80 97 122q28 20 57.5 30t64.5 10q77 0 119 -41t51 -121q36 74 95 118t124 44q102 0 143.5 -68t41.5 -282v-504z" />
    <glyph glyph-name="n" unicode="n" 
d="M258 838h-80q-25 0 -35 1.5t-19 6.5q-15 9 -15 31q0 24 22 36q24 11 76 11h108q20 0 28 -9q7 -11 7 -45v-14v-111q85 97 182.5 146t204.5 49q137 0 195.5 -75t58.5 -275v-504h84q39 0 54.5 -11t15.5 -36q0 -20 -18 -31q-19 -8 -78 -8h-211q-65 0 -86 9q-19 10 -19 34
t16 33.5t56 9.5h88v532q0 132 -41 185t-139 53q-93 0 -184.5 -54t-172.5 -157v-559h84q41 0 56.5 -10.5t15.5 -34.5q0 -22 -16 -31.5t-88 -9.5h-201q-64 0 -82 9q-16 10 -16 34q0 20 16.5 31.5t52.5 11.5h80v752z" />
    <glyph glyph-name="o" unicode="o" 
d="M256 463q0 -173 99.5 -283t262.5 -110t263 109t100 284q0 174 -100 283.5t-263 109.5q-161 0 -261.5 -108.5t-100.5 -284.5zM158 463q0 216 126.5 348.5t333.5 132.5t334 -132t127 -349q0 -216 -126.5 -348.5t-334.5 -132.5q-206 0 -333 132t-127 349z" />
    <glyph glyph-name="p" unicode="p" 
d="M655 856q-142 0 -227.5 -112.5t-85.5 -301.5q0 -168 84 -271t223 -103q145 0 231.5 110.5t86.5 292.5q0 176 -84 280.5t-228 104.5zM172 -246h80v1084h-80q-38 0 -56 9q-16 10 -16 30q0 24 22 36q24 11 77 11h110q20 0 28 -9q7 -11 7 -45v-14v-100q54 95 130.5 141.5
t180.5 46.5q186 0 300 -132.5t114 -348.5q0 -217 -112 -349t-298 -132q-107 0 -183 39t-126 120v-387h107q39 0 55 -10t16 -35q0 -22 -17 -31.5t-89 -9.5h-223q-63 0 -81 9q-16 10 -16 34q0 23 17.5 33t52.5 10z" />
    <glyph glyph-name="q" unicode="q" 
d="M887 442q0 190 -85 302t-229 112q-142 0 -226.5 -104t-84.5 -281q0 -180 87 -291.5t231 -111.5q137 0 222 102t85 272zM977 -246h80q38 0 54.5 -9.5t16.5 -29.5q0 -24 -22.5 -35.5t-75.5 -11.5h-287q-54 0 -76 11t-22 36q0 21 15 30t55 9h164v385q-46 -78 -122.5 -117.5
t-187.5 -39.5q-183 0 -296 132.5t-113 348.5t114.5 348.5t298.5 132.5q92 0 167 -39t134 -119l33 115q3 13 8.5 19t14.5 6l9 -2l10 -5l24 -14q21 -12 22 -28l-1 -20q-17 -162 -17 -361v-742z" />
    <glyph glyph-name="r" unicode="r" 
d="M401 838h-151q-25 0 -35 1.5t-20 6.5q-15 9 -15 31q0 24 22 36q24 11 77 11h180q19 0 27 -9.5t8 -44.5v-14v-127q109 106 212.5 160.5t200.5 54.5q102 0 169 -62.5t67 -158.5q0 -70 -40 -117t-99 -47q-40 0 -72 30q-15 15 -23 32t-8 38q0 51 53.5 84.5t53.5 49.5
q0 27 -29 44t-80 17q-88 0 -194.5 -63t-206.5 -175v-530h164q40 0 55.5 -10.5t15.5 -34.5q0 -22 -17 -31.5t-89 -9.5h-348q-64 0 -81.5 9t-17.5 34q0 20 16.5 31.5t53.5 11.5h151v752z" />
    <glyph glyph-name="s" unicode="s" 
d="M324 168l2 -113v-10q0 -29 -9 -42t-28 -13q-25 0 -36 21t-11 65v198q0 58 10.5 81.5t36.5 23.5q22 0 40 -47q4 -12 7.5 -20.5t9.5 -20.5q54 -111 133 -166q40 -27 85.5 -41t99.5 -14q112 0 180.5 48t68.5 130q0 131 -323 212l-29 7q-203 48 -259 97t-56 134
q0 109 88.5 177.5t230.5 68.5q104 0 178 -31t119 -94l-6 51v13q0 22 9.5 33.5t29.5 11.5q24 0 34.5 -20t10.5 -66v-137q0 -54 -6.5 -70.5t-26.5 -16.5q-30 0 -51 60l-12 32q-30 74 -98 111t-171 37q-105 0 -165 -39.5t-60 -111.5q0 -96 229 -150l87 -20q212 -51 285 -113.5
t73 -173.5q0 -117 -98 -192.5t-256 -75.5q-116 0 -208 49.5t-138 136.5z" />
    <glyph glyph-name="t" unicode="t" 
d="M403 838h-120q-25 0 -35 1.5t-20 6.5q-15 9 -15 31q0 27 61.5 49t95.5 68t55 147.5t54 101.5q21 0 32 -17t11 -50q0 -73 -22 -136t-66 -116h369q54 0 76 -11t22 -36q0 -21 -16 -31q-16 -8 -54 -8h-331v-484q0 -149 41 -213.5t133 -64.5q73 0 133 49.5t100 146.5l12 42
q18 71 54 71q16 0 28.5 -15.5t12.5 -39.5q0 -30 -18.5 -85.5t-49.5 -103.5q-46 -76 -116.5 -117.5t-153.5 -41.5q-137 0 -205 89t-68 273v494z" />
    <glyph glyph-name="u" unicode="u" 
d="M248 838h-84q-38 0 -54 10.5t-16 36.5q0 21 18.5 30t80.5 9h120q20 0 28 -9q7 -11 7 -45v-14v-551q0 -131 40 -183t134 -52q90 0 179 58t173 173v537h-83q-41 0 -56.5 9.5t-15.5 35.5q0 22 16.5 31.5t87.5 9.5h115q20 0 28 -9q7 -11 7 -45v-14v-770h80q36 0 52.5 -9.5
t16.5 -29.5q0 -24 -22.5 -35.5t-75.5 -11.5h-109q-19 0 -27 9q-7 11 -7 44v15v131q-84 -105 -179 -160t-198 -55q-138 0 -197 75.5t-59 276.5v502z" />
    <glyph glyph-name="v" unicode="v" 
d="M254 838h-84q-38 0 -54 10.5t-16 36.5q0 21 18.5 30t80.5 9h209q70 0 88 -9t18 -32q0 -24 -17 -34.5t-57 -10.5h-80l283 -701l246 701h-84q-41 0 -56.5 9.5t-15.5 35.5q0 22 17 31.5t88 9.5h200q65 0 82 -9.5t17 -33.5q0 -23 -17.5 -33t-52.5 -10h-80l-285 -773l-3 -9
q-27 -74 -60 -74q-18 0 -29.5 13t-36.5 68z" />
    <glyph glyph-name="w" unicode="w" 
d="M901 63q-7 -42 -21 -61.5t-36 -19.5q-21 0 -37.5 20t-30.5 61l-164 545l-153 -542q-12 -44 -27 -64t-37 -20q-23 0 -36.5 19.5t-22.5 64.5l-129 772h-68q-29 0 -43 10.5t-14 32.5q0 24 14 33.5t66 9.5h178q57 0 71.5 -9t14.5 -32t-13 -35q-13 -10 -46 -10h-66l105 -695
l147 529q12 50 26 67t35 17q19 0 35.5 -21t30.5 -63l158 -529l104 695h-68q-32 0 -45.5 10t-13.5 35q0 18 12.5 29.5t32.5 11.5h41h172q52 0 66 -9t14 -34q0 -23 -13 -33t-42 -10h-66z" />
    <glyph glyph-name="x" unicode="x" 
d="M389 86h66q38 0 53.5 -11t15.5 -36q0 -20 -18 -31q-19 -8 -78 -8h-211q-65 0 -84.5 9t-19.5 34q0 24 16 33.5t55 9.5h88l295 387l-278 365h-84q-38 0 -54 10.5t-16 36.5q0 21 18 30t80 9h209q71 0 89 -9t18 -32q0 -24 -17.5 -34.5t-56.5 -10.5h-67l213 -297l215 297h-68
q-41 0 -56.5 9.5t-15.5 35.5q0 22 17 31.5t88 9.5h200q65 0 82 -9.5t17 -33.5q0 -23 -17 -33t-53 -10h-80l-276 -363l295 -389h84q42 0 57.5 -10.5t15.5 -34.5q0 -22 -17 -31.5t-89 -9.5h-201q-63 0 -80.5 9t-17.5 34q0 20 16.5 31.5t53.5 11.5h61l-236 320z" />
    <glyph glyph-name="y" unicode="y" 
d="M252 838h-84q-38 0 -54 10.5t-16 36.5q0 21 18.5 30t80.5 9h209q70 0 88 -9t18 -32q0 -24 -17 -34.5t-57 -10.5h-80l289 -709l240 709h-84q-41 0 -56.5 9.5t-15.5 35.5q0 22 17.5 31.5t89.5 9.5h198q65 0 82 -9.5t17 -33.5q0 -23 -17.5 -33t-52.5 -10h-80l-268 -781
q-90 -265 -163.5 -336t-193.5 -71q-96 0 -169.5 67t-73.5 156q0 63 36.5 104t92.5 41q45 0 74.5 -24t29.5 -64q0 -39 -28 -66t-78 -36v-12q0 -37 33.5 -61.5t89.5 -24.5q79 0 130.5 59t102.5 221z" />
    <glyph glyph-name="z" unicode="z" 
d="M322 0q-57 0 -79 12t-22 43q0 23 9.5 43.5t31.5 44.5l617 695h-543v-95q0 -123 -11 -160q-9 -38 -38 -38q-26 0 -38 24q-9 24 -9 97v133q0 80 24.5 102.5t149.5 22.5h506q36 0 53.5 -8.5t17.5 -26.5v-31q0 -11 -8 -32t-16 -29l-627 -711h565v84q0 132 11 166.5t40 34.5
q24 0 33.5 -23t9.5 -100v-123q0 -81 -24 -104q-24 -21 -148 -21h-505z" />
    <glyph glyph-name="braceleft" unicode="{" 
d="M600 -61q0 -31 9.5 -41.5t33.5 -10.5h227q25 0 35 -1.5t19 -6.5q16 -10 16 -31q0 -24 -22.5 -35.5t-75.5 -11.5h-205q-76 0 -107.5 33.5t-31.5 132.5v492q0 51 -25.5 82.5t-66.5 31.5h-62q-24 0 -36.5 10.5t-12.5 32.5t12.5 32.5t36.5 10.5h62q41 0 66.5 31.5t25.5 83.5
v490q0 99 31 133.5t108 34.5h205q52 0 75 -11.5t23 -36.5q0 -21 -16.5 -31t-53.5 -10h-227q-24 0 -33.5 -9.5t-9.5 -41.5v-520q0 -56 -25 -95.5t-73 -60.5q47 -18 72.5 -59.5t25.5 -97.5v-520z" />
    <glyph glyph-name="bar" unicode="|" 
d="M659 -483q0 -23 -11 -35t-32 -12q-18 0 -32 12q-11 13 -11 35v2048q0 22 12 34.5t31 12.5q20 0 32 -13q5 -6 8 -14t3 -20v-2048z" />
    <glyph glyph-name="braceright" unicode="}" 
d="M633 1292q0 30 -10 40.5t-35 10.5h-226q-37 0 -53 9t-16 30q0 25 23 37.5t75 12.5h205q77 0 108 -34t31 -134v-490q0 -52 25.5 -83.5t66.5 -31.5h62q24 0 36.5 -9.5t12.5 -33.5q0 -21 -12 -33q-13 -10 -37 -10h-62q-40 0 -67 -31q-25 -31 -25 -83v-492
q0 -99 -30.5 -132.5t-108.5 -33.5h-205q-54 0 -76 11t-22 36q0 20 15 31q16 8 54 8h226q24 0 34.5 10.5t10.5 41.5v520q0 56 24.5 97t71.5 60q-46 20 -71 59.5t-25 96.5v520z" />
    <glyph glyph-name="asciitilde" unicode="~" 
d="M788 635q32 0 64 10.5t69 33.5q71 44 91 44q6 0 14 -9q6 -9 6 -22q0 -45 -80.5 -100t-167.5 -55q-64 0 -181 43q-59 21 -101.5 32t-69.5 11q-56 0 -123 -42t-88 -42q-7 0 -13.5 8.5t-6.5 21.5q0 45 76.5 98.5t158.5 53.5q64 0 181 -43q59 -21 101.5 -32t69.5 -11z" />
    <glyph glyph-name="quotesinglbase" unicode="&#x201a;" 
d="M671 12l-40 -8l-19 -2q-62 0 -98.5 33.5t-36.5 91.5q0 55 42.5 96t101.5 41q69 0 118 -57t49 -144q0 -121 -96.5 -217t-212.5 -96q-23 0 -37 11q-14 9 -14 28q0 30 62 51l26.5 9t32.5 14q58 26 87 63t35 86z" />
    <glyph glyph-name="florin" unicode="&#x192;" 
d="M602 967q18 145 101 219q42 38 96.5 57t126.5 19q94 0 156.5 -48.5t62.5 -121.5q0 -47 -24.5 -76t-65.5 -29q-36 0 -59 24t-23 58q0 28 20 52q11 13 14.5 17.5l6.5 8.5q0 10 -30.5 21.5t-65.5 11.5q-100 0 -156 -59t-72 -179l-14 -111h135q54 0 75 -11q23 -9 23 -34
q0 -19 -14.5 -27.5t-54.5 -8.5h-174l-93 -754q-18 -144 -99.5 -219.5t-223.5 -75.5q-96 0 -160.5 50t-64.5 122q0 45 27 76t69 31q33 0 55.5 -24.5t22.5 -61.5q0 -36 -38 -70l-7 -8q0 -9 30 -23q30 -12 72 -12q99 0 156.5 57t72.5 174l90 738h-108q-41 0 -55.5 8t-14.5 28
q0 24 23.5 34.5t75.5 10.5h90z" />
    <glyph glyph-name="quotedblbase" unicode="&#x201e;" 
d="M462 12l-40 -8l-19 -2q-60 0 -97.5 34.5t-37.5 92.5q0 53 43 94t103 41q70 0 118 -57t48 -144q0 -122 -97 -217.5t-213 -95.5q-24 0 -36 11q-5 4 -9 11.5t-4 16.5q0 30 61 51l26.5 9t31.5 14q57 25 87 62t35 87zM888 12l-40 -8l-19 -2q-62 0 -99.5 35t-37.5 92
q0 53 43 94t103 41q69 0 118.5 -57.5t49.5 -143.5q0 -121 -98.5 -217t-213.5 -96q-24 0 -36 11q-5 4 -9 11.5t-4 16.5q0 30 62 51l26.5 9t32.5 14q57 25 87 62t35 87z" />
    <glyph glyph-name="ellipsis" unicode="&#x2026;" 
d="M1026 -18q-59 0 -100 41t-41 100q0 60 40 100.5t101 40.5q62 0 102.5 -39.5t40.5 -101.5q0 -60 -41.5 -100.5t-101.5 -40.5zM616 -18q-59 0 -100 41t-41 100q0 60 40 100.5t101 40.5q63 0 102.5 -39.5t39.5 -101.5q0 -60 -40.5 -100.5t-101.5 -40.5zM205 -18
q-59 0 -100.5 41t-41.5 100q0 60 40 100.5t102 40.5q63 0 102 -39t39 -102q0 -60 -40 -100.5t-101 -40.5z" />
    <glyph glyph-name="dagger" unicode="&#x2020;" 
d="M664 795v-801q0 -37 -11.5 -53.5t-38.5 -16.5q-21 0 -33 18t-12 52v801h-239q-74 0 -90.5 8.5t-16.5 32.5q0 18 18 27t56 9h272v320q0 36 11.5 53t37.5 17q21 0 33.5 -18.5t12.5 -51.5v-320h274q37 0 53.5 -9.5t16.5 -31.5q0 -19 -21 -27.5t-78 -8.5h-245z" />
    <glyph glyph-name="daggerdbl" unicode="&#x2021;" 
d="M664 391h237q72 0 89.5 -8.5t17.5 -32.5q0 -17 -18 -28q-18 -9 -56 -9h-272v-319q0 -35 -12 -52.5t-38 -17.5q-21 0 -33 18t-12 52v319h-274q-37 0 -53.5 9.5t-16.5 31.5q0 20 20 29q22 8 79 8h247v404h-239q-74 0 -90.5 8.5t-16.5 32.5q0 18 18 27t56 9h272v320
q0 36 11.5 53t37.5 17q21 0 33.5 -18.5t12.5 -51.5v-320h274q37 0 53.5 -9.5t16.5 -31.5q0 -19 -21 -27.5t-78 -8.5h-245v-404z" />
    <glyph glyph-name="circumflex" unicode="&#x2c6;" 
d="M649 1403q10 0 16 -3t13 -14l194 -299l4 -6l1 -12q0 -9 -5.5 -14.5t-13.5 -5.5q-7 0 -11 2l-16 14l-210 221l-213 -221l-16 -14l-11 -2q-8 0 -12.5 5.5t-6.5 14.5l1 12q2 5 4 6l194 299q6 10 11 13.5t18 3.5h59z" />
    <glyph glyph-name="perthousand" unicode="&#x2030;" 
d="M1182 371q0 45 -20.5 71.5t-55.5 26.5q-63 0 -118.5 -98.5t-55.5 -210.5q0 -52 20 -81.5t56 -29.5q62 0 118 102t56 220zM1104 543q79 0 120.5 -49t41.5 -144q0 -150 -79.5 -262.5t-185.5 -112.5q-73 0 -114 51t-41 140q0 148 79.5 262.5t178.5 114.5zM387 1141
q6 -15 9.5 -27.5t8.5 -35.5t5 -46q0 -141 -81.5 -252.5t-185.5 -111.5q-73 0 -114 51t-41 139q0 150 78.5 262.5t179.5 112.5q34 0 97 -21.5t99 -21.5q60 0 107.5 27.5t89.5 87.5q29 39 45 52q13 9 31 11q11 0 20 -9q6 -8 8 -22q0 -13 -4 -26q-3 -15 -16 -43l-619 -1370
q-15 -36 -29 -53q-12 -17 -26 -17q-9 0 -19 11.5t-10 27.5q0 17 30 86l6 14l560 1231q-16 -18 -35.5 -34t-36.5 -25q-36 -17 -83 -17q-24 0 -40 4t-34 15zM700 371q0 46 -20 72t-55 26q-63 0 -118.5 -98.5t-55.5 -210.5q0 -52 20 -81.5t55 -29.5q63 0 118.5 102t55.5 220z
M324 1063q0 45 -19.5 70.5t-54.5 25.5q-63 0 -118.5 -98.5t-55.5 -210.5q0 -51 19 -82q20 -29 55 -29q61 0 117.5 102.5t56.5 221.5zM623 543q78 0 119.5 -49t41.5 -144q0 -150 -79.5 -262.5t-184.5 -112.5q-73 0 -114 51t-41 140q0 148 79.5 262.5t178.5 114.5z" />
    <glyph glyph-name="Scaron" unicode="&#x160;" 
d="M289 227l8 -143v-25q0 -35 -9 -51t-30 -16q-27 0 -39 18q-10 20 -10 84v240q0 65 9 91t34 26q35 0 79 -108l7 -17q54 -131 143.5 -198t210.5 -67q133 0 219 75t86 188q0 179 -336 296l-67 23q-203 72 -283 144.5t-80 181.5q0 132 102.5 212.5t276.5 80.5q105 0 182.5 -35
t118.5 -103v97q0 15 11 24.5t30 9.5q24 0 36.5 -18.5t12.5 -58.5v-293q0 -33 -11.5 -53.5t-31.5 -20.5q-39 0 -48 90q0 16 -2.5 31t-6.5 31q-26 104 -101.5 159.5t-189.5 55.5q-128 0 -201 -55t-73 -148q0 -138 334 -256l18 -6q241 -84 324.5 -168.5t83.5 -218.5
q0 -146 -114 -250q-58 -51 -128 -76t-158 -25q-139 0 -242.5 64t-164.5 188zM590 1372q-12 0 -18 3l-11 13l-194 301l-4 6l-1 10q0 9 5.5 15t13.5 6l11 -3l16 -13l213 -222l210 222l16 13q5 3 11 3q7 0 12.5 -5t6.5 -16l-1 -10q-2 -5 -4 -6l-194 -301l-13 -14l-16 -2h-59z
" />
    <glyph glyph-name="guilsinglleft" unicode="&#x2039;" 
d="M731 211l2 -4q12 -24 12 -43q0 -14 -15 -28q-14 -11 -34 -11q-47 0 -69 49l-135 289l135 289q11 25 27 38q16 11 38 11q20 0 35.5 -11t17.5 -28q0 -16 -10 -37l-4 -8l-127 -254z" />
    <glyph glyph-name="OE" unicode="&#x152;" 
d="M571 76v1081h-22q-176 0 -282.5 -147t-106.5 -392q0 -239 105 -390.5t270 -151.5h36zM571 1233h338q133 0 159.5 -19.5t39.5 -107.5l12 -92l4 -39l2 -37q0 -23 -8.5 -36t-25.5 -13q-30 0 -51 80q-8 32 -15 54.5t-16 41.5q-21 46 -55.5 63t-129.5 17h-98h-61v-447h110
q35 0 52 12q14 12 22 42l5 60q0 85 38 85q23 0 34 -30t11 -105v-217q0 -83 -9 -108t-32 -25q-41 0 -41 86l-6 67q-5 31 -23 45.5t-51 14.5h-110v-539h204q84 0 125 29.5t66 120.5l23 103q15 81 44 81q18 0 27.5 -12.5t9.5 -32.5l-3 -34l-5 -40l-20 -160q-13 -102 -38 -121.5
t-130 -19.5h-420q-227 0 -355 159.5t-128 442.5q0 305 129 468t376 163z" />
    <glyph glyph-name="quoteleft" unicode="&#x2018;" 
d="M561 1000l40 7l20 3q60 0 97.5 -34.5t37.5 -92.5q0 -53 -43 -94t-103 -41q-70 0 -118 56t-48 142q0 124 98.5 220t211.5 96q20 0 34.5 -11.5t14.5 -29.5q0 -30 -61 -51q-13 -4 -27 -9t-31 -14q-56 -27 -88 -63q-29 -35 -35 -84z" />
    <glyph glyph-name="quoteright" unicode="&#x2019;" 
d="M672 1009l-41 -8l-19 -2q-63 0 -99 35t-36 92q0 55 42.5 95.5t101.5 40.5q70 0 118.5 -57.5t48.5 -143.5q0 -122 -97 -217.5t-212 -95.5q-23 0 -37 9.5t-14 28.5q0 30 62 51l26.5 9t32.5 14q57 26 87 63.5t36 85.5z" />
    <glyph glyph-name="quotedblleft" unicode="&#x201c;" 
d="M768 998l40 7l19 3q63 0 100.5 -33.5t37.5 -91.5q0 -55 -43 -96.5t-103 -41.5q-69 0 -117.5 57.5t-48.5 143.5q0 123 98 219.5t212 96.5q20 0 34.5 -11.5t14.5 -29.5q0 -30 -61 -51q-13 -4 -27 -9t-31 -14q-56 -27 -89 -64q-30 -36 -36 -85zM344 998l40 7l19 3
q64 0 100 -34t36 -91q0 -55 -42.5 -96.5t-101.5 -41.5q-70 0 -119 57t-49 144q0 123 98 219.5t212 96.5q22 0 36.5 -11.5t14.5 -29.5q0 -30 -62 -51q-13 -4 -26.5 -9t-32.5 -14q-56 -25 -86.5 -61.5t-36.5 -87.5z" />
    <glyph glyph-name="quotedblright" unicode="&#x201d;" 
d="M889 1007l-41 -8l-19 -2q-62 0 -99.5 35t-37.5 92q0 53 43 94.5t103 41.5q72 0 120 -56.5t48 -142.5q0 -122 -98.5 -219t-213.5 -97q-22 0 -36 11q-13 13 -13 30q0 30 62 51l26.5 9t32.5 14q56 27 88 63q29 35 35 84zM463 1007l-41 -8l-19 -2q-60 0 -97.5 34.5
t-37.5 92.5q0 53 43 94.5t103 41.5q70 0 118 -56.5t48 -142.5q0 -123 -98 -219.5t-212 -96.5q-22 0 -36 11q-13 13 -13 30q0 30 61 51l26.5 9t31.5 14q56 27 88 63q29 35 35 84z" />
    <glyph glyph-name="bullet" unicode="&#x2022;" 
d="M457 684q0 67 47 114.5t112 47.5t112.5 -48.5t47.5 -113.5q0 -66 -47 -113t-113 -47t-112.5 47t-46.5 113z" />
    <glyph glyph-name="endash" unicode="&#x2013;" 
d="M0 424v94h1233v-94h-1233z" />
    <glyph glyph-name="emdash" unicode="&#x2014;" 
d="M0 518h1233v-94h-1233v94z" />
    <glyph glyph-name="tilde" unicode="&#x2dc;" 
d="M702 1251l35 -9l31 -3q51 0 75.5 47t37.5 47q8 0 13 -5q4 -2 5 -11q0 -59 -50 -114.5t-116 -55.5h-18q-14 3 -28 5t-44 11l-104 31l-36 9l-30 3q-51 0 -75.5 -46t-37.5 -48q-9 0 -13.5 4.5t-6.5 13.5q0 57 51 113.5t117 56.5h15.5t23.5 -4q21 -3 51 -12z" />
    <glyph glyph-name="trademark" unicode="&#x2122;" 
d="M383 780h51q37 0 51.5 -9.5t14.5 -35.5q0 -18 -12.5 -30.5t-34.5 -12.5h-220q-24 0 -38 11q-13 13 -13 32q0 23 16 35q17 10 56 10h45v396h-88l-4 -78q0 -31 -11.5 -45.5t-35.5 -14.5q-23 0 -34 12q-9 12 -9 42v10l4 115q0 18 13 31.5t32 13.5h354q21 0 33 -12t12 -31
l4 -117v-21q0 -17 -12 -30t-33 -13q-23 0 -32.5 13.5t-12.5 46.5l-2 78h-94v-396zM922 1212q6 24 22.5 36t42.5 12h66q20 0 34.5 -15.5t14.5 -38.5q0 -21 -8.5 -30t-28.5 -9h-8l11 -391q24 0 38 -11.5t14 -31.5q0 -18 -14 -30.5t-37 -12.5h-108q-33 0 -49.5 11t-16.5 32
q0 23 17 33q20 10 61 10h14v363l-69 -244q-9 -26 -22 -37.5t-36 -11.5q-24 0 -37 11t-22 38l-72 244v-361h25q37 0 54 -11q17 -9 17 -34q0 -20 -16 -31.5t-47 -11.5h-109q-21 0 -37 12t-16 31t12.5 30.5t40.5 14.5l11 393h-7q-18 0 -29 10q-10 12 -10 29q0 20 15 35t37 15
h63q27 0 44.5 -12.5t23.5 -35.5l59 -249z" />
    <glyph glyph-name="scaron" unicode="&#x161;" 
d="M324 168l2 -113v-10q0 -29 -9 -42t-28 -13q-25 0 -36 21t-11 65v198q0 58 10.5 81.5t36.5 23.5q22 0 40 -47q4 -12 7.5 -20.5t9.5 -20.5q54 -111 133 -166q40 -27 85.5 -41t99.5 -14q112 0 180.5 48t68.5 130q0 131 -323 212l-29 7q-203 48 -259 97t-56 134
q0 109 88.5 177.5t230.5 68.5q104 0 178 -31t119 -94l-6 51v13q0 22 9.5 33.5t29.5 11.5q24 0 34.5 -20t10.5 -66v-137q0 -54 -6.5 -70.5t-26.5 -16.5q-30 0 -51 60l-12 32q-30 74 -98 111t-171 37q-105 0 -165 -39.5t-60 -111.5q0 -96 229 -150l87 -20q212 -51 285 -113.5
t73 -173.5q0 -117 -98 -192.5t-256 -75.5q-116 0 -208 49.5t-138 136.5zM590 1053q-12 0 -18 3l-11 13l-194 301l-4 6l-1 10q0 9 5.5 15t13.5 6l11 -3l16 -13l213 -222l210 222l16 13q5 3 11 3q7 0 12.5 -5t6.5 -16l-1 -10q-2 -5 -4 -6l-194 -301l-13 -14l-16 -2h-59z" />
    <glyph glyph-name="guilsinglright" unicode="&#x203a;" 
d="M499 210l130 253l-129 254l-2 4q-5 11 -8 21.5t-3 19.5q0 15 15 27t39 12q23 0 38 -11q16 -9 27 -38l135 -289l-135 -289q-21 -49 -69 -49q-20 0 -35 11.5t-15 27.5l3 22z" />
    <glyph glyph-name="oe" unicode="&#x153;" 
d="M610 205q-24 -106 -83 -164.5t-140 -58.5q-123 0 -199.5 132.5t-76.5 348.5q0 218 75.5 349.5t200.5 131.5q86 0 144.5 -57.5t80.5 -165.5q21 101 84.5 162t141.5 61q114 0 189 -116.5t75 -299.5q0 -37 -16 -52q-16 -13 -62 -13h-367l1 -21l1 -20q0 -150 50.5 -251
t124.5 -101q33 0 65 18t54 50l8 13q45 72 79 72q15 0 25 -11.5t10 -27.5q0 -56 -79 -129t-162 -73q-82 0 -141 59.5t-83 163.5zM662 551h342q0 69 -15 124.5t-41 100.5q-45 80 -114 80q-64 0 -113 -83q-45 -79 -59 -222zM209 463q0 -178 48.5 -285.5t129.5 -107.5
q78 0 127 107q23 52 36 125t13 161q0 179 -48.5 286t-127.5 107t-128.5 -108.5t-49.5 -284.5z" />
    <glyph glyph-name="Ydieresis" unicode="&#x178;" 
d="M666 547v-461h165q36 0 53 -11q17 -9 17 -32q0 -24 -15.5 -33.5t-80.5 -9.5h-377q-64 0 -82 9q-16 10 -16 34q0 20 16.5 31.5t52.5 11.5h166v461l-317 598h-58q-35 0 -53 9q-16 10 -16 32q0 24 22 36q24 11 76 11h182q63 0 85 -9t22 -32q0 -22 -18.5 -34.5t-55.5 -12.5
h-78l260 -502l265 502h-82q-36 0 -56 10q-18 11 -18 31q0 24 24 36q11 5 31.5 8t50.5 3h228q24 0 38.5 -11.5t14.5 -31.5q0 -23 -17 -34t-53 -11h-55zM705 1529q0 34 27 61t63 27q35 0 61.5 -26t26.5 -62q0 -38 -26 -64q-24 -26 -62 -26t-64 27t-26 63zM358 1529q0 36 27 62
t61 26q36 0 62.5 -26t26.5 -62q0 -38 -26 -64q-24 -26 -63 -26q-37 0 -62.5 26.5t-25.5 63.5z" />
    <glyph glyph-name="nonbreakingspace" unicode="&#xa0;" 
 />
    <glyph glyph-name="exclamdown" unicode="&#xa1;" 
d="M496 158q0 55 32 232q18 105 28.5 182t10.5 137l2 36q0 123 47 123q23 0 32 -20t18 -109q0 -63 8 -138q2 -22 34 -242q29 -200 29 -226q0 -73 -30.5 -112t-90.5 -39q-54 0 -87 47t-33 129zM616 1262q60 0 101 -40t41 -102q0 -63 -40 -103t-102 -40q-60 0 -100.5 41
t-40.5 102q0 60 41 101t100 41z" />
    <glyph glyph-name="cent" unicode="&#xa2;" 
d="M575 70l35 772q-125 -12 -211 -124t-86 -265q0 -73 18 -135.5t56 -117.5q73 -106 188 -130zM692 841l-33 -775q65 9 119.5 44t89.5 89q17 24 39 69q30 64 56 64q18 0 30.5 -13t12.5 -30q0 -96 -102.5 -192t-250.5 -117l-4 -68q0 -34 -4 -59.5t-10 -40.5q-11 -27 -33 -27
q-15 0 -25 17.5t-10 52.5v22q0 17 2 27l6 78q-158 22 -259 153.5t-101 317.5q0 198 109.5 328.5t289.5 148.5l11 264q8 83 16.5 103t26.5 20q17 0 29 -23q10 -23 10 -65v-31l-11 -268q129 -12 208 -70t79 -135q0 -48 -28 -76t-74 -28q-38 0 -67.5 26.5t-29.5 61.5
q0 26 14.5 48.5t34.5 31.5q-16 20 -52 35q-31 11 -89 17z" />
    <glyph glyph-name="sterling" unicode="&#xa3;" 
d="M410 94h530q74 0 97.5 -8.5t23.5 -32.5q0 -30 -24.5 -41.5t-125.5 -11.5h-514q-47 0 -69.5 13t-22.5 40q0 10 73 123q35 56 54 114.5t19 117.5q0 34 -7.5 64t-12 44t-15.5 37h-121q-62 0 -78 8t-16 29q0 22 15 33q17 10 52 10h103q-39 52 -60.5 118.5t-21.5 129.5
q0 162 108.5 271.5t276.5 109.5q151 0 265 -90t114 -187q0 -19 -6 -29.5t-21 -11.5q-27 0 -61 56q-22 38 -37 57q-50 63 -111 94t-143 31q-128 0 -208.5 -78t-80.5 -201q0 -67 19.5 -131.5t64.5 -138.5h229q39 0 55.5 -10t16.5 -31t-17 -31q-18 -8 -87 -8h-160q7 -21 13 -43
q3 -13 10 -41q8 -40 8 -72q0 -71 -31.5 -145.5t-95.5 -157.5z" />
    <glyph glyph-name="currency" unicode="&#xa4;" 
d="M313 647q-40 55 -60 115t-20 123q0 36 4 62t16 60q19 57 60 113l-190 191l72 71l190 -190q50 40 110.5 61t127.5 21q65 0 124.5 -20.5t112.5 -61.5l189 190l71 -71l-190 -191q40 -55 60 -113t20 -122q0 -37 -4 -65t-16 -61q-19 -58 -60 -112l190 -188l-71 -72l-189 191
q-51 -41 -111.5 -61.5t-125.5 -20.5q-38 0 -65.5 4t-61.5 16q-61 20 -111 62l-190 -191l-72 72zM623 1174q-118 0 -202.5 -84.5t-84.5 -204.5q0 -119 83.5 -203t203.5 -84q116 0 202 84.5t86 202.5q0 120 -85 204.5t-203 84.5z" />
    <glyph glyph-name="yen" unicode="&#xa5;" 
d="M1059 582q30 0 44.5 -9.5t14.5 -29.5q0 -19 -13 -29q-6 -4 -16 -6t-28 -2h-29h-366v-420h165q36 0 53 -11q17 -9 17 -32q0 -24 -15.5 -33.5t-80.5 -9.5h-377q-64 0 -82 9q-16 10 -16 34q0 20 16.5 31.5t52.5 11.5h166v420h-391q-33 0 -46 8q-13 10 -13 29t12 28t45 9
l27 2h352l-98 180h-279q-33 0 -46 8q-13 10 -13 29t12 28t45 9l27 2h213l-164 307h-58q-35 0 -53 9q-16 10 -16 32q0 24 22 36q24 11 76 11h182q63 0 85 -9t22 -32q0 -22 -18.5 -34.5t-55.5 -12.5h-78l260 -522l265 522h-82q-36 0 -56 10q-18 11 -18 31q0 24 24 36
q11 5 31.5 8t50.5 3h228q24 0 38.5 -11.5t14.5 -31.5q0 -23 -17 -34t-53 -11h-55l-164 -307h236q30 0 44.5 -9.5t14.5 -29.5q0 -19 -13 -29q-6 -4 -16 -6t-28 -2h-29h-254l-94 -180h375z" />
    <glyph glyph-name="brokenbar" unicode="&#xa6;" 
d="M555 1432h121v-758h-121v758zM555 408h121v-760h-121v760z" />
    <glyph glyph-name="section" unicode="&#xa7;" 
d="M477 823q-72 -15 -110 -54q-35 -40 -35 -103q0 -38 18.5 -83t52.5 -91l355 -488q68 20 105.5 65t37.5 105q0 38 -19 81.5t-77 121.5zM801 -51q20 -26 33 -48.5t21 -43.5q17 -43 17 -86q0 -90 -71 -143.5t-191 -53.5q-132 0 -216.5 53.5t-84.5 136.5q0 50 30 82.5t77 32.5
q45 0 75.5 -28.5t30.5 -71.5q0 -26 -18.5 -49t-18.5 -29q0 -20 35.5 -33.5t89.5 -13.5q78 0 123 32.5t45 88.5q0 33 -27.5 84.5t-91.5 136.5l-340 455q-42 57 -60.5 106t-18.5 102q0 80 50.5 139t143.5 81q-33 46 -52 90q-17 43 -17 78q0 100 72.5 157.5t203.5 57.5
q122 0 204.5 -56.5t82.5 -134.5q0 -42 -27 -70t-72 -28q-38 0 -64 25.5t-26 62.5q0 25 17 49q5 7 15 25q1 2 3 4q0 19 -39 34t-100 15q-85 0 -131.5 -34.5t-46.5 -98.5q0 -63 78 -165l12 -16l350 -471q49 -67 72.5 -121.5t23.5 -103.5q0 -82 -51 -144.5t-141 -84.5z" />
    <glyph glyph-name="dieresis" unicode="&#xa8;" 
d="M705 1210q0 34 27 61t63 27q35 0 61.5 -26t26.5 -62q0 -38 -26 -64q-24 -26 -62 -26t-64 27t-26 63zM358 1210q0 36 27 62t61 26q36 0 62.5 -26t26.5 -62q0 -38 -26 -64q-24 -26 -63 -26q-37 0 -62.5 26.5t-25.5 63.5z" />
    <glyph glyph-name="copyright" unicode="&#xa9;" 
d="M870 977v-133q0 -35 -9 -49.5t-32 -14.5q-18 0 -31 13q-9 11 -20 49q-18 67 -58 98t-106 31q-101 0 -163 -77t-62 -204q0 -131 66 -213t172 -82q35 0 69 10t62 29l50 38q32 26 48 28q15 0 27 -11.5t12 -27.5q0 -48 -87.5 -102t-180.5 -54q-146 0 -244 106t-98 269
q0 170 92 272.5t246 102.5q41 0 77 -10q20 -5 35.5 -11t34.5 -18q15 14 28.5 20t26.5 8q19 0 32 -19.5t13 -47.5zM25 686q0 120 44 228t127 191.5t191.5 128t228.5 44.5q116 0 226 -45t191 -126t128 -194t47 -227q0 -118 -45.5 -225.5t-129 -193t-190.5 -130.5t-227 -45
q-87 0 -170 24.5t-155 73.5q-125 85 -195.5 214.5t-70.5 281.5zM618 1200q-102 0 -196 -39.5t-165 -111.5t-111 -167.5t-40 -195.5q0 -99 39.5 -193t111.5 -166t166 -112.5t195 -40.5q77 0 149.5 22.5t135.5 67.5q106 72 166.5 184t60.5 238q0 103 -39 197.5t-111.5 166.5
t-166.5 111t-195 39z" />
    <glyph glyph-name="ordfeminine" unicode="&#xaa;" 
d="M922 383q24 0 36.5 -11t12.5 -32t-11 -32q-11 -9 -38 -9h-588q-24 0 -36.5 10.5t-12.5 30.5q0 23 12 33t37 10h588zM803 958l1 28l1 18q0 98 -46.5 139t-156.5 41q-42 0 -82 -9t-75 -28q12 -9 18 -21.5t6 -31.5q0 -35 -24 -59q-24 -21 -64 -21q-37 0 -61.5 22.5
t-24.5 57.5q0 66 90 117t219 51q149 0 220 -69t71 -216v-266q0 -95 11.5 -118.5t43.5 -23.5q22 0 52 28t49 28q11 0 16 -4.5t6 -18.5q0 -41 -41.5 -75.5t-101.5 -34.5q-42 0 -71.5 21t-51.5 71q-84 -46 -160 -70q-35 -10 -70.5 -16t-68.5 -6q-120 0 -192 54.5t-72 147.5
q0 126 131 189q70 34 172 53q116 22 256 22zM805 881q-118 0 -208 -14t-150 -38q-109 -41 -109 -124q0 -57 52.5 -95.5t133.5 -38.5q56 0 131 26q41 14 76 30t74 41v213z" />
    <glyph glyph-name="guillemotleft" unicode="&#xab;" 
d="M543 211l1 -3q13 -26 13 -44q0 -14 -15 -28q-14 -11 -34 -11q-46 0 -70 49l-137 289l137 289q11 25 27 38q16 11 39 11q20 0 35.5 -11t17.5 -28q0 -16 -10 -36l-4 -9l-127 -254zM920 211l1 -3q13 -26 13 -44q0 -14 -15 -28q-16 -11 -34 -11q-46 0 -70 49l-137 289
l137 289q11 25 27 38q16 11 39 11q20 0 35.5 -11t17.5 -28q0 -16 -10 -36l-5 -10l-126 -253z" />
    <glyph glyph-name="logicalnot" unicode="&#xac;" 
d="M178 782q-36 0 -47.5 9t-11.5 38q0 28 13 41q4 4 12 7q14 6 34 6h871q18 0 27 -7.5t11 -21.5v-434q0 -36 -9.5 -48t-37.5 -12t-40.5 13.5t-12.5 46.5v362h-809z" />
    <glyph glyph-name="minus" unicode="&#xad;" 
d="M965 524q40 0 57.5 -12.5t17.5 -42.5q0 -27 -21 -39q-22 -10 -85 -10h-625q-77 0 -96.5 11.5t-19.5 41.5q0 27 18.5 39t60.5 12h693z" />
    <glyph glyph-name="registered" unicode="&#xae;" 
d="M659 573q-22 37 -45.5 51.5t-72.5 14.5h-35v-201h35q44 0 65 -9t21 -30q0 -19 -16 -29q-8 -4 -20.5 -6t-35.5 -2h-180q-27 0 -41.5 9t-14.5 28q0 21 17 30t65 9h21v523h-21q-30 0 -41.5 1.5t-23.5 6.5q-17 8 -17 28q0 19 15.5 28t40.5 9h190q148 0 217.5 -49.5
t69.5 -153.5q0 -63 -37 -109t-113 -73l142 -211h18q40 0 58 -9t18 -30q0 -16 -15 -28q-7 -5 -17 -8t-23 -3h-60q-32 0 -53 36l-2 3zM586 961h-80v-248h76q89 0 131.5 30t42.5 93q0 62 -42.5 93.5t-127.5 31.5zM25 686q0 120 44 228t127 191.5t191.5 128t228.5 44.5
q116 0 226 -45t191 -126t128 -194t47 -227q0 -118 -45.5 -225.5t-129 -193t-190.5 -130.5t-227 -45q-87 0 -170 24.5t-155 73.5q-125 85 -195.5 214.5t-70.5 281.5zM618 1200q-102 0 -196 -39.5t-165 -111.5t-111 -167.5t-40 -195.5q0 -99 39.5 -193t111.5 -166t166 -112.5
t195 -40.5q77 0 149.5 22.5t135.5 67.5q106 72 166.5 184t60.5 238q0 103 -39 197.5t-111.5 166.5t-166.5 111t-195 39z" />
    <glyph glyph-name="macron" unicode="&#xaf;" 
d="M426 1155q-36 0 -52 13t-16 42q0 31 14 42.5t54 11.5h387q36 0 52 -13t16 -41q0 -29 -15 -43q-15 -12 -53 -12h-387z" />
    <glyph glyph-name="degree" unicode="&#xb0;" 
d="M449 963q0 -69 49 -118.5t118 -49.5t118.5 49t49.5 119q0 69 -49 118t-119 49q-69 0 -118 -49t-49 -118zM317 963q0 122 87 211q44 44 96 66t116 22q124 0 211.5 -87.5t87.5 -211.5q0 -123 -87.5 -211t-211.5 -88q-122 0 -210.5 88t-88.5 211z" />
    <glyph glyph-name="plusminus" unicode="&#xb1;" 
d="M666 317q0 -35 -11 -47q-9 -12 -37 -12t-40.5 13.5t-12.5 45.5v390h-364q-37 0 -48.5 10.5t-11.5 36.5q0 28 13.5 40.5t46.5 12.5h364v387q0 37 11 49t36 12q28 0 41 -14.5t13 -46.5v-387h364q15 0 27.5 -1.5t23.5 -10.5t11 -35q0 -27 -14.5 -40t-47.5 -13h-364v-390z
M201 37q-37 0 -48.5 10.5t-11.5 36.5q0 28 13.5 40.5t46.5 12.5h829q15 0 27.5 -1.5t23.5 -10.5t11 -35t-15 -41q-14 -12 -47 -12h-829z" />
    <glyph glyph-name="twosuperior" unicode="&#xb2;" 
d="M408 465h413q68 0 85.5 -9t17.5 -32t-24 -35q-27 -10 -101 -10h-416q-39 0 -55.5 13t-16.5 46q0 92 48 165t145 124q38 19 119 52q215 84 215 212q0 82 -58 135.5t-147 53.5q-107 0 -185.5 -78t-89.5 -80q-14 0 -23 8.5t-9 22.5q0 69 93 139t210 70q131 0 217 -78.5
t86 -194.5q0 -100 -58.5 -164.5t-218.5 -126.5q-148 -55 -196 -105q-25 -27 -38 -57.5t-13 -70.5z" />
    <glyph glyph-name="threesuperior" unicode="&#xb3;" 
d="M690 870q111 -21 170.5 -86t59.5 -166q0 -110 -99 -184t-254 -74q-99 0 -174.5 26.5t-75.5 59.5q0 15 13 25t32 10q9 0 32 -6q27 -9 44 -14q35 -9 68.5 -14t68.5 -5q113 0 183.5 55.5t70.5 143.5q0 90 -68 134q-37 24 -91.5 38t-128.5 14q-26 0 -46.5 3.5t-31.5 9.5
q-21 9 -21 30q0 37 88 37l74 6q95 13 150 50t55 92t-52.5 90t-138.5 35q-80 0 -157.5 -33t-83.5 -33q-17 0 -26.5 7t-10.5 22q0 35 89.5 77t182.5 42q130 0 210.5 -57t80.5 -148q0 -66 -55 -114.5t-158 -72.5z" />
    <glyph glyph-name="acute" unicode="&#xb4;" 
d="M549 1063l-3 -2q-15 -12 -28 -12q-7 0 -12 5l-4 13v4l6 9l6 7l215 273q23 27 39.5 39t32.5 12q21 0 38 -15.5t17 -37.5q0 -14 -9 -29q-5 -6 -14 -15.5t-24 -23.5z" />
    <glyph glyph-name="mu" unicode="&#xb5;" 
d="M248 66l-84 -396q-11 -54 -23 -68t-37 -14q-19 0 -31 12q-10 12 -10 33q0 14 2 21l5 22l241 1162h-92q-33 0 -45 8t-12 28q0 23 24 36.5t64 13.5h125q24 0 35.5 -8t11.5 -25l-1 -10l-1 -6l-115 -529l-2 -9q-16 -88 -16 -112q0 -79 44.5 -123.5t123.5 -44.5
q83 0 178.5 51.5t183.5 145.5l127 594l1 6q15 76 59 76q24 0 35.5 -9.5t11.5 -29.5q0 -9 -5 -27l-4 -21l-161 -753h96q30 0 45.5 -9.5t15.5 -29.5t-24 -35q-23 -12 -66 -12h-100q-15 0 -31.5 0.5t-28.5 8t-12 30.5l1 18l5 25l13 61q-87 -83 -179 -125q-46 -20 -91.5 -30
t-98.5 -10q-59 0 -106 21q-43 21 -72 63z" />
    <glyph glyph-name="paragraph" unicode="&#xb6;" 
d="M895 1233q39 0 54.5 -11t15.5 -36q0 -20 -16 -29.5t-50 -9.5h-33v-1294q0 -35 -11.5 -51.5t-37.5 -16.5q-20 0 -34 18q-11 17 -11 50v1294h-106v-1294q0 -35 -12.5 -51.5t-39.5 -16.5q-21 0 -32 17t-11 51v679q-81 0 -146.5 28.5t-117.5 81.5q-98 100 -98 259
q0 158 102 245t291 87h293z" />
    <glyph glyph-name="periodcentered" unicode="&#x2219;" 
d="M614 487q-59 0 -100 41t-41 101q0 62 39.5 102.5t101.5 40.5q63 0 103.5 -39.5t40.5 -103.5q0 -60 -41 -101t-103 -41z" />
    <glyph glyph-name="cedilla" unicode="&#xb8;" 
d="M647 0v-121l33 3l33 1q75 0 120.5 -45t45.5 -117q0 -71 -57 -116t-150 -45q-89 0 -180 30t-91 58q0 14 10 24.5t23 10.5t86 -29t121 -29q65 0 97 24.5t32 76.5q0 45 -32.5 68.5t-94.5 23.5l-10 -1l-19 -1q-9 0 -14.5 6t-5.5 20v158h53z" />
    <glyph glyph-name="onesuperior" unicode="&#xb9;" 
d="M674 463h237q36 0 50 -9.5t14 -33.5q0 -22 -14 -31.5t-64 -9.5h-14h-510q-54 0 -69 9t-15 32q0 24 12.5 33.5t46.5 9.5h236v698l-166 -59l-34 -11l-26 -4q-14 0 -23.5 10.5t-10.5 26.5q0 17 10.5 26.5t46.5 23.5l203 71l5 2q39 15 56 15q16 0 22.5 -7t6.5 -36v-27v-729z
" />
    <glyph glyph-name="ordmasculine" unicode="&#xba;" 
d="M909 383q23 0 37.5 -11.5t14.5 -31.5t-12 -32q-12 -9 -40 -9h-585q-25 0 -38.5 10.5t-13.5 30.5t12.5 31.5t39.5 11.5h585zM616 1262q177 0 288.5 -107.5t111.5 -277.5t-112 -277.5t-288 -107.5q-177 0 -288 107t-111 278q0 169 111 277t288 108zM922 877
q0 134 -84.5 217.5t-221.5 83.5t-221 -83t-84 -218q0 -133 84.5 -216t220.5 -83q139 0 222.5 81.5t83.5 217.5z" />
    <glyph glyph-name="guillemotright" unicode="&#xbb;" 
d="M690 211l127 252l-127 254l-4 9q-8 19 -10 36q0 15 15 27t38 12q25 0 39 -11q16 -9 27 -38l135 -289l-135 -289q-23 -49 -70 -49q-20 0 -35 11q-12 11 -14 28q0 17 12 43zM313 211l127 252l-126 253l-5 10q-8 19 -10 36q0 15 15 27t38 12q25 0 39 -11q16 -9 27 -38
l135 -289l-135 -289q-23 -49 -70 -49q-20 0 -35 11q-12 11 -14 28q0 18 13 44z" />
    <glyph glyph-name="onequarter" unicode="&#xbc;" 
d="M999 930l-743 -664q-27 -26 -39.5 -32.5t-23.5 -8.5q-15 0 -25 10t-10 25q0 10 6.5 21.5t23.5 25.5l760 674q12 11 24.5 18t22.5 9q12 0 20 -11q9 -9 9 -24q0 -9 -6.5 -21.5t-18.5 -21.5zM422 713q0 -43 -10 -61.5t-33 -18.5q-20 0 -32 16q-9 15 -9 64v452l-80 -30
l-35 -12l-20 -3q-12 0 -21.5 10.5t-9.5 24.5q0 24 46 43l5 2l135 51l24 8l15 3q15 0 20 -5q5 -3 5 -22v-23v-499zM1030 203h47q14 0 21 -8q6 -5 8 -21q0 -22 -9.5 -34.5t-27.5 -12.5h-39v-84q0 -36 -10 -52t-33 -16q-25 0 -33 11t-8 59v82h-231q-27 0 -41.5 9t-14.5 30
q0 11 23 54q84 164 84 294l-2 27l-2 32q0 21 11 34.5t30 13.5q24 0 33.5 -22t9.5 -77q0 -95 -22 -175.5t-66 -143.5h188v297q0 34 12 49.5t33 15.5t30 -14.5t9 -54.5v-293z" />
    <glyph glyph-name="onehalf" unicode="&#xbd;" 
d="M750 57h290q38 0 48 -7t10 -27q0 -23 -18 -32t-70 -9h-297q-26 0 -38.5 8.5t-12.5 29.5q0 68 35.5 124.5t103.5 95.5q32 17 91 42q130 53 130 128q0 57 -37.5 94t-93.5 37q-73 0 -125.5 -51.5t-63.5 -53.5q-13 0 -20.5 6.5t-9.5 20.5q0 48 66.5 97.5t150.5 49.5
q91 0 153 -54.5t62 -133.5q0 -76 -39.5 -122t-140 -84t-133.5 -71t-41 -88zM999 930l-743 -664q-27 -26 -39.5 -32.5t-23.5 -8.5q-15 0 -25 10t-10 25q0 10 6.5 21.5t23.5 25.5l760 674q12 11 24.5 18t22.5 9q12 0 20 -11q9 -9 9 -24q0 -9 -6.5 -21.5t-18.5 -21.5zM422 713
q0 -43 -10 -61.5t-33 -18.5q-20 0 -32 16q-9 15 -9 64v452l-80 -30l-35 -12l-20 -3q-12 0 -21.5 10.5t-9.5 24.5q0 24 46 43l5 2l135 51l24 8l15 3q15 0 20 -5q5 -3 5 -22v-23v-499z" />
    <glyph glyph-name="threequarters" unicode="&#xbe;" 
d="M1008 203h47q14 0 20 -6.5t8 -22.5q0 -21 -9 -34t-27 -13h-39v-84q0 -37 -10.5 -52.5t-32.5 -15.5q-25 0 -33 11t-8 59v82h-232q-27 0 -42 9q-13 10 -13 30q0 10 22 54q82 166 82 294l-1 27l-1 32q0 21 11 32t30 11q24 0 33.5 -18.5t9.5 -75.5q0 -95 -22 -175.5
t-66 -143.5h189v297q0 34 11 49.5t34 15.5q21 0 30 -14.5t9 -54.5v-293zM999 930l-743 -664q-27 -26 -39.5 -32.5t-23.5 -8.5q-15 0 -25 10t-10 25q0 10 6.5 21.5t23.5 25.5l760 674q12 11 24.5 18t22.5 9q12 0 20 -11q9 -9 9 -24q0 -9 -6.5 -21.5t-18.5 -21.5zM381 983
q80 -17 121 -62.5t41 -115.5q0 -80 -70.5 -132t-181.5 -52q-67 0 -122.5 18t-55.5 39q0 12 10.5 25t23.5 14l51 -15q48 -14 93 -14q75 0 121.5 37.5t46.5 97.5q0 61 -44 90q-24 16 -60.5 26.5t-87.5 10.5h-4q-60 0 -60 33q0 29 64 35l44 4q63 9 99 33t36 59q0 36 -35 59
t-92 23t-109 -23l-54 -22q-11 0 -19 8q-6 8 -8 19q0 27 64 55.5t139 28.5q87 0 142.5 -41t55.5 -105q0 -47 -38.5 -81.5t-110.5 -51.5z" />
    <glyph glyph-name="questiondown" unicode="&#xbf;" 
d="M874 182q-46 9 -75 39q-27 30 -27 74q0 39 33.5 68.5t77.5 29.5q50 0 85.5 -40t35.5 -101q0 -109 -103 -189.5t-244 -80.5q-154 0 -254 87t-100 220q0 78 31.5 134.5t118.5 123.5l57 43q69 51 82 74q6 10 10.5 33t4.5 51q0 63 42 63q24 0 35.5 -22.5t11.5 -73.5
q0 -61 -15.5 -94t-70.5 -76l-70 -54q-137 -99 -137 -210q0 -89 72 -151t176 -62q78 0 143 33t80 81zM657 1262q59 0 100.5 -41t41.5 -101q0 -62 -40 -102.5t-102 -40.5q-63 0 -103 40t-40 103q0 60 41 101t102 41z" />
    <glyph glyph-name="Agrave" unicode="&#xc0;" 
d="M424 467h381l-199 754zM332 86h71q41 0 56.5 -10.5t15.5 -34.5q0 -22 -16 -31.5t-88 -9.5h-176q-64 0 -81.5 9t-17.5 34q0 20 16.5 31.5t53.5 11.5h65l295 1116q7 32 23.5 46t46.5 14h35q28 0 42.5 -13.5t24.5 -52.5l303 -1110h64q39 0 54.5 -11t15.5 -36q0 -21 -19 -31
q-9 -4 -27.5 -6t-52.5 -2h-174q-67 0 -86.5 9.5t-19.5 33.5q0 23 16.5 33t56.5 10h74l-80 305h-415zM684 1382l-260 227l-22 21t-16 18q-9 14 -9 29q0 21 17 37t38 16q14 0 30.5 -11t41.5 -40l213 -273l9 -10l5 -6q0 -13 -3 -16.5t-13 -5.5q-12 0 -29 12z" />
    <glyph glyph-name="Aacute" unicode="&#xc1;" 
d="M424 467h381l-199 754zM332 86h71q41 0 56.5 -10.5t15.5 -34.5q0 -22 -16 -31.5t-88 -9.5h-176q-64 0 -81.5 9t-17.5 34q0 20 16.5 31.5t53.5 11.5h65l295 1116q7 32 23.5 46t46.5 14h35q28 0 42.5 -13.5t24.5 -52.5l303 -1110h64q39 0 54.5 -11t15.5 -36q0 -21 -19 -31
q-9 -4 -27.5 -6t-52.5 -2h-174q-67 0 -86.5 9.5t-19.5 33.5q0 23 16.5 33t56.5 10h74l-80 305h-415zM549 1382l-3 -2q-15 -12 -28 -12q-7 0 -12 5l-4 13v4l6 9l6 7l215 273q23 27 39.5 39t32.5 12q21 0 38 -15.5t17 -37.5q0 -14 -9 -29q-5 -6 -14 -15.5t-24 -23.5z" />
    <glyph glyph-name="Acircumflex" unicode="&#xc2;" 
d="M424 467h381l-199 754zM332 86h71q41 0 56.5 -10.5t15.5 -34.5q0 -22 -16 -31.5t-88 -9.5h-176q-64 0 -81.5 9t-17.5 34q0 20 16.5 31.5t53.5 11.5h65l295 1116q7 32 23.5 46t46.5 14h35q28 0 42.5 -13.5t24.5 -52.5l303 -1110h64q39 0 54.5 -11t15.5 -36q0 -21 -19 -31
q-9 -4 -27.5 -6t-52.5 -2h-174q-67 0 -86.5 9.5t-19.5 33.5q0 23 16.5 33t56.5 10h74l-80 305h-415zM649 1722q10 0 16 -3t13 -14l194 -299l4 -6l1 -12q0 -9 -5.5 -14.5t-13.5 -5.5q-7 0 -11 2l-16 14l-210 221l-213 -221l-16 -14l-11 -2q-8 0 -12.5 5.5t-6.5 14.5l1 12
q2 5 4 6l194 299q6 10 11 13.5t18 3.5h59z" />
    <glyph glyph-name="Atilde" unicode="&#xc3;" 
d="M424 467h381l-199 754zM332 86h71q41 0 56.5 -10.5t15.5 -34.5q0 -22 -16 -31.5t-88 -9.5h-176q-64 0 -81.5 9t-17.5 34q0 20 16.5 31.5t53.5 11.5h65l295 1116q7 32 23.5 46t46.5 14h35q28 0 42.5 -13.5t24.5 -52.5l303 -1110h64q39 0 54.5 -11t15.5 -36q0 -21 -19 -31
q-9 -4 -27.5 -6t-52.5 -2h-174q-67 0 -86.5 9.5t-19.5 33.5q0 23 16.5 33t56.5 10h74l-80 305h-415zM702 1570l35 -9l31 -3q51 0 75.5 47t37.5 47q8 0 13 -5q4 -2 5 -11q0 -59 -50 -114.5t-116 -55.5h-18q-14 3 -28 5t-44 11l-104 31l-36 9l-30 3q-51 0 -75.5 -46t-37.5 -48
q-9 0 -13.5 4.5t-6.5 13.5q0 57 51 113.5t117 56.5h15.5t23.5 -4q21 -3 51 -12z" />
    <glyph glyph-name="Adieresis" unicode="&#xc4;" 
d="M424 467h381l-199 754zM332 86h71q41 0 56.5 -10.5t15.5 -34.5q0 -22 -16 -31.5t-88 -9.5h-176q-64 0 -81.5 9t-17.5 34q0 20 16.5 31.5t53.5 11.5h65l295 1116q7 32 23.5 46t46.5 14h35q28 0 42.5 -13.5t24.5 -52.5l303 -1110h64q39 0 54.5 -11t15.5 -36q0 -21 -19 -31
q-9 -4 -27.5 -6t-52.5 -2h-174q-67 0 -86.5 9.5t-19.5 33.5q0 23 16.5 33t56.5 10h74l-80 305h-415zM705 1529q0 34 27 61t63 27q35 0 61.5 -26t26.5 -62q0 -38 -26 -64q-24 -26 -62 -26t-64 27t-26 63zM358 1529q0 36 27 62t61 26q36 0 62.5 -26t26.5 -62q0 -38 -26 -64
q-24 -26 -63 -26q-37 0 -62.5 26.5t-25.5 63.5z" />
    <glyph glyph-name="Aring" unicode="&#xc5;" 
d="M387 1561q0 98 67.5 165.5t166.5 67.5q95 0 164 -68.5t69 -164.5q0 -95 -68.5 -164.5t-164.5 -69.5q-98 0 -166 68t-68 166zM467 1561q0 -65 45 -108.5t109 -43.5t108.5 43.5t44.5 108.5q0 63 -45 108t-108 45q-62 0 -108 -45t-46 -108zM424 467h381l-199 754zM332 86h71
q41 0 56.5 -10.5t15.5 -34.5q0 -22 -16 -31.5t-88 -9.5h-176q-64 0 -81.5 9t-17.5 34q0 20 16.5 31.5t53.5 11.5h65l295 1116q7 32 23.5 46t46.5 14h35q28 0 42.5 -13.5t24.5 -52.5l303 -1110h64q39 0 54.5 -11t15.5 -36q0 -21 -19 -31q-9 -4 -27.5 -6t-52.5 -2h-174
q-67 0 -86.5 9.5t-19.5 33.5q0 23 16.5 33t56.5 10h74l-80 305h-415z" />
    <glyph glyph-name="AE" unicode="&#xc6;" 
d="M547 391h-264l-105 -305h64q42 0 57.5 -10.5t15.5 -34.5q0 -22 -17 -31.5t-89 -9.5h-158q-62 0 -79 9t-17 34q0 21 16.5 32t53.5 11h65l367 1088q11 37 26.5 48t42.5 11h353q131 0 158 -19.5t40 -107.5l13 -93l4 -39l2 -36q0 -23 -8.5 -36t-26.5 -13q-28 0 -50 79
q-8 34 -15 55.5t-17 41.5q-21 46 -55.5 63t-128.5 17h-99h-63v-447h112q37 0 51.5 11.5t22.5 41.5l5 61q0 85 38 85q23 0 35 -30q10 -32 10 -105v-217q0 -83 -9 -108t-32 -25q-41 0 -41 86q0 22 -2.5 42t-3.5 26q-4 30 -22.5 44.5t-51.5 14.5h-112v-539h207q84 0 125 29
q38 29 65 121l23 102q15 82 45 82q16 0 26.5 -12.5t10.5 -32.5l-4 -34l-5 -40l-20 -160q-13 -102 -37.5 -121.5t-130.5 -19.5h-420q-63 0 -80.5 9t-17.5 34q0 20 16.5 31.5t52.5 11.5h58v305zM305 467h242v709z" />
    <glyph glyph-name="Ccedilla" unicode="&#xc7;" 
d="M594 -23q-175 15 -294 171q-130 174 -130 454q0 300 129 480t342 180q90 0 160 -40t117 -116v33q0 50 11.5 71t39.5 21q25 0 36 -13.5t11 -43.5l-1 -22l-3 -140l1 -146l1 -18q0 -39 -11.5 -59.5t-33.5 -20.5q-39 0 -52 86l-4 25q-21 142 -94 219.5t-184 77.5
q-155 0 -258 -155.5t-103 -399.5q0 -245 102 -403.5t255 -158.5q92 0 163.5 63t108.5 183l15 56q18 77 57 77q19 0 30 -14.5t11 -42.5q0 -30 -14.5 -86t-38.5 -102q-51 -105 -136 -162q-41 -27 -86 -41.5t-94 -14.5v-96l33 3l33 1q75 0 120.5 -45t45.5 -117q0 -71 -57 -116
t-150 -45q-89 0 -180 30t-91 58q0 14 10 24.5t23 10.5t86 -29t121 -29q65 0 97 24.5t32 76.5q0 45 -32.5 68.5t-94.5 23.5l-10 -1l-19 -1q-9 0 -14.5 6t-5.5 20v135z" />
    <glyph glyph-name="Egrave" unicode="&#xc8;" 
d="M838 1233h16q133 0 159.5 -19.5t39.5 -107.5l12 -92l4 -39l2 -37q0 -23 -8.5 -36t-26.5 -13q-28 0 -50 80q-9 35 -15.5 56t-16.5 40q-21 46 -55.5 63t-128.5 17h-98h-312v-447h281q35 0 52 12q14 12 22 42l4 59q0 86 39 86q23 0 34 -30t11 -105v-217q0 -83 -9 -108
t-32 -25q-42 0 -42 87q0 24 -1 37t-5 36.5t-22 38t-51 14.5h-281v-539h455q84 0 125 29.5t66 120.5l23 103q15 81 44 81q16 0 26.5 -12.5t10.5 -32.5l-4 -35l-4 -38l-21 -161q-12 -96 -34.5 -118.5t-124.5 -22.5h-705q-63 0 -80.5 9t-17.5 34q0 20 16.5 31.5t52.5 11.5h76
v1059h-76q-35 0 -53 9q-16 10 -16 32q0 24 22 36q24 11 76 11h621zM698 1382l-260 227l-22 21t-16 18q-9 14 -9 29q0 21 17 37t38 16q14 0 30.5 -11t41.5 -40l213 -273l9 -10l5 -6q0 -13 -3 -16.5t-13 -5.5q-12 0 -29 12z" />
    <glyph glyph-name="Eacute" unicode="&#xc9;" 
d="M838 1233h16q133 0 159.5 -19.5t39.5 -107.5l12 -92l4 -39l2 -37q0 -23 -8.5 -36t-26.5 -13q-28 0 -50 80q-9 35 -15.5 56t-16.5 40q-21 46 -55.5 63t-128.5 17h-98h-312v-447h281q35 0 52 12q14 12 22 42l4 59q0 86 39 86q23 0 34 -30t11 -105v-217q0 -83 -9 -108
t-32 -25q-42 0 -42 87q0 24 -1 37t-5 36.5t-22 38t-51 14.5h-281v-539h455q84 0 125 29.5t66 120.5l23 103q15 81 44 81q16 0 26.5 -12.5t10.5 -32.5l-4 -35l-4 -38l-21 -161q-12 -96 -34.5 -118.5t-124.5 -22.5h-705q-63 0 -80.5 9t-17.5 34q0 20 16.5 31.5t52.5 11.5h76
v1059h-76q-35 0 -53 9q-16 10 -16 32q0 24 22 36q24 11 76 11h621zM563 1382l-3 -2q-15 -12 -28 -12q-7 0 -12 5l-4 13v4l6 9l6 7l215 273q23 27 39.5 39t32.5 12q21 0 38 -15.5t17 -37.5q0 -14 -9 -29q-5 -6 -14 -15.5t-24 -23.5z" />
    <glyph glyph-name="Ecircumflex" unicode="&#xca;" 
d="M838 1233h16q133 0 159.5 -19.5t39.5 -107.5l12 -92l4 -39l2 -37q0 -23 -8.5 -36t-26.5 -13q-28 0 -50 80q-9 35 -15.5 56t-16.5 40q-21 46 -55.5 63t-128.5 17h-98h-312v-447h281q35 0 52 12q14 12 22 42l4 59q0 86 39 86q23 0 34 -30t11 -105v-217q0 -83 -9 -108
t-32 -25q-42 0 -42 87q0 24 -1 37t-5 36.5t-22 38t-51 14.5h-281v-539h455q84 0 125 29.5t66 120.5l23 103q15 81 44 81q16 0 26.5 -12.5t10.5 -32.5l-4 -35l-4 -38l-21 -161q-12 -96 -34.5 -118.5t-124.5 -22.5h-705q-63 0 -80.5 9t-17.5 34q0 20 16.5 31.5t52.5 11.5h76
v1059h-76q-35 0 -53 9q-16 10 -16 32q0 24 22 36q24 11 76 11h621zM663 1722q10 0 16 -3t13 -14l194 -299l4 -6l1 -12q0 -9 -5.5 -14.5t-13.5 -5.5q-7 0 -11 2l-16 14l-210 221l-213 -221l-16 -14l-11 -2q-8 0 -12.5 5.5t-6.5 14.5l1 12q2 5 4 6l194 299q6 10 11 13.5
t18 3.5h59z" />
    <glyph glyph-name="Edieresis" unicode="&#xcb;" 
d="M838 1233h16q133 0 159.5 -19.5t39.5 -107.5l12 -92l4 -39l2 -37q0 -23 -8.5 -36t-26.5 -13q-28 0 -50 80q-9 35 -15.5 56t-16.5 40q-21 46 -55.5 63t-128.5 17h-98h-312v-447h281q35 0 52 12q14 12 22 42l4 59q0 86 39 86q23 0 34 -30t11 -105v-217q0 -83 -9 -108
t-32 -25q-42 0 -42 87q0 24 -1 37t-5 36.5t-22 38t-51 14.5h-281v-539h455q84 0 125 29.5t66 120.5l23 103q15 81 44 81q16 0 26.5 -12.5t10.5 -32.5l-4 -35l-4 -38l-21 -161q-12 -96 -34.5 -118.5t-124.5 -22.5h-705q-63 0 -80.5 9t-17.5 34q0 20 16.5 31.5t52.5 11.5h76
v1059h-76q-35 0 -53 9q-16 10 -16 32q0 24 22 36q24 11 76 11h621zM719 1529q0 34 27 61t63 27q35 0 61.5 -26t26.5 -62q0 -38 -26 -64q-24 -26 -62 -26t-64 27t-26 63zM372 1529q0 36 27 62t61 26q36 0 62.5 -26t26.5 -62q0 -38 -26 -64q-24 -26 -63 -26q-37 0 -62.5 26.5
t-25.5 63.5z" />
    <glyph glyph-name="Igrave" unicode="&#xcc;" 
d="M565 1147h-286q-41 0 -58 9q-14 9 -14 34q0 24 19 33.5t85 9.5h615q63 0 80.5 -9t17.5 -34q0 -23 -17 -33t-53 -10h-288v-1061h286q41 0 56.5 -10.5t15.5 -34.5q0 -22 -16 -31.5t-88 -9.5h-615q-63 0 -80.5 9t-17.5 34q0 20 16.5 31.5t52.5 11.5h289v1061zM684 1382
l-260 227l-22 21t-16 18q-9 14 -9 29q0 21 17 37t38 16q14 0 30.5 -11t41.5 -40l213 -273l9 -10l5 -6q0 -13 -3 -16.5t-13 -5.5q-12 0 -29 12z" />
    <glyph glyph-name="Iacute" unicode="&#xcd;" 
d="M565 1147h-286q-41 0 -58 9q-14 9 -14 34q0 24 19 33.5t85 9.5h615q63 0 80.5 -9t17.5 -34q0 -23 -17 -33t-53 -10h-288v-1061h286q41 0 56.5 -10.5t15.5 -34.5q0 -22 -16 -31.5t-88 -9.5h-615q-63 0 -80.5 9t-17.5 34q0 20 16.5 31.5t52.5 11.5h289v1061zM549 1382
l-3 -2q-15 -12 -28 -12q-7 0 -12 5l-4 13v4l6 9l6 7l215 273q23 27 39.5 39t32.5 12q21 0 38 -15.5t17 -37.5q0 -14 -9 -29q-5 -6 -14 -15.5t-24 -23.5z" />
    <glyph glyph-name="Icircumflex" unicode="&#xce;" 
d="M565 1147h-286q-41 0 -58 9q-14 9 -14 34q0 24 19 33.5t85 9.5h615q63 0 80.5 -9t17.5 -34q0 -23 -17 -33t-53 -10h-288v-1061h286q41 0 56.5 -10.5t15.5 -34.5q0 -22 -16 -31.5t-88 -9.5h-615q-63 0 -80.5 9t-17.5 34q0 20 16.5 31.5t52.5 11.5h289v1061zM649 1722
q10 0 16 -3t13 -14l194 -299l4 -6l1 -12q0 -9 -5.5 -14.5t-13.5 -5.5q-7 0 -11 2l-16 14l-210 221l-213 -221l-16 -14l-11 -2q-8 0 -12.5 5.5t-6.5 14.5l1 12q2 5 4 6l194 299q6 10 11 13.5t18 3.5h59z" />
    <glyph glyph-name="Idieresis" unicode="&#xcf;" 
d="M565 1147h-286q-41 0 -58 9q-14 9 -14 34q0 24 19 33.5t85 9.5h615q63 0 80.5 -9t17.5 -34q0 -23 -17 -33t-53 -10h-288v-1061h286q41 0 56.5 -10.5t15.5 -34.5q0 -22 -16 -31.5t-88 -9.5h-615q-63 0 -80.5 9t-17.5 34q0 20 16.5 31.5t52.5 11.5h289v1061zM705 1529
q0 34 27 61t63 27q35 0 61.5 -26t26.5 -62q0 -38 -26 -64q-24 -26 -62 -26t-64 27t-26 63zM358 1529q0 36 27 62t61 26q36 0 62.5 -26t26.5 -62q0 -38 -26 -64q-24 -26 -63 -26q-37 0 -62.5 26.5t-25.5 63.5z" />
    <glyph glyph-name="Eth" unicode="&#xd0;" 
d="M897 514h-113q-37 0 -53 9t-16 30q0 25 23 37t75 12h225q66 0 87.5 -9t21.5 -32q0 -20 -21 -33.5t-55 -13.5h-80v-195q0 -28 3.5 -87.5t3.5 -82.5l8 -112q0 -30 -9 -46t-28 -16q-21 0 -34 19q-6 9 -10.5 24.5t-4.5 32.5l-9 129q-36 -98 -112 -151.5t-183 -53.5
q-203 0 -332.5 173t-129.5 454q0 300 129 480t342 180q90 0 159 -39.5t117 -116.5v33q0 48 12 70t39 22q25 0 36 -13.5t11 -43.5v-21l-4 -141q0 -23 1 -71.5t1 -74.5v-18q0 -39 -11.5 -59.5t-33.5 -20.5q-38 0 -51 85l-4 25q-23 143 -95 220.5t-181 77.5q-155 0 -259 -157
t-104 -398q0 -247 101.5 -404.5t254.5 -157.5q130 0 206.5 115t76.5 311v29zM618 1419q-117 0 -196.5 73.5t-79.5 169.5q0 13 5 18t15 7q17 0 27 -31.5t19 -44.5q23 -42 75 -64t135 -22q82 0 135 21t78 65q8 13 18.5 44.5t27.5 31.5q8 0 12 -5.5t6 -19.5q0 -95 -79 -169
t-198 -74z" />
    <glyph glyph-name="Ntilde" unicode="&#xd1;" 
d="M348 86h88q41 0 56.5 -10.5t15.5 -34.5q0 -22 -17 -31.5t-88 -9.5h-200q-64 0 -81.5 9t-17.5 34q0 21 17 32t53 11h76v1059h-76q-36 0 -54 9q-16 10 -16 32q0 24 22 36q24 11 77 11h82q39 0 60 -15q21 -13 48 -69l512 -1008l-6 1004h-86q-37 0 -56.5 10.5t-19.5 30.5
q0 24 25 35.5t84 11.5h246q24 0 38.5 -11.5t14.5 -31.5q0 -23 -17 -34t-53 -11h-76v-1059q0 -55 -14 -76.5t-47 -21.5q-25 0 -54 29q-28 31 -57 85l-487 957zM702 1570l35 -9l31 -3q51 0 75.5 47t37.5 47q8 0 13 -5q4 -2 5 -11q0 -59 -50 -114.5t-116 -55.5h-18q-14 3 -28 5
t-44 11l-104 31l-36 9l-30 3q-51 0 -75.5 -46t-37.5 -48q-9 0 -13.5 4.5t-6.5 13.5q0 57 51 113.5t117 56.5h15.5t23.5 -4q21 -3 51 -12z" />
    <glyph glyph-name="Ograve" unicode="&#xd2;" 
d="M229 621q0 -249 108 -404.5t279 -155.5q170 0 279 156t109 408q0 250 -105.5 400.5t-280.5 150.5t-282 -152t-107 -403zM1106 629q0 -309 -131 -481.5t-365 -172.5q-220 0 -351.5 169t-131.5 458q0 307 132 483.5t362 176.5q225 0 355 -169t130 -464zM684 1382l-260 227
l-22 21t-16 18q-9 14 -9 29q0 21 17 37t38 16q14 0 30.5 -11t41.5 -40l213 -273l9 -10l5 -6q0 -13 -3 -16.5t-13 -5.5q-12 0 -29 12z" />
    <glyph glyph-name="Oacute" unicode="&#xd3;" 
d="M229 621q0 -249 108 -404.5t279 -155.5q170 0 279 156t109 408q0 250 -105.5 400.5t-280.5 150.5t-282 -152t-107 -403zM1106 629q0 -309 -131 -481.5t-365 -172.5q-220 0 -351.5 169t-131.5 458q0 307 132 483.5t362 176.5q225 0 355 -169t130 -464zM549 1382l-3 -2
q-15 -12 -28 -12q-7 0 -12 5l-4 13v4l6 9l6 7l215 273q23 27 39.5 39t32.5 12q21 0 38 -15.5t17 -37.5q0 -14 -9 -29q-5 -6 -14 -15.5t-24 -23.5z" />
    <glyph glyph-name="Ocircumflex" unicode="&#xd4;" 
d="M229 621q0 -249 108 -404.5t279 -155.5q170 0 279 156t109 408q0 250 -105.5 400.5t-280.5 150.5t-282 -152t-107 -403zM1106 629q0 -309 -131 -481.5t-365 -172.5q-220 0 -351.5 169t-131.5 458q0 307 132 483.5t362 176.5q225 0 355 -169t130 -464zM649 1722
q10 0 16 -3t13 -14l194 -299l4 -6l1 -12q0 -9 -5.5 -14.5t-13.5 -5.5q-7 0 -11 2l-16 14l-210 221l-213 -221l-16 -14l-11 -2q-8 0 -12.5 5.5t-6.5 14.5l1 12q2 5 4 6l194 299q6 10 11 13.5t18 3.5h59z" />
    <glyph glyph-name="Otilde" unicode="&#xd5;" 
d="M229 621q0 -249 108 -404.5t279 -155.5q170 0 279 156t109 408q0 250 -105.5 400.5t-280.5 150.5t-282 -152t-107 -403zM1106 629q0 -309 -131 -481.5t-365 -172.5q-220 0 -351.5 169t-131.5 458q0 307 132 483.5t362 176.5q225 0 355 -169t130 -464zM702 1570l35 -9
l31 -3q51 0 75.5 47t37.5 47q8 0 13 -5q4 -2 5 -11q0 -59 -50 -114.5t-116 -55.5h-18q-14 3 -28 5t-44 11l-104 31l-36 9l-30 3q-51 0 -75.5 -46t-37.5 -48q-9 0 -13.5 4.5t-6.5 13.5q0 57 51 113.5t117 56.5h15.5t23.5 -4q21 -3 51 -12z" />
    <glyph glyph-name="Odieresis" unicode="&#xd6;" 
d="M229 621q0 -249 108 -404.5t279 -155.5q170 0 279 156t109 408q0 250 -105.5 400.5t-280.5 150.5t-282 -152t-107 -403zM1106 629q0 -309 -131 -481.5t-365 -172.5q-220 0 -351.5 169t-131.5 458q0 307 132 483.5t362 176.5q225 0 355 -169t130 -464zM705 1529
q0 34 27 61t63 27q35 0 61.5 -26t26.5 -62q0 -38 -26 -64q-24 -26 -62 -26t-64 27t-26 63zM358 1529q0 36 27 62t61 26q36 0 62.5 -26t26.5 -62q0 -38 -26 -64q-24 -26 -63 -26q-37 0 -62.5 26.5t-25.5 63.5z" />
    <glyph glyph-name="multiply" unicode="&#xd7;" 
d="M338 307l-4 -4q-20 -20 -37 -20q-21 0 -36 15.5t-15 39.5l3 16q3 7 19 23l275 274l-277 275l-6 6q-18 17 -18 33q0 20 15.5 36.5t37.5 16.5q10 0 18 -5q8 -2 23 -18l276 -274l275 274l6 7q17 18 33 18q21 0 37 -16.5t16 -38.5q0 -9 -4 -17l-19 -22l-274 -275l279 -278
l3 -4q21 -21 21 -37q0 -20 -16 -34.5t-39 -14.5q-13 0 -22 4t-20 17l-276 278z" />
    <glyph glyph-name="Oslash" unicode="&#xd8;" 
d="M883 1055l-471 -924q44 -35 92.5 -52.5t101.5 -17.5q178 0 288 153.5t110 408.5q0 132 -31.5 242.5t-89.5 189.5zM367 43l-58 -111q-6 -11 -14 -16q-6 -6 -19 -6q-15 0 -29 12q-11 13 -11 31l1 5l3 7l65 129q-89 82 -133.5 209t-44.5 305q0 306 129 480t354 174
q72 0 134 -16.5t122 -51.5l56 111q5 11 14 16.5t20 5.5q17 0 28 -11.5t11 -31.5l-1 -8l-1 -4l-67 -129q90 -83 135 -210t45 -304q0 -307 -129.5 -480.5t-355.5 -173.5q-72 0 -133 16.5t-121 51.5zM352 184l473 926q-27 17 -52 28.5t-56 21.5q-54 16 -109 16
q-165 0 -272 -154.5t-107 -400.5q0 -127 30 -234t93 -203z" />
    <glyph glyph-name="Ugrave" unicode="&#xd9;" 
d="M342 516q0 -241 65 -347t209 -106t208.5 106t64.5 347v629h-86q-36 0 -56 10q-18 11 -18 31q0 24 24.5 35.5t82.5 11.5h245q25 0 39.5 -11.5t14.5 -31.5q0 -22 -17.5 -33.5t-52.5 -11.5h-76v-645q0 -271 -90 -398t-283 -127q-192 0 -283 127t-91 398v645h-76
q-37 0 -53.5 9.5t-16.5 31.5q0 24 22 36q24 11 77 11h200q66 0 87.5 -9.5t21.5 -31.5q0 -20 -21 -33.5t-55 -13.5h-86v-629zM684 1382l-260 227l-22 21t-16 18q-9 14 -9 29q0 21 17 37t38 16q14 0 30.5 -11t41.5 -40l213 -273l9 -10l5 -6q0 -13 -3 -16.5t-13 -5.5
q-12 0 -29 12z" />
    <glyph glyph-name="Uacute" unicode="&#xda;" 
d="M342 516q0 -241 65 -347t209 -106t208.5 106t64.5 347v629h-86q-36 0 -56 10q-18 11 -18 31q0 24 24.5 35.5t82.5 11.5h245q25 0 39.5 -11.5t14.5 -31.5q0 -22 -17.5 -33.5t-52.5 -11.5h-76v-645q0 -271 -90 -398t-283 -127q-192 0 -283 127t-91 398v645h-76
q-37 0 -53.5 9.5t-16.5 31.5q0 24 22 36q24 11 77 11h200q66 0 87.5 -9.5t21.5 -31.5q0 -20 -21 -33.5t-55 -13.5h-86v-629zM549 1382l-3 -2q-15 -12 -28 -12q-7 0 -12 5l-4 13v4l6 9l6 7l215 273q23 27 39.5 39t32.5 12q21 0 38 -15.5t17 -37.5q0 -14 -9 -29
q-5 -6 -14 -15.5t-24 -23.5z" />
    <glyph glyph-name="Ucircumflex" unicode="&#xdb;" 
d="M342 516q0 -241 65 -347t209 -106t208.5 106t64.5 347v629h-86q-36 0 -56 10q-18 11 -18 31q0 24 24.5 35.5t82.5 11.5h245q25 0 39.5 -11.5t14.5 -31.5q0 -22 -17.5 -33.5t-52.5 -11.5h-76v-645q0 -271 -90 -398t-283 -127q-192 0 -283 127t-91 398v645h-76
q-37 0 -53.5 9.5t-16.5 31.5q0 24 22 36q24 11 77 11h200q66 0 87.5 -9.5t21.5 -31.5q0 -20 -21 -33.5t-55 -13.5h-86v-629zM649 1722q10 0 16 -3t13 -14l194 -299l4 -6l1 -12q0 -9 -5.5 -14.5t-13.5 -5.5q-7 0 -11 2l-16 14l-210 221l-213 -221l-16 -14l-11 -2
q-8 0 -12.5 5.5t-6.5 14.5l1 12q2 5 4 6l194 299q6 10 11 13.5t18 3.5h59z" />
    <glyph glyph-name="Udieresis" unicode="&#xdc;" 
d="M342 516q0 -241 65 -347t209 -106t208.5 106t64.5 347v629h-86q-36 0 -56 10q-18 11 -18 31q0 24 24.5 35.5t82.5 11.5h245q25 0 39.5 -11.5t14.5 -31.5q0 -22 -17.5 -33.5t-52.5 -11.5h-76v-645q0 -271 -90 -398t-283 -127q-192 0 -283 127t-91 398v645h-76
q-37 0 -53.5 9.5t-16.5 31.5q0 24 22 36q24 11 77 11h200q66 0 87.5 -9.5t21.5 -31.5q0 -20 -21 -33.5t-55 -13.5h-86v-629zM705 1529q0 34 27 61t63 27q35 0 61.5 -26t26.5 -62q0 -38 -26 -64q-24 -26 -62 -26t-64 27t-26 63zM358 1529q0 36 27 62t61 26q36 0 62.5 -26
t26.5 -62q0 -38 -26 -64q-24 -26 -63 -26q-37 0 -62.5 26.5t-25.5 63.5z" />
    <glyph glyph-name="Yacute" unicode="&#xdd;" 
d="M565 1147h-286q-41 0 -58 9q-14 9 -14 34q0 24 19 33.5t85 9.5h615q63 0 80.5 -9t17.5 -34q0 -23 -17 -33t-53 -10h-288v-1061h286q41 0 56.5 -10.5t15.5 -34.5q0 -22 -16 -31.5t-88 -9.5h-615q-63 0 -80.5 9t-17.5 34q0 20 16.5 31.5t52.5 11.5h289v1061zM526 1529
q0 36 28 65q30 28 67 28q36 0 64 -27t28 -66q0 -38 -27 -66t-65 -28q-39 0 -67 28t-28 66z" />
    <glyph glyph-name="Thorn" unicode="&#xde;" 
d="M594 -16q-74 15 -141 55q-103 64 -164 188l8 -143v-25q0 -35 -9 -51t-30 -16q-27 0 -39 18q-10 20 -10 84v240q0 65 9 91t34 26q35 0 79 -108l7 -17q54 -131 143.5 -198t210.5 -67q133 0 219 75t86 188q0 179 -336 296l-67 23q-203 72 -283 144.5t-80 181.5
q0 132 102.5 212.5t276.5 80.5q105 0 182.5 -35t118.5 -103v97q0 15 11 24.5t30 9.5q24 0 36.5 -18.5t12.5 -58.5v-293q0 -33 -11.5 -53.5t-31.5 -20.5q-39 0 -48 90q0 16 -2.5 31t-6.5 31q-26 104 -101.5 159.5t-189.5 55.5q-128 0 -201 -55t-73 -148q0 -138 334 -256
l18 -6q241 -84 324.5 -168.5t83.5 -218.5q0 -146 -114 -250q-58 -51 -128 -76t-158 -25l-49 2v-98l33 3l33 1q75 0 120.5 -45t45.5 -117q0 -71 -57 -116t-150 -45q-89 0 -180 30t-91 58q0 14 10 24.5t23 10.5t86 -29t121 -29q65 0 97 24.5t32 76.5q0 45 -32.5 68.5
t-94.5 23.5l-10 -1l-19 -1q-9 0 -14.5 6t-5.5 20v142z" />
    <glyph glyph-name="germandbls" unicode="&#xdf;" 
d="M213 0q-64 0 -82 9q-16 10 -16 34q0 20 16.5 31.5t52.5 11.5h121v875q0 148 84.5 224.5t251.5 76.5q144 0 229.5 -67.5t85.5 -180.5q0 -107 -69.5 -170.5t-200.5 -75.5q171 -24 261.5 -122t90.5 -257q0 -182 -117.5 -295.5t-306.5 -113.5q-71 0 -101 11t-30 36
q0 16 14.5 27.5t34.5 11.5l40 -3l42 -2q144 0 235 90t91 238q0 131 -72.5 213t-212.5 109l-68 7q-91 0 -91 44q0 29 97 44l5 1q127 18 193.5 70.5t66.5 134.5q0 80 -60 126t-171 46q-112 0 -168 -57t-56 -173v-897q0 -32 -15 -46q-14 -11 -77 -11h-14h-84z" />
    <glyph glyph-name="agrave" unicode="&#xe0;" 
d="M834 197v286q-142 0 -256 -21q-96 -18 -171 -51q-128 -54 -128 -165q0 -76 60.5 -126t156.5 -50q69 0 158.5 33t179.5 94zM834 98q-98 -57 -187 -86.5t-164 -29.5q-141 0 -223 70t-82 190q0 152 159 233q85 42 209 67t288 25v56q0 118 -57 177.5t-173 59.5
q-71 0 -116.5 -12.5t-79.5 -40.5q16 -14 24 -32q4 -8 6 -17.5t2 -22.5q0 -43 -29.5 -71.5t-72.5 -28.5q-41 0 -71 27q-27 27 -27 71q0 83 102 147t250 64q176 0 259 -86t83 -268v-350q0 -105 13.5 -132.5t49.5 -27.5q29 0 65 31.5t54 31.5q11 0 18.5 -8t8.5 -24
q0 -44 -50.5 -86.5t-117.5 -42.5q-49 0 -85 29q-33 29 -56 87zM684 1063l-260 227l-22 21t-16 18q-9 14 -9 29q0 21 17 37t38 16q14 0 30.5 -11t41.5 -40l213 -273l9 -10l5 -6q0 -13 -3 -16.5t-13 -5.5q-12 0 -29 12z" />
    <glyph glyph-name="aacute" unicode="&#xe1;" 
d="M834 197v286q-142 0 -256 -21q-96 -18 -171 -51q-128 -54 -128 -165q0 -76 60.5 -126t156.5 -50q69 0 158.5 33t179.5 94zM834 98q-98 -57 -187 -86.5t-164 -29.5q-141 0 -223 70t-82 190q0 152 159 233q85 42 209 67t288 25v56q0 118 -57 177.5t-173 59.5
q-71 0 -116.5 -12.5t-79.5 -40.5q16 -14 24 -32q4 -8 6 -17.5t2 -22.5q0 -43 -29.5 -71.5t-72.5 -28.5q-41 0 -71 27q-27 27 -27 71q0 83 102 147t250 64q176 0 259 -86t83 -268v-350q0 -105 13.5 -132.5t49.5 -27.5q29 0 65 31.5t54 31.5q11 0 18.5 -8t8.5 -24
q0 -44 -50.5 -86.5t-117.5 -42.5q-49 0 -85 29q-33 29 -56 87zM549 1063l-3 -2q-15 -12 -28 -12q-7 0 -12 5l-4 13v4l6 9l6 7l215 273q23 27 39.5 39t32.5 12q21 0 38 -15.5t17 -37.5q0 -14 -9 -29q-5 -6 -14 -15.5t-24 -23.5z" />
    <glyph glyph-name="acircumflex" unicode="&#xe2;" 
d="M834 197v286q-142 0 -256 -21q-96 -18 -171 -51q-128 -54 -128 -165q0 -76 60.5 -126t156.5 -50q69 0 158.5 33t179.5 94zM834 98q-98 -57 -187 -86.5t-164 -29.5q-141 0 -223 70t-82 190q0 152 159 233q85 42 209 67t288 25v56q0 118 -57 177.5t-173 59.5
q-71 0 -116.5 -12.5t-79.5 -40.5q16 -14 24 -32q4 -8 6 -17.5t2 -22.5q0 -43 -29.5 -71.5t-72.5 -28.5q-41 0 -71 27q-27 27 -27 71q0 83 102 147t250 64q176 0 259 -86t83 -268v-350q0 -105 13.5 -132.5t49.5 -27.5q29 0 65 31.5t54 31.5q11 0 18.5 -8t8.5 -24
q0 -44 -50.5 -86.5t-117.5 -42.5q-49 0 -85 29q-33 29 -56 87zM649 1403q10 0 16 -3t13 -14l194 -299l4 -6l1 -12q0 -9 -5.5 -14.5t-13.5 -5.5q-7 0 -11 2l-16 14l-210 221l-213 -221l-16 -14l-11 -2q-8 0 -12.5 5.5t-6.5 14.5l1 12q2 5 4 6l194 299q6 10 11 13.5t18 3.5h59
z" />
    <glyph glyph-name="atilde" unicode="&#xe3;" 
d="M834 197v286q-142 0 -256 -21q-96 -18 -171 -51q-128 -54 -128 -165q0 -76 60.5 -126t156.5 -50q69 0 158.5 33t179.5 94zM834 98q-98 -57 -187 -86.5t-164 -29.5q-141 0 -223 70t-82 190q0 152 159 233q85 42 209 67t288 25v56q0 118 -57 177.5t-173 59.5
q-71 0 -116.5 -12.5t-79.5 -40.5q16 -14 24 -32q4 -8 6 -17.5t2 -22.5q0 -43 -29.5 -71.5t-72.5 -28.5q-41 0 -71 27q-27 27 -27 71q0 83 102 147t250 64q176 0 259 -86t83 -268v-350q0 -105 13.5 -132.5t49.5 -27.5q29 0 65 31.5t54 31.5q11 0 18.5 -8t8.5 -24
q0 -44 -50.5 -86.5t-117.5 -42.5q-49 0 -85 29q-33 29 -56 87zM702 1251l35 -9l31 -3q51 0 75.5 47t37.5 47q8 0 13 -5q4 -2 5 -11q0 -59 -50 -114.5t-116 -55.5h-18q-14 3 -28 5t-44 11l-104 31l-36 9l-30 3q-51 0 -75.5 -46t-37.5 -48q-9 0 -13.5 4.5t-6.5 13.5
q0 57 51 113.5t117 56.5h15.5t23.5 -4q21 -3 51 -12z" />
    <glyph glyph-name="adieresis" unicode="&#xe4;" 
d="M834 197v286q-142 0 -256 -21q-96 -18 -171 -51q-128 -54 -128 -165q0 -76 60.5 -126t156.5 -50q69 0 158.5 33t179.5 94zM834 98q-98 -57 -187 -86.5t-164 -29.5q-141 0 -223 70t-82 190q0 152 159 233q85 42 209 67t288 25v56q0 118 -57 177.5t-173 59.5
q-71 0 -116.5 -12.5t-79.5 -40.5q16 -14 24 -32q4 -8 6 -17.5t2 -22.5q0 -43 -29.5 -71.5t-72.5 -28.5q-41 0 -71 27q-27 27 -27 71q0 83 102 147t250 64q176 0 259 -86t83 -268v-350q0 -105 13.5 -132.5t49.5 -27.5q29 0 65 31.5t54 31.5q11 0 18.5 -8t8.5 -24
q0 -44 -50.5 -86.5t-117.5 -42.5q-49 0 -85 29q-33 29 -56 87zM705 1210q0 34 27 61t63 27q35 0 61.5 -26t26.5 -62q0 -38 -26 -64q-24 -26 -62 -26t-64 27t-26 63zM358 1210q0 36 27 62t61 26q36 0 62.5 -26t26.5 -62q0 -38 -26 -64q-24 -26 -63 -26q-37 0 -62.5 26.5
t-25.5 63.5z" />
    <glyph glyph-name="aring" unicode="&#xe5;" 
d="M362 1243q0 98 68 166t166 68q96 0 164.5 -68.5t68.5 -165.5t-68 -165t-165 -68q-98 0 -166 68t-68 165zM442 1243q0 -64 45 -107.5t109 -43.5q65 0 109.5 43.5t44.5 107.5q0 62 -45.5 107t-108.5 45q-62 0 -108 -44.5t-46 -107.5zM834 197v286q-142 0 -256 -21
q-96 -18 -171 -51q-128 -54 -128 -165q0 -76 60.5 -126t156.5 -50q69 0 158.5 33t179.5 94zM834 98q-98 -57 -187 -86.5t-164 -29.5q-141 0 -223 70t-82 190q0 152 159 233q85 42 209 67t288 25v56q0 118 -57 177.5t-173 59.5q-71 0 -116.5 -12.5t-79.5 -40.5q16 -14 24 -32
q4 -8 6 -17.5t2 -22.5q0 -43 -29.5 -71.5t-72.5 -28.5q-41 0 -71 27q-27 27 -27 71q0 83 102 147t250 64q176 0 259 -86t83 -268v-350q0 -105 13.5 -132.5t49.5 -27.5q29 0 65 31.5t54 31.5q12 0 18.5 -7t8.5 -23q0 -45 -50 -88t-118 -43q-49 0 -85 29q-33 29 -56 87z" />
    <glyph glyph-name="ae" unicode="&#xe6;" 
d="M604 205q-30 -106 -100 -164.5t-164 -58.5q-96 0 -153.5 70.5t-57.5 189.5q0 145 101 222t325 103v56q0 126 -33.5 180.5t-111.5 54.5q-44 0 -72.5 -17.5t-34.5 -49.5q14 -11 21.5 -25.5t7.5 -32.5q0 -34 -26 -57q-12 -11 -27 -17t-35 -6q-38 0 -58 24t-20 66
q0 81 75 141t181 60q78 0 132 -44.5t69 -121.5q27 80 82 123t126 43q113 0 189 -116.5t76 -299.5q0 -37 -16 -52q-16 -13 -62 -13h-365v-41q0 -150 50.5 -251t123.5 -101q34 0 66 18t53 49l5 7q50 79 85 79q13 0 23 -11.5t10 -27.5q0 -56 -78 -129t-164 -73q-80 0 -138 57.5
t-85 165.5zM655 551h342q0 67 -15 124.5t-40 101.5q-45 81 -115 81q-62 0 -110.5 -83.5t-61.5 -223.5zM553 385v98q-175 -16 -249.5 -71t-74.5 -166q0 -77 36 -126.5t93 -49.5q81 0 138 90t57 225z" />
    <glyph glyph-name="ccedilla" unicode="&#xe7;" 
d="M594 -18q-158 15 -268 134q-125 137 -125 347q0 212 126 346.5t328 134.5q128 0 217 -80.5t89 -195.5q0 -63 -30.5 -102.5t-82.5 -39.5q-39 0 -67.5 26t-28.5 62q0 48 41 77.5t41 51.5q0 41 -56.5 77t-134.5 36q-146 0 -244 -112t-98 -281q0 -171 95 -281t243 -110
q71 0 134 30q31 16 55 36t44 50l33 51q36 60 64 60q15 0 27 -12.5t12 -30.5q0 -90 -114 -183q-56 -46 -117 -69.5t-130 -23.5v-101l33 3l33 1q75 0 120.5 -45t45.5 -117q0 -71 -57 -116t-150 -45q-89 0 -180 30t-91 58q0 14 10 24.5t23 10.5t86 -29t121 -29q65 0 97 24.5
t32 76.5q0 45 -32.5 68.5t-94.5 23.5l-10 -1l-19 -1q-9 0 -14.5 6t-5.5 20v140z" />
    <glyph glyph-name="egrave" unicode="&#xe8;" 
d="M274 551h701q-15 139 -110 222q-46 41 -105 62t-131 21q-133 0 -230.5 -83.5t-124.5 -221.5zM268 462q0 -176 99 -287q96 -105 262 -105q122 0 236 75.5t130 75.5q13 0 22.5 -9t10.5 -26q0 -57 -128 -130.5t-271 -73.5q-202 0 -332.5 135.5t-130.5 345.5t132.5 345.5
t334.5 135.5q189 0 314.5 -116.5t125.5 -290.5q0 -43 -23 -58.5t-106 -15.5zM684 1063l-260 227l-22 21t-16 18q-9 14 -9 29q0 21 17 37t38 16q14 0 30.5 -11t41.5 -40l213 -273l9 -10l5 -6q0 -13 -3 -16.5t-13 -5.5q-12 0 -29 12z" />
    <glyph glyph-name="eacute" unicode="&#xe9;" 
d="M274 551h701q-15 139 -110 222q-46 41 -105 62t-131 21q-133 0 -230.5 -83.5t-124.5 -221.5zM268 462q0 -176 99 -287q96 -105 262 -105q122 0 236 75.5t130 75.5q13 0 22.5 -9t10.5 -26q0 -57 -128 -130.5t-271 -73.5q-202 0 -332.5 135.5t-130.5 345.5t132.5 345.5
t334.5 135.5q189 0 314.5 -116.5t125.5 -290.5q0 -43 -23 -58.5t-106 -15.5zM549 1063l-3 -2q-15 -12 -28 -12q-7 0 -12 5l-4 13v4l6 9l6 7l215 273q23 27 39.5 39t32.5 12q21 0 38 -15.5t17 -37.5q0 -14 -9 -29q-5 -6 -14 -15.5t-24 -23.5z" />
    <glyph glyph-name="ecircumflex" unicode="&#xea;" 
d="M274 551h701q-15 139 -110 222q-46 41 -105 62t-131 21q-133 0 -230.5 -83.5t-124.5 -221.5zM268 462q0 -176 99 -287q96 -105 262 -105q122 0 236 75.5t130 75.5q13 0 22.5 -9t10.5 -26q0 -57 -128 -130.5t-271 -73.5q-202 0 -332.5 135.5t-130.5 345.5t132.5 345.5
t334.5 135.5q189 0 314.5 -116.5t125.5 -290.5q0 -43 -23 -58.5t-106 -15.5zM649 1403q10 0 16 -3t13 -14l194 -299l4 -6l1 -12q0 -9 -5.5 -14.5t-13.5 -5.5q-7 0 -11 2l-16 14l-210 221l-213 -221l-16 -14l-11 -2q-8 0 -12.5 5.5t-6.5 14.5l1 12q2 5 4 6l194 299
q6 10 11 13.5t18 3.5h59z" />
    <glyph glyph-name="edieresis" unicode="&#xeb;" 
d="M274 551h701q-15 139 -110 222q-46 41 -105 62t-131 21q-133 0 -230.5 -83.5t-124.5 -221.5zM268 462q0 -176 99 -287q96 -105 262 -105q122 0 236 75.5t130 75.5q13 0 22.5 -9t10.5 -26q0 -57 -128 -130.5t-271 -73.5q-202 0 -332.5 135.5t-130.5 345.5t132.5 345.5
t334.5 135.5q189 0 314.5 -116.5t125.5 -290.5q0 -43 -23 -58.5t-106 -15.5zM705 1210q0 34 27 61t63 27q35 0 61.5 -26t26.5 -62q0 -38 -26 -64q-24 -26 -62 -26t-64 27t-26 63zM358 1210q0 36 27 62t61 26q36 0 62.5 -26t26.5 -62q0 -38 -26 -64q-24 -26 -63 -26
q-37 0 -62.5 26.5t-25.5 63.5z" />
    <glyph glyph-name="igrave" unicode="&#xec;" 
d="M592 838h-262q-25 0 -35 1.5t-20 6.5q-15 9 -15 31q0 24 22 36q24 11 76 11h297q20 0 28 -9q7 -11 7 -45v-14v-770h266q41 0 56.5 -10.5t15.5 -34.5q0 -22 -17 -31.5t-89 -9.5h-555q-64 0 -81.5 9t-17.5 34q0 21 17 32t53 11h254v752zM696 1063l-260 227l-22 21t-16 18
q-9 14 -9 29q0 21 17 37t38 16q14 0 30.5 -11t41.5 -40l213 -273l9 -10l5 -6q0 -13 -3 -16.5t-13 -5.5q-12 0 -29 12z" />
    <glyph glyph-name="iacute" unicode="&#xed;" 
d="M592 838h-262q-25 0 -35 1.5t-20 6.5q-15 9 -15 31q0 24 22 36q24 11 76 11h297q20 0 28 -9q7 -11 7 -45v-14v-770h266q41 0 56.5 -10.5t15.5 -34.5q0 -22 -17 -31.5t-89 -9.5h-555q-64 0 -81.5 9t-17.5 34q0 21 17 32t53 11h254v752zM561 1063l-3 -2q-15 -12 -28 -12
q-7 0 -12 5l-4 13v4l6 9l6 7l215 273q23 27 39.5 39t32.5 12q21 0 38 -15.5t17 -37.5q0 -14 -9 -29q-5 -6 -14 -15.5t-24 -23.5z" />
    <glyph glyph-name="icircumflex" unicode="&#xee;" 
d="M592 838h-262q-25 0 -35 1.5t-20 6.5q-15 9 -15 31q0 24 22 36q24 11 76 11h297q20 0 28 -9q7 -11 7 -45v-14v-770h266q41 0 56.5 -10.5t15.5 -34.5q0 -22 -17 -31.5t-89 -9.5h-555q-64 0 -81.5 9t-17.5 34q0 21 17 32t53 11h254v752zM661 1403q10 0 16 -3t13 -14
l194 -299l4 -6l1 -12q0 -9 -5.5 -14.5t-13.5 -5.5q-7 0 -11 2l-16 14l-210 221l-213 -221l-16 -14l-11 -2q-8 0 -12.5 5.5t-6.5 14.5l1 12q2 5 4 6l194 299q6 10 11 13.5t18 3.5h59z" />
    <glyph glyph-name="idieresis" unicode="&#xef;" 
d="M592 838h-262q-25 0 -35 1.5t-20 6.5q-15 9 -15 31q0 24 22 36q24 11 76 11h297q20 0 28 -9q7 -11 7 -45v-14v-770h266q41 0 56.5 -10.5t15.5 -34.5q0 -22 -17 -31.5t-89 -9.5h-555q-64 0 -81.5 9t-17.5 34q0 21 17 32t53 11h254v752zM717 1210q0 34 27 61t63 27
q35 0 61.5 -26t26.5 -62q0 -38 -26 -64q-24 -26 -62 -26t-64 27t-26 63zM370 1210q0 36 27 62t61 26q36 0 62.5 -26t26.5 -62q0 -38 -26 -64q-24 -26 -63 -26q-37 0 -62.5 26.5t-25.5 63.5z" />
    <glyph glyph-name="eth" unicode="&#xf0;" 
d="M1075 -78q0 80 -117.5 133.5t-312.5 53.5q-187 0 -290 -50t-103 -141q0 -80 111.5 -130t298.5 -50t300 51t113 133zM328 621q0 -99 66 -168.5t165 -69.5q102 0 165.5 66.5t63.5 171.5q0 106 -63.5 171.5t-165.5 65.5q-100 0 -165.5 -67t-65.5 -170zM815 829
q56 59 108.5 87t106.5 28q61 0 96 -32q37 -31 37 -83q0 -44 -29 -74q-27 -30 -71 -30q-43 0 -69.5 23.5t-26.5 58.5q0 12 2 19l12 30q-34 -7 -69.5 -29t-55.5 -53q14 -33 22 -71q3 -19 5 -37t2 -39q0 -135 -93 -230.5t-227 -95.5q-58 0 -111 15t-94 44q-21 -24 -33 -48
q-10 -27 -10 -54q0 -23 6.5 -48.5t22.5 -57.5q57 15 146 26q36 4 84 7t92 3q238 0 375 -73t137 -197q0 -123 -141.5 -195.5t-393.5 -72.5q-239 0 -369.5 69t-130.5 197q0 57 30 108t91 91q-20 37 -31 70q-4 13 -7 30.5t-3 30.5q0 43 17 86q9 21 22.5 44t30.5 46
q-35 43 -51 86q-15 45 -15 108q0 141 94.5 234.5t237.5 93.5q76 0 142 -29t112 -86zM618 1100q-117 0 -196.5 73.5t-79.5 169.5q0 13 5 18t15 7q17 0 27 -31.5t19 -44.5q23 -42 75 -64t135 -22q82 0 135 21t78 65q8 13 18.5 44.5t27.5 31.5q8 0 12 -5.5t6 -19.5
q0 -95 -79 -169t-198 -74z" />
    <glyph glyph-name="ntilde" unicode="&#xf1;" 
d="M258 838h-80q-25 0 -35 1.5t-19 6.5q-15 9 -15 31q0 24 22 36q24 11 76 11h108q20 0 28 -9q7 -11 7 -45v-14v-111q85 97 182.5 146t204.5 49q137 0 195.5 -75t58.5 -275v-504h84q39 0 54.5 -11t15.5 -36q0 -20 -18 -31q-19 -8 -78 -8h-211q-65 0 -86 9q-19 10 -19 34
t16 33.5t56 9.5h88v532q0 132 -41 185t-139 53q-93 0 -184.5 -54t-172.5 -157v-559h84q41 0 56.5 -10.5t15.5 -34.5q0 -22 -16 -31.5t-88 -9.5h-201q-64 0 -82 9q-16 10 -16 34q0 20 16.5 31.5t52.5 11.5h80v752zM702 1251l35 -9l31 -3q51 0 75.5 47t37.5 47q8 0 13 -5
q4 -2 5 -11q0 -59 -50 -114.5t-116 -55.5h-18q-14 3 -28 5t-44 11l-104 31l-36 9l-30 3q-51 0 -75.5 -46t-37.5 -48q-9 0 -13.5 4.5t-6.5 13.5q0 57 51 113.5t117 56.5h15.5t23.5 -4q21 -3 51 -12z" />
    <glyph glyph-name="ograve" unicode="&#xf2;" 
d="M256 463q0 -173 99.5 -283t262.5 -110t263 109t100 284q0 174 -100 283.5t-263 109.5q-161 0 -261.5 -108.5t-100.5 -284.5zM158 463q0 216 126.5 348.5t333.5 132.5t334 -132t127 -349q0 -216 -126.5 -348.5t-334.5 -132.5q-206 0 -333 132t-127 349zM684 1063l-260 227
l-22 21t-16 18q-9 14 -9 29q0 21 17 37t38 16q14 0 30.5 -11t41.5 -40l213 -273l9 -10l5 -6q0 -13 -3 -16.5t-13 -5.5q-12 0 -29 12z" />
    <glyph glyph-name="oacute" unicode="&#xf3;" 
d="M256 463q0 -173 99.5 -283t262.5 -110t263 109t100 284q0 174 -100 283.5t-263 109.5q-161 0 -261.5 -108.5t-100.5 -284.5zM158 463q0 216 126.5 348.5t333.5 132.5t334 -132t127 -349q0 -216 -126.5 -348.5t-334.5 -132.5q-206 0 -333 132t-127 349zM549 1063l-3 -2
q-15 -12 -28 -12q-7 0 -12 5l-4 13v4l6 9l6 7l215 273q23 27 39.5 39t32.5 12q21 0 38 -15.5t17 -37.5q0 -14 -9 -29q-5 -6 -14 -15.5t-24 -23.5z" />
    <glyph glyph-name="ocircumflex" unicode="&#xf4;" 
d="M256 463q0 -173 99.5 -283t262.5 -110t263 109t100 284q0 174 -100 283.5t-263 109.5q-161 0 -261.5 -108.5t-100.5 -284.5zM158 463q0 216 126.5 348.5t333.5 132.5t334 -132t127 -349q0 -216 -126.5 -348.5t-334.5 -132.5q-206 0 -333 132t-127 349zM649 1403
q10 0 16 -3t13 -14l194 -299l4 -6l1 -12q0 -9 -5.5 -14.5t-13.5 -5.5q-7 0 -11 2l-16 14l-210 221l-213 -221l-16 -14l-11 -2q-8 0 -12.5 5.5t-6.5 14.5l1 12q2 5 4 6l194 299q6 10 11 13.5t18 3.5h59z" />
    <glyph glyph-name="otilde" unicode="&#xf5;" 
d="M256 463q0 -173 99.5 -283t262.5 -110t263 109t100 284q0 174 -100 283.5t-263 109.5q-161 0 -261.5 -108.5t-100.5 -284.5zM158 463q0 216 126.5 348.5t333.5 132.5t334 -132t127 -349q0 -216 -126.5 -348.5t-334.5 -132.5q-206 0 -333 132t-127 349zM702 1251l35 -9
l31 -3q51 0 75.5 47t37.5 47q8 0 13 -5q4 -2 5 -11q0 -59 -50 -114.5t-116 -55.5h-18q-14 3 -28 5t-44 11l-104 31l-36 9l-30 3q-51 0 -75.5 -46t-37.5 -48q-9 0 -13.5 4.5t-6.5 13.5q0 57 51 113.5t117 56.5h15.5t23.5 -4q21 -3 51 -12z" />
    <glyph glyph-name="odieresis" unicode="&#xf6;" 
d="M256 463q0 -173 99.5 -283t262.5 -110t263 109t100 284q0 174 -100 283.5t-263 109.5q-161 0 -261.5 -108.5t-100.5 -284.5zM158 463q0 216 126.5 348.5t333.5 132.5t334 -132t127 -349q0 -216 -126.5 -348.5t-334.5 -132.5q-206 0 -333 132t-127 349zM705 1210
q0 34 27 61t63 27q35 0 61.5 -26t26.5 -62q0 -38 -26 -64q-24 -26 -62 -26t-64 27t-26 63zM358 1210q0 36 27 62t61 26q36 0 62.5 -26t26.5 -62q0 -38 -26 -64q-24 -26 -63 -26q-37 0 -62.5 26.5t-25.5 63.5z" />
    <glyph glyph-name="divide" unicode="&#xf7;" 
d="M614 403q39 0 65 -24.5t26 -63.5q0 -34 -28 -62q-28 -26 -63 -26q-34 0 -60 26t-26 60q0 38 24 65q25 25 62 25zM614 1032q39 0 65 -24.5t26 -63.5q0 -34 -28 -62q-28 -26 -63 -26q-34 0 -60 25.5t-26 60.5q0 38 24 65q25 25 62 25zM201 584q-37 0 -48.5 9t-11.5 38
q0 28 13.5 40.5t46.5 12.5h829q37 0 49.5 -9.5t12.5 -37.5q0 -27 -14.5 -40t-47.5 -13h-829z" />
    <glyph glyph-name="oslash" unicode="&#xf8;" 
d="M375 158l426 653q-38 22 -85 34q-20 5 -45 8t-53 3q-161 0 -261.5 -108.5t-100.5 -284.5q0 -88 30 -167t89 -138zM864 764l-428 -653q41 -20 88 -31q21 -4 45.5 -7t48.5 -3q163 0 263 109t100 284q0 85 -29 161.5t-88 139.5zM385 33l-55 -84q-6 -9 -15.5 -15t-17.5 -8
q-18 0 -29.5 11.5t-11.5 27.5q0 10 2 15l7 13l57 85q-78 63 -121 164q-21 51 -32 106t-11 115q0 216 126.5 348.5t333.5 132.5q61 0 119 -12.5t115 -40.5l55 86q5 8 15 14t18 6q18 0 29.5 -11t11.5 -28l-2 -13l-6 -11l-58 -88q77 -62 121 -165q21 -50 32 -103.5t11 -114.5
q0 -215 -126 -348t-335 -133q-61 0 -119 13q-31 6 -57.5 15t-56.5 23z" />
    <glyph glyph-name="ugrave" unicode="&#xf9;" 
d="M248 838h-84q-38 0 -54 10.5t-16 36.5q0 21 18.5 30t80.5 9h120q20 0 28 -9q7 -11 7 -45v-14v-551q0 -131 40 -183t134 -52q90 0 179 58t173 173v537h-83q-41 0 -56.5 9.5t-15.5 35.5q0 22 16.5 31.5t87.5 9.5h115q20 0 28 -9q7 -11 7 -45v-14v-770h80q36 0 52.5 -9.5
t16.5 -29.5q0 -24 -22.5 -35.5t-75.5 -11.5h-109q-19 0 -27 9q-7 11 -7 44v15v131q-84 -105 -179 -160t-198 -55q-138 0 -197 75.5t-59 276.5v502zM641 1063l-260 227l-22 21t-16 18q-9 14 -9 29q0 21 17 37t38 16q14 0 30.5 -11t41.5 -40l213 -273l9 -10l5 -6
q0 -13 -3 -16.5t-13 -5.5q-12 0 -29 12z" />
    <glyph glyph-name="uacute" unicode="&#xfa;" 
d="M248 838h-84q-38 0 -54 10.5t-16 36.5q0 21 18.5 30t80.5 9h120q20 0 28 -9q7 -11 7 -45v-14v-551q0 -131 40 -183t134 -52q90 0 179 58t173 173v537h-83q-41 0 -56.5 9.5t-15.5 35.5q0 22 16.5 31.5t87.5 9.5h115q20 0 28 -9q7 -11 7 -45v-14v-770h80q36 0 52.5 -9.5
t16.5 -29.5q0 -24 -22.5 -35.5t-75.5 -11.5h-109q-19 0 -27 9q-7 11 -7 44v15v131q-84 -105 -179 -160t-198 -55q-138 0 -197 75.5t-59 276.5v502zM506 1063l-3 -2q-15 -12 -28 -12q-7 0 -12 5l-4 13v4l6 9l6 7l215 273q23 27 39.5 39t32.5 12q21 0 38 -15.5t17 -37.5
q0 -14 -9 -29q-5 -6 -14 -15.5t-24 -23.5z" />
    <glyph glyph-name="ucircumflex" unicode="&#xfb;" 
d="M248 838h-84q-38 0 -54 10.5t-16 36.5q0 21 18.5 30t80.5 9h120q20 0 28 -9q7 -11 7 -45v-14v-551q0 -131 40 -183t134 -52q90 0 179 58t173 173v537h-83q-41 0 -56.5 9.5t-15.5 35.5q0 22 16.5 31.5t87.5 9.5h115q20 0 28 -9q7 -11 7 -45v-14v-770h80q36 0 52.5 -9.5
t16.5 -29.5q0 -24 -22.5 -35.5t-75.5 -11.5h-109q-19 0 -27 9q-7 11 -7 44v15v131q-84 -105 -179 -160t-198 -55q-138 0 -197 75.5t-59 276.5v502zM606 1403q10 0 16 -3t13 -14l194 -299l4 -6l1 -12q0 -9 -5.5 -14.5t-13.5 -5.5q-7 0 -11 2l-16 14l-210 221l-213 -221
l-16 -14l-11 -2q-8 0 -12.5 5.5t-6.5 14.5l1 12q2 5 4 6l194 299q6 10 11 13.5t18 3.5h59z" />
    <glyph glyph-name="udieresis" unicode="&#xfc;" 
d="M248 838h-84q-38 0 -54 10.5t-16 36.5q0 21 18.5 30t80.5 9h120q20 0 28 -9q7 -11 7 -45v-14v-551q0 -131 40 -183t134 -52q90 0 179 58t173 173v537h-83q-41 0 -56.5 9.5t-15.5 35.5q0 22 16.5 31.5t87.5 9.5h115q20 0 28 -9q7 -11 7 -45v-14v-770h80q36 0 52.5 -9.5
t16.5 -29.5q0 -24 -22.5 -35.5t-75.5 -11.5h-109q-19 0 -27 9q-7 11 -7 44v15v131q-84 -105 -179 -160t-198 -55q-138 0 -197 75.5t-59 276.5v502zM662 1210q0 34 27 61t63 27q35 0 61.5 -26t26.5 -62q0 -38 -26 -64q-24 -26 -62 -26t-64 27t-26 63zM315 1210q0 36 27 62
t61 26q36 0 62.5 -26t26.5 -62q0 -38 -26 -64q-24 -26 -63 -26q-37 0 -62.5 26.5t-25.5 63.5z" />
    <glyph glyph-name="yacute" unicode="&#xfd;" 
d="M592 838h-262q-25 0 -35 1.5t-20 6.5q-15 9 -15 31q0 24 22 36q24 11 76 11h297q20 0 28 -9q7 -11 7 -45v-14v-770h266q41 0 56.5 -10.5t15.5 -34.5q0 -22 -17 -31.5t-89 -9.5h-555q-64 0 -81.5 9t-17.5 34q0 21 17 32t53 11h254v752z" />
    <glyph glyph-name="thorn" unicode="&#xfe;" 
d="M594 -12q-35 5 -67.5 15.5t-63.5 28.5q-93 49 -139 136l2 -113v-10q0 -29 -9 -42t-28 -13q-25 0 -36 21t-11 65v198q0 58 10.5 81.5t36.5 23.5q22 0 40 -47q4 -12 7.5 -20.5t9.5 -20.5q54 -111 133 -166q40 -27 85.5 -41t99.5 -14q112 0 180.5 48t68.5 130
q0 131 -323 212l-29 7q-203 48 -259 97t-56 134q0 109 88.5 177.5t230.5 68.5q104 0 178 -31t119 -94l-6 51v13q0 22 9.5 33.5t29.5 11.5q24 0 34.5 -20t10.5 -66v-137q0 -54 -6.5 -70.5t-26.5 -16.5q-30 0 -51 60l-12 32q-30 74 -98 111t-171 37q-105 0 -165 -39.5
t-60 -111.5q0 -96 229 -150l87 -20q212 -51 285 -113.5t73 -173.5q0 -117 -98 -192.5t-256 -75.5l-23 1v-104l33 3l33 1q75 0 120.5 -45t45.5 -117q0 -71 -57 -116t-150 -45q-89 0 -180 30t-91 58q0 14 10 24.5t23 10.5t86 -29t121 -29q65 0 97 24.5t32 76.5
q0 45 -32.5 68.5t-94.5 23.5l-10 -1l-19 -1q-9 0 -14.5 6t-5.5 20v146z" />
    <glyph glyph-name="ydieresis" unicode="&#xff;" 
d="M252 838h-84q-38 0 -54 10.5t-16 36.5q0 21 18.5 30t80.5 9h209q70 0 88 -9t18 -32q0 -24 -17 -34.5t-57 -10.5h-80l289 -709l240 709h-84q-41 0 -56.5 9.5t-15.5 35.5q0 22 17.5 31.5t89.5 9.5h198q65 0 82 -9.5t17 -33.5q0 -23 -17.5 -33t-52.5 -10h-80l-268 -781
q-90 -265 -163.5 -336t-193.5 -71q-96 0 -169.5 67t-73.5 156q0 63 36.5 104t92.5 41q45 0 74.5 -24t29.5 -64q0 -39 -28 -66t-78 -36v-12q0 -37 33.5 -61.5t89.5 -24.5q79 0 130.5 59t102.5 221zM705 1210q0 34 27 61t63 27q35 0 61.5 -26t26.5 -62q0 -38 -26 -64
q-24 -26 -62 -26t-64 27t-26 63zM358 1210q0 36 27 62t61 26q36 0 62.5 -26t26.5 -62q0 -38 -26 -64q-24 -26 -63 -26q-37 0 -62.5 26.5t-25.5 63.5z" />
    <glyph glyph-name="breve" unicode="&#x2d8;" 
d="M618 1100q-117 0 -196.5 73.5t-79.5 169.5q0 13 5 18t15 7q17 0 27 -31.5t19 -44.5q23 -42 75 -64t135 -22q82 0 135 21t78 65q8 13 18.5 44.5t27.5 31.5q8 0 12 -5.5t6 -19.5q0 -95 -79 -169t-198 -74z" />
    <glyph glyph-name="dotaccent" unicode="&#x2d9;" 
d="M526 1210q0 36 28 65q30 28 67 28q36 0 64 -27t28 -66q0 -38 -27 -66t-65 -28q-39 0 -67 28t-28 66z" />
    <glyph glyph-name="dotlessi" unicode="&#x131;" 
d="M592 838h-262q-25 0 -35 1.5t-20 6.5q-15 9 -15 31q0 24 22 36q24 11 76 11h297q20 0 28 -9q7 -11 7 -45v-14v-770h266q41 0 56.5 -10.5t15.5 -34.5q0 -22 -17 -31.5t-89 -9.5h-555q-64 0 -81.5 9t-17.5 34q0 21 17 32t53 11h254v752z" />
    <glyph glyph-name="ring" unicode="&#x2da;" 
d="M467 1270q0 -65 45 -109.5t109 -44.5t108.5 44.5t44.5 109.5q0 61 -45 106t-108 45q-65 0 -109.5 -44t-44.5 -107zM387 1270q0 98 67.5 165.5t166.5 67.5q96 0 164.5 -68t68.5 -165q0 -95 -68.5 -164.5t-164.5 -69.5q-98 0 -166 68t-68 166z" />
    <glyph glyph-name="ogonek" unicode="&#x2db;" 
d="M723 31q-92 -70 -138 -137t-46 -138q0 -54 29 -86t77 -32q46 0 86 37l31 27q5 4 12 9q6 0 9 -3t3 -9q0 -37 -62 -87t-134 -50q-66 0 -110 42.5t-44 106.5q0 78 63 162.5t181 157.5h43z" />
    <glyph glyph-name="caron" unicode="&#x2c7;" 
d="M590 1053q-12 0 -18 3l-11 13l-194 301l-4 6l-1 10q0 9 5.5 15t13.5 6l11 -3l16 -13l213 -222l210 222l16 13q5 3 11 3q7 0 12.5 -5t6.5 -16l-1 -10q-2 -5 -4 -6l-194 -301l-13 -14l-16 -2h-59z" />
    <glyph glyph-name="Lslash" unicode="&#x141;" 
d="M217 0q-54 0 -76 11t-22 36q0 21 15 30t54 9h84v446l-209 -145q-6 -6 -15 -9l-13 -3q-16 0 -26.5 11.5t-10.5 27.5q0 9 6 19t21 22l247 172v520h-84q-36 0 -52.5 10t-16.5 33q0 24 17 33.5t81 9.5h289q65 0 82.5 -9t17.5 -34q0 -23 -17 -33t-52 -10h-166v-451l394 274
l20 11l16 4q15 0 26 -11t11 -28q0 -9 -5 -18t-17 -18l-445 -312v-514h626l13 195l2 31q0 80 17.5 124.5t43.5 44.5q20 0 31 -18q10 -20 10 -60l-1 -27l-1 -18l-14 -233q0 -46 -7 -72.5t-19 -36.5q-19 -14 -130 -14h-725z" />
    <glyph glyph-name="lslash" unicode="&#x142;" 
d="M575 1145h-262q-35 0 -53 9q-16 10 -16 32q0 24 22 36q24 11 76 11h297q18 0 24 -6t9 -37v-25v-424l180 123q21 15 35 17q15 0 27 -11.5t12 -27.5q0 -14 -6.5 -24t-22.5 -21l-225 -156v-555h266q42 0 57 -11q17 -9 17 -34q0 -21 -17.5 -31t-89.5 -10h-563q-64 0 -82 9
q-16 10 -16 34q0 20 16.5 31.5t52.5 11.5h262v504l-174 -121l-2 -2q-18 -12 -30 -12q-15 0 -28 10q-9 9 -11 24q0 13 6 24t22 24l217 153v455z" />
    <glyph glyph-name="fraction" unicode="&#x2215;" 
d="M883 1307q13 30 30.5 45.5t34.5 15.5q15 0 24 -8.5t9 -22.5q0 -13 -5 -27q-3 -15 -15 -42l-609 -1370q-17 -40 -33 -56q-12 -14 -30 -14q-16 0 -26.5 11.5t-10.5 27.5q0 23 25 77l10 22z" />
    <glyph glyph-name="fi" unicode="&#xf001;" 
d="M365 838v-752h159q43 0 58.5 -10.5t15.5 -34.5q0 -21 -17.5 -31t-88.5 -10h-318q-63 0 -80.5 9t-17.5 34q0 20 16.5 31.5t52.5 11.5h121v752h-119q-39 0 -54 8.5t-15 30.5q0 24 22 36q24 11 76 11h90v37q0 142 102.5 221.5t290.5 79.5q157 0 254 -50t97 -127
q0 -42 -30.5 -73t-74.5 -31q-43 0 -72 23q-28 25 -28 57q0 23 11 41t34 33q-7 22 -62.5 36.5t-138.5 14.5q-136 0 -210 -60.5t-74 -171.5v-30h600q18 0 25 -7.5t7 -35.5v-25v-770h119q42 0 57 -11q17 -9 17 -34q0 -21 -17.5 -31t-89.5 -10h-274q-64 0 -82 9q-16 10 -16 34
q0 20 16.5 31.5t52.5 11.5h121v752h-536z" />
    <glyph glyph-name="fl" unicode="&#xf002;" 
d="M856 1233h102q19 0 26 -7.5t7 -35.5v-25v-1079h135q41 0 56.5 -10.5t15.5 -34.5q0 -22 -16 -31.5t-88 -9.5h-291q-64 0 -82 9q-16 10 -16 34q0 20 16.5 31.5t52.5 11.5h121v911h-14q-27 0 -47.5 21.5t-20.5 50.5q0 21 8.5 36t26.5 30q-7 22 -62.5 36.5t-138.5 14.5
q-136 0 -211.5 -60.5t-75.5 -171.5v-30h162q43 0 57.5 -9.5t14.5 -33.5t-18.5 -33.5t-86.5 -9.5h-129v-752h162q41 0 56.5 -10.5t15.5 -34.5q0 -22 -17 -31.5t-88 -9.5h-317q-64 0 -82 9q-16 10 -16 34q0 20 16.5 31.5t52.5 11.5h121v752h-121q-39 0 -54 8.5t-15 30.5
q0 24 22 36q24 11 76 11h92v37q0 142 102.5 221.5t290.5 79.5q36 0 51 -1.5t44 -6.5q46 -6 104 -21z" />
    <glyph glyph-name="Zcaron" unicode="&#x17d;" 
d="M870 1145h-544v-144q0 -122 -11 -161t-39 -39q-23 0 -35 26q-10 30 -10 97v184q0 81 25 103t150 22h505q36 0 55 -8.5t19 -26.5v-33q0 -8 -8 -24q-6 -18 -19 -37l-620 -1018h580v145q0 122 10.5 161.5t38.5 39.5q24 0 33.5 -26.5t9.5 -96.5v-184q0 -82 -24.5 -103.5
t-149.5 -21.5h-514q-58 0 -79.5 12.5t-21.5 44.5q0 21 30 69l11 17zM590 1372q-12 0 -18 3l-11 13l-194 301l-4 6l-1 10q0 9 5.5 15t13.5 6l11 -3l16 -13l213 -222l210 222l16 13q5 3 11 3q7 0 12.5 -5t6.5 -16l-1 -10q-2 -5 -4 -6l-194 -301l-13 -14l-16 -2h-59z" />
    <glyph glyph-name="zcaron" unicode="&#x17e;" 
d="M322 0q-57 0 -79 12t-22 43q0 23 9.5 43.5t31.5 44.5l617 695h-543v-95q0 -123 -11 -160q-9 -38 -38 -38q-26 0 -38 24q-9 24 -9 97v133q0 80 24.5 102.5t149.5 22.5h506q36 0 53.5 -8.5t17.5 -26.5v-31q0 -11 -8 -32t-16 -29l-627 -711h565v84q0 132 11 166.5t40 34.5
q24 0 33.5 -23t9.5 -100v-123q0 -81 -24 -104q-24 -21 -148 -21h-505zM590 1053q-12 0 -18 3l-11 13l-194 301l-4 6l-1 10q0 9 5.5 15t13.5 6l11 -3l16 -13l213 -222l210 222l16 13q5 3 11 3q7 0 12.5 -5t6.5 -16l-1 -10q-2 -5 -4 -6l-194 -301l-13 -14l-16 -2h-59z" />
    <glyph glyph-name="Cacute" unicode="&#x106;" 
d="M918 1106v33q0 50 11.5 71t39.5 21q25 0 36 -13.5t11 -43.5l-1 -22l-3 -140l1 -146l1 -18q0 -39 -11.5 -59.5t-33.5 -20.5q-39 0 -52 86l-4 25q-21 142 -94 219.5t-184 77.5q-155 0 -258 -155.5t-103 -399.5q0 -245 102 -403.5t255 -158.5q92 0 163.5 63t108.5 183l15 56
q18 77 57 77q19 0 30 -14.5t11 -42.5q0 -30 -14.5 -86t-38.5 -102q-51 -105 -136 -161.5t-192 -56.5q-204 0 -334.5 173.5t-130.5 453.5q0 300 129 480t342 180q90 0 160 -40t117 -116zM563 1382l-3 -2q-15 -12 -28 -12q-7 0 -12 5l-4 13v4l6 9l6 7l215 273q23 27 39.5 39
t32.5 12q21 0 38 -15.5t17 -37.5q0 -14 -9 -29q-5 -6 -14 -15.5t-24 -23.5z" />
    <glyph glyph-name="cacute" unicode="&#x107;" 
d="M201 463q0 212 126 346.5t328 134.5q128 0 217 -80.5t89 -195.5q0 -63 -30.5 -102.5t-82.5 -39.5q-39 0 -67.5 26t-28.5 62q0 48 41 77.5t41 51.5q0 41 -56.5 77t-134.5 36q-146 0 -244 -112t-98 -281q0 -171 95 -281t243 -110q71 0 134 30q31 16 55 36t44 50l33 51
q36 60 64 60q15 0 27 -12.5t12 -30.5q0 -90 -113.5 -183t-255.5 -93q-187 0 -312.5 136.5t-125.5 346.5zM559 1063l-3 -2q-15 -12 -28 -12q-7 0 -12 5l-4 13v4l6 9l6 7l215 273q23 27 39.5 39t32.5 12q21 0 38 -15.5t17 -37.5q0 -14 -9 -29q-5 -6 -14 -15.5t-24 -23.5z" />
    <glyph glyph-name="Ccaron" unicode="&#x10c;" 
d="M918 1106v33q0 50 11.5 71t39.5 21q25 0 36 -13.5t11 -43.5l-1 -22l-3 -140l1 -146l1 -18q0 -39 -11.5 -59.5t-33.5 -20.5q-39 0 -52 86l-4 25q-21 142 -94 219.5t-184 77.5q-155 0 -258 -155.5t-103 -399.5q0 -245 102 -403.5t255 -158.5q92 0 163.5 63t108.5 183l15 56
q18 77 57 77q19 0 30 -14.5t11 -42.5q0 -30 -14.5 -86t-38.5 -102q-51 -105 -136 -161.5t-192 -56.5q-204 0 -334.5 173.5t-130.5 453.5q0 300 129 480t342 180q90 0 160 -40t117 -116zM604 1372q-12 0 -18 3l-11 13l-194 301l-4 6l-1 10q0 9 5.5 15t13.5 6l11 -3l16 -13
l213 -222l210 222l16 13q5 3 11 3q7 0 12.5 -5t6.5 -16l-1 -10q-2 -5 -4 -6l-194 -301l-13 -14l-16 -2h-59z" />
    <glyph glyph-name="ccaron" unicode="&#x10d;" 
d="M201 463q0 212 126 346.5t328 134.5q128 0 217 -80.5t89 -195.5q0 -63 -30.5 -102.5t-82.5 -39.5q-39 0 -67.5 26t-28.5 62q0 48 41 77.5t41 51.5q0 41 -56.5 77t-134.5 36q-146 0 -244 -112t-98 -281q0 -171 95 -281t243 -110q71 0 134 30q31 16 55 36t44 50l33 51
q36 60 64 60q15 0 27 -12.5t12 -30.5q0 -90 -113.5 -183t-255.5 -93q-187 0 -312.5 136.5t-125.5 346.5zM600 1053q-12 0 -18 3l-11 13l-194 301l-4 6l-1 10q0 9 5.5 15t13.5 6l11 -3l16 -13l213 -222l210 222l16 13q5 3 11 3q7 0 12.5 -5t6.5 -16l-1 -10q-2 -5 -4 -6
l-194 -301l-13 -14l-16 -2h-59z" />
    <glyph glyph-name="dcroat" unicode="&#x111;" 
d="M872 1147h-161q-42 0 -57 9t-15 34q0 24 19 33.5t85 9.5h193q19 0 27 -9.5t8 -43.5v-15v-86h141q25 0 37 -10t12 -31q0 -15 -12 -26q-13 -8 -35 -8h-143v-916h80q36 0 52.5 -10t16.5 -31q0 -24 -22.5 -35.5t-75.5 -11.5h-109q-19 0 -27 9q-7 11 -7 44v15v100
q-55 -95 -130.5 -140.5t-181.5 -45.5q-186 0 -299.5 132.5t-113.5 348.5q0 217 112.5 349t296.5 132q110 0 185.5 -39.5t123.5 -120.5v220h-262q-20 0 -34 9q-11 9 -11 27q0 17 12 29q13 10 33 10h262v68zM567 70q142 0 228 111.5t86 299.5q0 171 -84 273t-224 102
q-141 0 -229 -110.5t-88 -292.5q0 -178 84 -280.5t227 -102.5z" />
    <glyph glyph-name="Scedilla" unicode="&#x15e;" 
d="M594 -16q-74 15 -141 55q-103 64 -164 188l8 -143v-25q0 -35 -9 -51t-30 -16q-27 0 -39 18q-10 20 -10 84v240q0 65 9 91t34 26q35 0 79 -108l7 -17q54 -131 143.5 -198t210.5 -67q133 0 219 75t86 188q0 179 -336 296l-67 23q-203 72 -283 144.5t-80 181.5
q0 132 102.5 212.5t276.5 80.5q105 0 182.5 -35t118.5 -103v97q0 15 11 24.5t30 9.5q24 0 36.5 -18.5t12.5 -58.5v-293q0 -33 -11.5 -53.5t-31.5 -20.5q-39 0 -48 90q0 16 -2.5 31t-6.5 31q-26 104 -101.5 159.5t-189.5 55.5q-128 0 -201 -55t-73 -148q0 -138 334 -256
l18 -6q241 -84 324.5 -168.5t83.5 -218.5q0 -146 -114 -250q-58 -51 -128 -76t-158 -25l-49 2v-98l33 3l33 1q75 0 120.5 -45t45.5 -117q0 -71 -57 -116t-150 -45q-89 0 -180 30t-91 58q0 14 10 24.5t23 10.5t86 -29t121 -29q65 0 97 24.5t32 76.5q0 45 -32.5 68.5
t-94.5 23.5l-10 -1l-19 -1q-9 0 -14.5 6t-5.5 20v142z" />
    <glyph glyph-name="scedilla" unicode="&#x15f;" 
d="M594 -12q-35 5 -67.5 15.5t-63.5 28.5q-93 49 -139 136l2 -113v-10q0 -29 -9 -42t-28 -13q-25 0 -36 21t-11 65v198q0 58 10.5 81.5t36.5 23.5q22 0 40 -47q4 -12 7.5 -20.5t9.5 -20.5q54 -111 133 -166q40 -27 85.5 -41t99.5 -14q112 0 180.5 48t68.5 130
q0 131 -323 212l-29 7q-203 48 -259 97t-56 134q0 109 88.5 177.5t230.5 68.5q104 0 178 -31t119 -94l-6 51v13q0 22 9.5 33.5t29.5 11.5q24 0 34.5 -20t10.5 -66v-137q0 -54 -6.5 -70.5t-26.5 -16.5q-30 0 -51 60l-12 32q-30 74 -98 111t-171 37q-105 0 -165 -39.5
t-60 -111.5q0 -96 229 -150l87 -20q212 -51 285 -113.5t73 -173.5q0 -117 -98 -192.5t-256 -75.5l-23 1v-104l33 3l33 1q75 0 120.5 -45t45.5 -117q0 -71 -57 -116t-150 -45q-89 0 -180 30t-91 58q0 14 10 24.5t23 10.5t86 -29t121 -29q65 0 97 24.5t32 76.5
q0 45 -32.5 68.5t-94.5 23.5l-10 -1l-19 -1q-9 0 -14.5 6t-5.5 20v146z" />
    <glyph glyph-name="franc" unicode="&#x20a3;" 
d="M240 666h258q38 0 55 -11q18 -9 18 -32q0 -22 -17.5 -33.5t-51.5 -11.5h-262v-492h161q37 0 54 -11q18 -9 18 -32q0 -22 -17.5 -32.5t-52.5 -10.5h-333q-35 0 -51.5 10.5t-16.5 32.5q0 21 18 32t54 11h63v1059h-63q-36 0 -54 11t-18 32q0 22 16.5 33.5t51.5 11.5h641
q38 0 55 -11q18 -9 18 -32q0 -21 -18.5 -33t-50.5 -12h-475v-479zM618 838q-39 0 -54 8.5t-15 30.5q0 24 22 36q24 11 76 11h121q18 0 25.5 -8.5t7.5 -43.5v-16v-127q96 90 159 129t115 39q60 0 106 -28q22 -13 34 -29t12 -35q0 -21 -13 -34q-6 -5 -14 -8t-20 -3
q-6 0 -46.5 18.5t-70.5 18.5q-52 0 -114 -44t-142 -137v-530h164q40 0 55.5 -10.5t15.5 -34.5q0 -21 -17.5 -31t-88.5 -10h-289q-63 0 -80.5 9t-17.5 34q0 20 16.5 31.5t52.5 11.5h93v752h-93z" />
    <glyph glyph-name="Gbreve" unicode="&#x11e;" 
d="M897 514h-113q-37 0 -53 9t-16 30q0 25 23 37t75 12h225q66 0 87.5 -9t21.5 -32q0 -20 -21 -33.5t-55 -13.5h-80v-195q0 -28 3.5 -87.5t3.5 -82.5l8 -112q0 -30 -9 -46t-28 -16q-21 0 -34 19q-6 9 -10.5 24.5t-4.5 32.5l-9 129q-36 -98 -112 -151.5t-183 -53.5
q-203 0 -332.5 173t-129.5 454q0 300 129 480t342 180q90 0 159 -39.5t117 -116.5v33q0 48 12 70t39 22q25 0 36 -13.5t11 -43.5v-21l-4 -141q0 -23 1 -71.5t1 -74.5v-18q0 -39 -11.5 -59.5t-33.5 -20.5q-38 0 -51 85l-4 25q-23 143 -95 220.5t-181 77.5q-155 0 -259 -157
t-104 -398q0 -247 101.5 -404.5t254.5 -157.5q130 0 206.5 115t76.5 311v29zM618 1419q-117 0 -196.5 73.5t-79.5 169.5q0 13 5 18t15 7q17 0 27 -31.5t19 -44.5q23 -42 75 -64t135 -22q82 0 135 21t78 65q8 13 18.5 44.5t27.5 31.5q8 0 12 -5.5t6 -19.5q0 -95 -79 -169
t-198 -74z" />
    <glyph glyph-name="gbreve" unicode="&#x11f;" 
d="M1075 -78q0 80 -117.5 133.5t-312.5 53.5q-187 0 -290 -50t-103 -141q0 -80 111.5 -130t298.5 -50t300 51t113 133zM328 621q0 -99 66 -168.5t165 -69.5q102 0 165.5 66.5t63.5 171.5q0 106 -63.5 171.5t-165.5 65.5q-100 0 -165.5 -67t-65.5 -170zM815 829
q56 59 108.5 87t106.5 28q61 0 96 -32q37 -31 37 -83q0 -44 -29 -74q-27 -30 -71 -30q-43 0 -69.5 23.5t-26.5 58.5q0 12 2 19l12 30q-34 -7 -69.5 -29t-55.5 -53q14 -33 22 -71q3 -19 5 -37t2 -39q0 -135 -93 -230.5t-227 -95.5q-58 0 -111 15t-94 44q-21 -24 -33 -48
q-10 -27 -10 -54q0 -23 6.5 -48.5t22.5 -57.5q57 15 146 26q36 4 84 7t92 3q238 0 375 -73t137 -197q0 -123 -141.5 -195.5t-393.5 -72.5q-239 0 -369.5 69t-130.5 197q0 57 30 108t91 91q-20 37 -31 70q-4 13 -7 30.5t-3 30.5q0 43 17 86q9 21 22.5 44t30.5 46
q-35 43 -51 86q-15 45 -15 108q0 141 94.5 234.5t237.5 93.5q76 0 142 -29t112 -86zM618 1100q-117 0 -196.5 73.5t-79.5 169.5q0 13 5 18t15 7q17 0 27 -31.5t19 -44.5q23 -42 75 -64t135 -22q82 0 135 21t78 65q8 13 18.5 44.5t27.5 31.5q8 0 12 -5.5t6 -19.5
q0 -95 -79 -169t-198 -74z" />
    <glyph glyph-name="Idotaccent" unicode="&#x130;" 
d="M565 1147h-286q-41 0 -58 9q-14 9 -14 34q0 24 19 33.5t85 9.5h615q63 0 80.5 -9t17.5 -34q0 -23 -17 -33t-53 -10h-288v-1061h286q41 0 56.5 -10.5t15.5 -34.5q0 -22 -16 -31.5t-88 -9.5h-615q-63 0 -80.5 9t-17.5 34q0 20 16.5 31.5t52.5 11.5h289v1061zM526 1529
q0 36 28 65q30 28 67 28q36 0 64 -27t28 -66q0 -38 -27 -66t-65 -28q-39 0 -67 28t-28 66z" />
    <glyph glyph-name="c274" unicode="&#x10e;" horiz-adv-x="2324" 
 />
    <glyph glyph-name="c275" unicode="&#x10f;" horiz-adv-x="2324" 
 />
    <glyph glyph-name="c276" unicode="&#x110;" horiz-adv-x="2324" 
 />
    <glyph glyph-name="Omega" unicode="&#x3a9;" 
d="M453 86v217q-155 54 -239.5 175.5t-84.5 291.5q0 220 135.5 357t351.5 137q217 0 351.5 -137t134.5 -355q0 -159 -84.5 -282t-237.5 -185v-219h11q61 0 92.5 21t31.5 61q0 70 10.5 90.5t39.5 20.5q24 0 33.5 -13t9.5 -43v-119q0 -63 -25 -83.5t-147 -20.5h-142v367
q141 30 225.5 138.5t84.5 262.5q0 188 -107 299t-289 111q-170 0 -274.5 -112t-104.5 -298q0 -153 83.5 -262t226.5 -139v-367h-142q-123 0 -149 20q-25 22 -25 84v119q0 30 10 43t35 13q47 0 47 -92v-5v-4q0 -92 138 -92z" />
    <glyph glyph-name="pi" unicode="&#x3c0;" 
d="M512 838l-176 -709l-7 -29q-26 -108 -75 -108q-19 0 -29.5 6t-11.5 18l2 28l10 42l189 752h-154l-25 -87q-6 -21 -21.5 -33.5t-35.5 -12.5q-21 0 -31 6t-10 24l2 22l4 25l15 62q10 47 30 64q9 8 29.5 12t56.5 4h838q56 0 70 -9t14 -32t-26 -35q-28 -10 -85 -10h-75
l-164 -709l-5 -20q-27 -117 -77 -117q-19 0 -29.5 6t-11.5 18q0 22 11 58l3 12l174 752h-399z" />
    <glyph glyph-name="c279" unicode="&#x2015;" horiz-adv-x="2324" 
 />
    <glyph glyph-name="c280" unicode="&#x2016;" horiz-adv-x="2324" 
 />
    <glyph glyph-name="c281" unicode="&#x2017;" horiz-adv-x="2324" 
 />
    <glyph glyph-name="c282" unicode="&#x201b;" horiz-adv-x="2324" 
 />
    <glyph glyph-name="c283" unicode="&#x201f;" horiz-adv-x="2324" 
 />
    <glyph glyph-name="c284" unicode="&#x2023;" horiz-adv-x="2324" 
 />
    <glyph glyph-name="c285" unicode="&#x2024;" horiz-adv-x="2324" 
 />
    <glyph glyph-name="c286" unicode="&#x2025;" horiz-adv-x="2324" 
 />
    <glyph glyph-name="partialdiff" unicode="&#x2202;" 
d="M962 619l8 102l3 80q0 219 -66.5 331.5t-197.5 112.5q-69 0 -117.5 -27t-81.5 -83l-20 -44q-26 -63 -56 -63q-15 0 -27 15q-10 17 -10 40q0 92 93.5 172t224.5 80q173 0 262.5 -135.5t89.5 -400.5q0 -408 -136 -616t-401 -208q-162 0 -262 94t-100 246q0 194 139 328.5
t346 134.5q115 0 192 -39.5t117 -119.5zM639 692q-154 0 -264.5 -111.5t-110.5 -265.5q0 -113 75.5 -182.5t201.5 -69.5q156 0 266.5 111.5t110.5 263.5q0 116 -75.5 185t-203.5 69z" />
    <glyph glyph-name="c288" unicode="&#x2203;" horiz-adv-x="2324" 
 />
    <glyph glyph-name="c289" unicode="&#x2204;" horiz-adv-x="2324" 
 />
    <glyph glyph-name="c290" unicode="&#x2205;" horiz-adv-x="2324" 
 />
    <glyph glyph-name="Delta" unicode="&#x2206;" 
d="M332 86h569l-295 1131zM231 86l295 1116q7 32 23.5 46t46.5 14h35q28 0 42.5 -13.5t24.5 -52.5l303 -1110h64q39 0 54.5 -11t15.5 -36q0 -21 -19 -31q-9 -4 -27.5 -6t-52.5 -2h-841q-64 0 -81.5 9t-17.5 34q0 20 16.5 31.5t53.5 11.5h65z" />
    <glyph glyph-name="product" unicode="&#x220f;" 
d="M274 1475h-73q-38 0 -56 9q-16 10 -16 29q0 24 24 38q24 12 76 12h820q23 0 38 -11.5t15 -31.5q0 -23 -17 -34t-53 -11h-76v-1872h76q39 0 54.5 -11t15.5 -36q0 -22 -19 -30.5t-79 -8.5h-201q-69 0 -88 9t-19 32q0 24 17.5 34.5t56.5 10.5h88v1872h-483v-1872h88
q39 0 55.5 -10.5t16.5 -34.5q0 -21 -17.5 -31t-89.5 -10h-199q-63 0 -80.5 9t-17.5 34q0 21 16 33q18 10 54 10h73v1872z" />
    <glyph glyph-name="c293" unicode="&#x2210;" horiz-adv-x="2324" 
 />
    <glyph glyph-name="c294" unicode="&#x2211;" 
d="M295 1563l455 -2q119 0 145.5 -21t26.5 -88v-53q0 -49 -9.5 -69.5t-33.5 -20.5q-26 0 -40 30q-12 30 -12 101v33h-508l314 -789l15 -36q30 -72 30 -107q0 -29 -38 -121l-13 -32l-312 -785h508v39q0 74 12.5 99.5t38.5 25.5q22 0 33 -20t11 -58v-66q0 -65 -25 -85.5
t-148 -20.5h-450q-57 0 -73.5 10t-16.5 37q0 17 18 64l13 33l352 880l-353 879l-4 10q-26 63 -26 86q0 27 16.5 37t73.5 10z" />
    <glyph glyph-name="c295" unicode="&#x2212;" 
d="M201 584q-37 0 -48.5 10.5t-11.5 36.5q0 28 13.5 40.5t46.5 12.5h829q15 0 27.5 -1.5t23.5 -10.5t11 -35q0 -27 -14.5 -40t-47.5 -13h-829z" />
    <glyph glyph-name="c296" unicode="&#x2213;" horiz-adv-x="2324" 
 />
    <glyph glyph-name="c297" unicode="&#x2214;" horiz-adv-x="2324" 
 />
    <glyph glyph-name="c298" unicode="&#x2216;" horiz-adv-x="2324" 
 />
    <glyph glyph-name="c299" unicode="&#x2217;" horiz-adv-x="2324" 
 />
    <glyph glyph-name="c300" unicode="&#x2218;" horiz-adv-x="2324" 
 />
    <glyph glyph-name="radical" unicode="&#x221a;" 
d="M1135 1563h114q36 0 58 -13t22 -34q0 -22 -22 -38q-22 -14 -58 -14h-43l-573 -1503q-16 -44 -33 -61q-15 -17 -39 -17q-21 0 -39 18q-15 19 -33 58l-329 858l-107 -33l-22 -6l-17 -2q-22 0 -36.5 12.5t-14.5 30.5t16 33q15 16 50 27l118 36l10 3q21 6 31 6
q13 0 25.5 -9.5t19.5 -25.5l324 -842z" />
    <glyph glyph-name="c302" unicode="&#x221b;" horiz-adv-x="2324" 
 />
    <glyph glyph-name="c303" unicode="&#x221c;" horiz-adv-x="2324" 
 />
    <glyph glyph-name="c304" unicode="&#x221d;" horiz-adv-x="2324" 
 />
    <glyph glyph-name="infinity" unicode="&#x221e;" 
d="M668 623q30 -72 59.5 -126t56.5 -84q56 -63 123 -63q84 0 138.5 78.5t54.5 204.5q0 127 -49.5 202.5t-128.5 75.5q-74 0 -132.5 -65t-121.5 -223zM563 627q-68 169 -122.5 226.5t-133.5 57.5t-128.5 -77.5t-49.5 -200.5t54.5 -203t135.5 -80q73 0 123.5 55.5t120.5 221.5
zM614 485q-63 -126 -129.5 -180.5t-152.5 -54.5q-125 0 -208 107t-83 272q0 173 78 278t211 105q93 0 160 -57.5t126 -190.5q48 127 120 187.5t173 60.5q124 0 201.5 -106t77.5 -277t-78.5 -275t-206.5 -104q-90 0 -157.5 54t-131.5 181z" />
    <glyph glyph-name="integral" unicode="&#x222b;" 
d="M578 994q0 65 3.5 126t11 128.5t28.5 121.5q37 107 122.5 163t212.5 56q120 0 188 -23t68 -61q0 -15 -17 -28q-17 -11 -42 -11q-12 0 -82.5 14.5t-134.5 14.5q-141 0 -198 -96q-29 -49 -46.5 -149.5t-17.5 -245.5l-21 -738q0 -176 -24.5 -295t-68.5 -179
q-84 -114 -292 -114q-121 0 -177 18.5t-56 57.5q0 16 16 27.5t41 11.5q17 0 81.5 -13t107.5 -13q149 0 209 91q31 48 49 148.5t18 249.5z" />
    <glyph glyph-name="approxequal" unicode="&#x2248;" 
d="M788 776q64 0 133 44q35 22 57 33t34 11q6 0 14 -9q6 -9 6 -21q0 -44 -82 -101q-41 -28 -81.5 -41.5t-84.5 -13.5q-64 0 -181 43q-59 21 -101.5 32t-69.5 11q-59 0 -124.5 -42t-86.5 -42q-6 0 -14 9q-6 9 -6 22q0 45 77.5 97t157.5 52q61 0 180.5 -42t171.5 -42zM788 502
q64 0 133 44q35 22 57 33t34 11q6 0 14 -9q6 -9 6 -22q0 -44 -82 -101q-41 -28 -81.5 -41.5t-84.5 -13.5q-62 0 -180 42t-172 42q-59 0 -124.5 -42t-86.5 -42q-6 0 -14 9q-6 9 -6 22q0 46 77 99t158 53q61 0 180.5 -42t171.5 -42z" />
    <glyph glyph-name="notequal" unicode="&#x2260;" 
d="M260 721q-37 0 -48 10.5t-11 36.5q0 27 13 40q4 4 12 7q14 6 34 6h453l131 150q20 26 39 26t34 -15t15 -36q0 -7 -5 -15q-3 -8 -14 -20l-82 -90h142q36 0 47 -11q12 -9 12 -36t-13 -40t-46 -13h-223l-152 -176h375q37 0 48 -9.5t11 -35.5q0 -29 -13 -41.5t-46 -12.5h-449
l-131 -153l-2 -3q-19 -22 -39 -22q-22 0 -36.5 14t-14.5 35q0 8 3.5 16t14.5 19l80 94h-139q-37 0 -48 11t-11 37q0 27 13.5 39t45.5 12h213l154 176h-367z" />
    <glyph glyph-name="c309" unicode="&#x2261;" horiz-adv-x="2324" 
 />
    <glyph glyph-name="c310" unicode="&#x2262;" horiz-adv-x="2324" 
 />
    <glyph glyph-name="c311" unicode="&#x2263;" horiz-adv-x="2324" 
 />
    <glyph glyph-name="lessequal" unicode="&#x2264;" 
d="M1024 160h-829q-31 0 -45.5 12t-14.5 41q0 26 12 36.5t48 10.5h829q32 0 46.5 -12.5t14.5 -40.5q0 -25 -12 -37q-13 -10 -49 -10zM996 469l-793 250q-13 3 -24 15.5t-13 25.5v55q0 11 12 23.5t25 17.5l788 244l33 10q16 0 30 -17q15 -15 15 -36q0 -19 -8 -29t-31 -18
l-762 -222l766 -227q22 -6 31.5 -17t9.5 -30q0 -20 -14.5 -36.5t-32.5 -16.5l-12 2z" />
    <glyph glyph-name="greaterequal" unicode="&#x2265;" 
d="M229 469l-20 -6l-12 -2q-18 0 -32.5 16t-14.5 37q0 17 9 28.5t34 18.5l765 227l-761 222q-22 6 -31.5 17t-9.5 30q0 21 14 36t31 17l23 -6l11 -4l789 -244q12 -3 24 -18q9 -11 11 -23v-55q0 -13 -11 -24q-8 -11 -24 -17zM201 160q-37 0 -48.5 10.5t-11.5 36.5q0 27 14 40
q4 4 12 7q14 6 34 6h829q15 0 27.5 -1.5t23.5 -10.5t11 -35t-15 -41q-15 -12 -47 -12h-829z" />
    <glyph glyph-name="lozenge" unicode="&#x25ca;" 
d="M958 543l-342 727l-342 -727l342 -736zM1071 543l-455 -971l-454 971l454 966z" />
    <glyph glyph-name="apple" unicode="&#xf000;" 
d="M909 1317l1 -19l1 -30q0 -111 -84.5 -195t-169.5 -84h-6h-6l-8 3l-2 11v17q0 100 78 187t196 110zM1159 870q-82 -53 -124 -120q-20 -33 -30 -69t-10 -79q0 -94 50.5 -166t142.5 -112q-91 -200 -166.5 -279.5t-169.5 -79.5q-38 0 -106 26.5t-103 26.5q-19 0 -44.5 -6
t-62.5 -20q-71 -27 -104 -27q-52 0 -105 36t-106 108q-83 113 -129.5 243t-46.5 246q0 178 102.5 290.5t266.5 112.5q55 0 126.5 -27.5t100.5 -27.5q28 0 99 29t124 29q89 0 162.5 -33.5t132.5 -100.5z" />
  </font>
</defs>
</svg>
