<?xml version="1.0" encoding="utf-8"?>
<!-- Generator: Adobe Illustrator 19.1.0, SVG Export Plug-In . SVG Version: 6.00 Build 0)  -->
<svg version="1.1" id="Calque_1" xmlns="http://www.w3.org/2000/svg" xmlns:xlink="http://www.w3.org/1999/xlink" x="0px" y="0px"
	 viewBox="-215 365.5 36.5 86.8" style="enable-background:new -215 365.5 36.5 86.8;" xml:space="preserve" height="53" width="27">
<path fill="white" d="M-215,399.9v18c0,9.9,8.1,18,18,18s18-8.1,18-18v-18c0-9.9-8.1-18-18-18S-215,390-215,399.9z M-197,385.9
	c7.7,0,14,6.3,14,14v18c0,7.7-6.3,14-14,14s-14-6.3-14-14v-18C-211,392.2-204.7,385.9-197,385.9z"/>
<path fill="white" d="M-197,402.9c1.1,0,2-0.9,2-2v-6c0-1.1-0.9-2-2-2s-2,0.9-2,2v6C-199,402-198.1,402.9-197,402.9z"/>
<path fill="white" d="M-198.4,451.3c0.4,0.4,0.9,0.6,1.4,0.6s1-0.2,1.4-0.6l5-5c0.8-0.8,0.8-2,0-2.8c-0.8-0.8-2-0.8-2.8,0l-3.6,3.6l-3.6-3.6
	c-0.8-0.8-2-0.8-2.8,0c-0.8,0.8-0.8,2,0,2.8L-198.4,451.3z"/>
<path fill="white" d="M-198.4,366.5l-5,5c-0.8,0.8-0.8,2,0,2.8c0.4,0.4,0.9,0.6,1.4,0.6s1-0.2,1.4-0.6l3.6-3.6l3.6,3.6c0.4,0.4,0.9,0.6,1.4,0.6
	s1-0.2,1.4-0.6c0.8-0.8,0.8-2,0-2.8l-5-5C-196.4,365.7-197.6,365.7-198.4,366.5z"/>
</svg>
